SplineFontDB: 3.2
FontName: Acy-Regular
FullName: Acy
FamilyName: Acy
Weight: Regular
Copyright: Copyright (c) 2019, Yueyu
ItalicAngle: 0
UnderlinePosition: 0
UnderlineWidth: 0
Ascent: 800
Descent: 200
InvalidEm: 0
LayerCount: 2
Layer: 0 0 "Back" 1
Layer: 1 0 "Fore" 0
FSType: 0
OS2Version: 0
OS2_WeightWidthSlopeOnly: 0
OS2_UseTypoMetrics: 0
CreationTime: 1569685102
ModificationTime: 1570001799
PfmFamily: 17
TTFWeight: 400
TTFWidth: 5
LineGap: 90
VLineGap: 0
OS2TypoAscent: 0
OS2TypoAOffset: 1
OS2TypoDescent: 0
OS2TypoDOffset: 1
OS2TypoLinegap: 90
OS2WinAscent: 0
OS2WinAOffset: 1
OS2WinDescent: 0
OS2WinDOffset: 1
HheadAscent: 0
HheadAOffset: 1
HheadDescent: 0
HheadDOffset: 1
OS2Vendor: 'PfEd'
OS2CodePages: 0016000f.00000000
OS2UnicodeRanges: a00002bf.38cf7cfa.00000016.00000000
MarkAttachClasses: 1
DEI: 91125
LangName: 1033
LangName: 2052 "+ckhnQ2JAZwkA (C) 2019, Yueyu" "" "HW-+a2NeOAAA"
Registry: Adobe
Ordering: GB1
Supplement: 5
CIDVersion: 1
UnicodeInterp: simpchinese
NameList: AGL For New Fonts
DisplaySize: -48
AntiAlias: 1
FitToEm: 0
WinInfo: 940 20 4
OnlyBitmaps: 1
BeginPrivate: 0
EndPrivate
TeXData: 1 0 0 346030 173015 115343 0 1048576 115343 783286 444596 497025 792723 393216 433062 380633 303038 157286 324010 404750 52429 2506097 1059062 262144
BeginSubFonts: 1 30283
FontName: Acy-Regular-All
FullName: Acy
FamilyName: Acy
Weight: Regular
Copyright: Copyright (c) 2019, Yueyu
UComments: "2019-9-28: Created with FontForge (http://fontforge.org)"
Version: 001.000
ItalicAngle: 0
UnderlinePosition: -100
UnderlineWidth: 50
Ascent: 800
Descent: 200
InvalidEm: 0
LayerCount: 2
Layer: 0 0 "Back" 1
Layer: 1 0 "Fore" 0
XUID: [1021 487 1861083196 19891]
OS2Version: 0
OS2_WeightWidthSlopeOnly: 0
OS2_UseTypoMetrics: 1
CreationTime: 1569685134
ModificationTime: 1570280106
OS2TypoAscent: 0
OS2TypoAOffset: 1
OS2TypoDescent: 0
OS2TypoDOffset: 1
OS2TypoLinegap: 0
OS2WinAscent: 0
OS2WinAOffset: 1
OS2WinDescent: 0
OS2WinDOffset: 1
HheadAscent: 0
HheadAOffset: 1
HheadDescent: 0

StartChar: .notdef
Encoding: 0 -1 0
Width: 1000
VWidth: 0
Flags: H
LayerCount: 2
Fore
SplineSet
109.25 757.140625 m 0
 135 758.159179688 165.29296875 758.661132812 176.25 758.25 c 0
 187.270507812 757.836914062 223.75 756.770507812 257.5 755.875 c 0
 291.25 754.979492188 329.413085938 753.969726562 342.5 753.625 c 0
 355.548828125 753.28125 415.25 752.267578125 475 751.375 c 0
 543.5 750.3515625 586.340820312 748.7421875 590.75 747.02734375 c 0
 606.158203125 741.03515625 606.25 740.25 606.314453125 613.75 c 0
 606.396484375 453 611.883789062 187.100585938 616.168945312 136.25 c 0
 618.133789062 112.935546875 620.483398438 64.125 621.375 28.125 c 0
 622.266601562 -7.875 624.072265625 -43.9326171875 625.375 -51.75 c 0
 630.833007812 -84.5 630.78515625 -85.7021484375 623.75 -92.337890625 c 0
 613.139648438 -102.345703125 575.25 -104.912109375 488.75 -101.483398438 c 0
 386 -97.41015625 111.153320312 -97.763671875 88.25 -101.999023438 c 0
 66.5 -106.020507812 57.0244140625 -102.659179688 53.0146484375 -89.5 c 0
 51.62890625 -84.955078125 49.7138671875 -51.5 48.75 -15 c 0
 47.7861328125 21.5 45.9892578125 61.9150390625 44.75 75 c 0
 43.5107421875 88.0771484375 41.4677734375 189.75 40.203125 301.25 c 0
 37.9482421875 500 36.0087890625 556.369140625 28.5068359375 641.25 c 0
 26.4296875 664.75 24.0791015625 694.703125 23.25 708.25 c 0
 21.75 732.75 21.75 732.75 28.9052734375 740.25 c 0
 39.75 751.618164062 56 755.034179688 109.25 757.140625 c 0
265 710.140625 m 0
 207.25 713.125 92.640625 715.3046875 86.75 713.530273438 c 0
 83.423828125 712.528320312 85.625 709.614257812 96.875 700.125 c 0
 104.793945312 693.4453125 117.930664062 678.625 126.125 667.125 c 0
 134.319335938 655.625 147.34375 637.829101562 155.125 627.5 c 0
 162.846679688 617.25 173.5 601.383789062 178.625 592.5 c 0
 183.78125 583.5625 198.125 560.5 210.5 541.25 c 0
 222.905273438 521.953125 244.919921875 485.5 259.569335938 460 c 0
 299.20703125 391 315.30078125 366.676757812 318.787109375 370.5 c 0
 320.4140625 372.28515625 342.939453125 411.5 368.759765625 457.5 c 0
 434.712890625 575 455.377929688 607.372070312 505.0546875 671 c 0
 517.350585938 686.75 527.5 700.088867188 527.5 700.5 c 0
 527.5 700.911132812 502.375 701.306640625 471.875 701.375 c 0
 441.375 701.443359375 392.536132812 702.911132812 363.75 704.625 c 0
 334.75 706.3515625 290.547851562 708.8203125 265 710.140625 c 0
75.443359375 665.5 m 0
 68.2783203125 673.25 64.091796875 674.366210938 66.0654296875 668 c 0
 67.9072265625 662.057617188 74.453125 585.5 77.7587890625 531.25 c 0
 79.265625 506.514648438 81.42578125 401.25 82.556640625 297.5 c 0
 84.337890625 134 87.3916015625 39.326171875 91.5732421875 18 c 0
 92.5244140625 13.1484375 96.6005859375 18.625 112.875 46.625 c 0
 123.930664062 65.646484375 162.603515625 125.75 198.694335938 180 c 0
 268.877929688 285.5 290 318.40625 290 322.25 c 0
 290 323.622070312 281.721679688 337.5 271.657226562 353 c 0
 256.3671875 376.547851562 220.069335938 437.5 193.048828125 485 c 0
 186.649414062 496.25 156.857421875 544 133.46484375 580.5 c 0
 108.790039062 619 81.580078125 658.862304688 75.443359375 665.5 c 0
562 302.375 m 0
 560.760742188 387.125 558.963867188 503.36328125 558 561.125 c 2
 556.25 666 l 1
 532.377929688 633.75 l 2
 505.174804688 597 479.505859375 558.954101562 460.692382812 527.5 c 0
 438.413085938 490.25 347.5 324.796875 347.5 321.5 c 0
 347.5 319.71875 355.626953125 306.5 365.482421875 292.25 c 0
 408.36328125 230.25 432.263671875 196.37109375 447.491210938 176 c 0
 456.404296875 164.077148438 477.795898438 135.5 494.837890625 112.75 c 0
 523.865234375 74 570.180664062 16.8662109375 571.442382812 18.25 c 0
 572.80859375 19.7470703125 567.479492188 143.25 565.94140625 145.75 c 0
 565.009765625 147.264648438 563.239257812 217.625 562 302.375 c 0
357.25 223.125 m 0
 337.74609375 251.625 320.905273438 275 319.875 275 c 0
 318.834960938 275 312.713867188 266.375 306.125 255.625 c 0
 299.583984375 244.953125 271.522460938 202 243.65234375 160 c 0
 198.00390625 91.208984375 175.911132812 56.5 131.947265625 -15.5 c 0
 124.161132812 -28.25 115.322265625 -42.4755859375 112.375 -47 c 2
 107 -55.25 l 1
 141.75 -53.2666015625 l 2
 197.149414062 -50.10546875 419.75 -50.84765625 495.75 -54.4462890625 c 0
 534 -56.2578125 566.064453125 -57.185546875 566.75 -56.5 c 0
 568.775390625 -54.474609375 552.077148438 -32.25 522.419921875 2.5 c 0
 507.681640625 19.76953125 479.868164062 55 460.25 81.25 c 0
 440.631835938 107.5 417.591796875 138.256835938 408.75 150 c 0
 399.959960938 161.674804688 376.75390625 194.625 357.25 223.125 c 0
EndSplineSet
EndChar

StartChar: exclam
Encoding: 2 33 2
Width: 1000
VWidth: 0
Flags: H
LayerCount: 2
Fore
SplineSet
81.25 -6 m 0
 94.5263671875 7.2763671875 113.11328125 -2 116.31640625 -23.5 c 0
 119.4453125 -44.5 116.728515625 -88.2568359375 111.831054688 -95.75 c 0
 103.82421875 -108 86.1728515625 -108 78.1630859375 -95.75 c 0
 74.72265625 -90.4873046875 73.55078125 -82.5 72.84375 -59.5 c 0
 71.7529296875 -24 73.3388671875 -13.9111328125 81.25 -6 c 0
118.25 650.827148438 m 0
 126.75 654.298828125 136.875976562 652.301757812 142.720703125 646 c 2
 148.75 639.5 l 1
 149.58984375 546.5 l 2
 150.778320312 415 145.534179688 315.760742188 131.149414062 197.5 c 0
 123.517578125 134.75 118.55078125 107.010742188 112.485351562 93.25 c 0
 106.754882812 80.25 100.115234375 79.4384765625 92.0361328125 90.75 c 0
 83.435546875 102.791015625 83.15625 139.75 91.0029296875 227.5 c 0
 103.431640625 366.5 107.5 450.533203125 107.5 568.25 c 0
 107.5 622.5 108.213867188 636.60546875 111.25 642.375 c 0
 113.35546875 646.375 116.42578125 650.08203125 118.25 650.827148438 c 0
EndSplineSet
EndChar

StartChar: quotedbl
Encoding: 3 34 3
Width: 1000
VWidth: 0
Flags: H
LayerCount: 2
Fore
SplineSet
197.833007812 653.75 m 0
 207.451171875 665.899414062 220.196289062 660.75 226.295898438 642.25 c 0
 229.979492188 631.080078125 230.344726562 620.625 229.25 557.875 c 0
 228.46875 513.125 226.849609375 482.310546875 224.934570312 475.75 c 0
 221.28515625 463.25 212.552734375 454.107421875 206.5 456.448242188 c 0
 194.704101562 461.010742188 190.911132812 484.25 188.744140625 565.25 c 0
 187.130859375 625.5 188.870117188 642.427734375 197.833007812 653.75 c 0
83.5 658.75 m 2
 93.6171875 668.8671875 107.416992188 666.75 114.465820312 654 c 0
 118.239257812 647.174804688 118.724609375 637.75 118.533203125 575 c 0
 118.298828125 498 116.16015625 479.591796875 106.10546875 468 c 0
 101.333984375 462.5 99.4169921875 461.762695312 95.75 464.01953125 c 0
 81.3740234375 472.866210938 77.5 499.5 77.5 589.5 c 2
 77.5 652.75 l 1
 83.5 658.75 l 2
EndSplineSet
EndChar

StartChar: numbersign
Encoding: 4 35 4
Width: 1000
VWidth: 0
Flags: H
LayerCount: 2
Fore
SplineSet
331.213867188 622.5 m 0
 335.647460938 627.465820312 345.75 629.016601562 353.75 625.958984375 c 0
 365.762695312 621.369140625 367.743164062 597 361.345703125 532.5 c 0
 359.362304688 512.5 357.694335938 494.849609375 357.625 493.125 c 0
 357.532226562 490.817382812 364.5 490 384.25 490 c 0
 415 490 426.293945312 486.223632812 432.099609375 474 c 0
 436.416992188 464.912109375 433.75 456.25 424.5 449.3125 c 0
 419.015625 445.19921875 411.75 443.829101562 385.75 442.006835938 c 0
 352.5 439.674804688 349.995117188 438.661132812 349.930664062 427.5 c 0
 349.862304688 415.514648438 334.849609375 318.25 325.69921875 270.5 c 0
 320.620117188 244 317.059570312 221.99609375 317.75 221.375 c 0
 318.4375 220.755859375 329.625 221.879882812 342.625 223.875 c 0
 355.625 225.870117188 373.333007812 227.5 382 227.5 c 0
 395.5 227.5 398.607421875 226.642578125 403.75 221.5 c 0
 410.783203125 214.466796875 411.875 201.5 406.129882812 193.25 c 0
 400.40625 185.032226562 378.5 178.030273438 344.5 173.55078125 c 0
 327.5 171.311523438 311.458007812 169.108398438 308.625 168.625 c 0
 304.490234375 167.918945312 302.413085938 163.5 297.875 145.75 c 0
 294.784179688 133.663085938 284.352539062 95.25 274.723632812 60.5 c 0
 257.544921875 -1.5 247.5 -45.8671875 247.5 -59.75 c 0
 247.5 -63.5 245.134765625 -69.767578125 242.405273438 -73.25 c 0
 232.45703125 -85.9423828125 212.6484375 -80.25 208.477539062 -63.5 c 0
 205.6796875 -52.2646484375 209.578125 -12.75 216.098632812 13.75 c 0
 219.489257812 27.529296875 230.16015625 67.25 239.875 102.25 c 0
 249.58984375 137.25 257.219726562 166.030273438 256.875 166.375 c 0
 256.532226562 166.717773438 234.25 167.39453125 207.5 167.875 c 2
 158.75 168.75 l 1
 153.23046875 142.5 l 2
 136.98828125 65.25 124.28125 -1.4580078125 117.5625 -44.75 c 0
 109.181640625 -98.75 106.674804688 -104.768554688 92.5 -104.930664062 c 0
 89.25 -104.96875 83.8642578125 -102.536132812 80.75 -99.625 c 0
 75.4072265625 -94.630859375 75 -92.25 75 -66 c 0
 75 -21.568359375 78.9638671875 3.5 109.234375 150.5 c 0
 111.448242188 161.25 112.745117188 170.504882812 112.125 171.125 c 0
 111.506835938 171.743164062 91.75 172.600585938 68.25 173.029296875 c 0
 19.25 173.922851562 15 175.4765625 15 192.5 c 0
 15 211.436523438 27.5 216.080078125 85.75 218.783203125 c 0
 109.75 219.896484375 123.100585938 221.465820312 123.748046875 223.25 c 0
 127.9765625 234.900390625 157.5 415.75 157.5 430 c 0
 157.5 434.799804688 155.75 435 113.75 435 c 2
 70 435 l 1
 67.1591796875 428.75 l 2
 61.6015625 416.5234375 49 418.440429688 30 434.400390625 c 0
 22.744140625 440.495117188 21.25 443.5 21.25 452 c 0
 21.25 472.313476562 30.25 475.845703125 92.5 479.966796875 c 0
 169.5 485.064453125 164.665039062 484.19140625 166.038085938 493.25 c 0
 166.706054688 497.658203125 169.556640625 517.75 172.38671875 538 c 0
 180.529296875 596.25 189.313476562 617.5 205.25 617.5 c 0
 215.5 617.5 219.721679688 615.123046875 223.895507812 607 c 0
 227.3828125 600.213867188 227.374023438 598 223.798828125 583.75 c 0
 220.599609375 571 209.961914062 498.21484375 209.950195312 489 c 0
 209.9453125 485.34765625 310.70703125 489.5 313.091796875 493.25 c 0
 314.127929688 494.87890625 315.057617188 500.25 315.125 505 c 0
 315.193359375 509.807617188 317.840820312 537.125 321 565.625 c 0
 325.516601562 606.375 327.70703125 618.572265625 331.213867188 622.5 c 0
307.5 438.75 m 0
 307.5 439.922851562 268.5 439.596679688 226 438.068359375 c 2
 203.25 437.25 l 1
 199 404.25 l 2
 196.662109375 386.09765625 189.182617188 338.125 182.375 297.625 c 0
 175.567382812 257.125 170 222.538085938 170 220.75 c 0
 170 218.166015625 180.25 217.5 220 217.5 c 0
 247.5 217.5 270 217.893554688 270 218.375 c 0
 270 218.852539062 272.77734375 232.75 276.12109375 249 c 0
 287.438476562 304 307.5 425.315429688 307.5 438.75 c 0
EndSplineSet
EndChar

StartChar: dollar
Encoding: 5 36 5
Width: 1000
VWidth: 0
Flags: H
LayerCount: 2
Fore
SplineSet
205 657.5 m 0
 211.5 664 226 664 232.5 657.5 c 0
 236.25 653.75 247.037109375 624 250.991210938 606.5 c 0
 251.26953125 605.26953125 258.75 602.767578125 267.5 600.978515625 c 0
 300.75 594.180664062 329.111328125 574.6953125 348.25 545.5 c 0
 368.080078125 515.25 372.721679688 492.305664062 362.409179688 475.5 c 0
 358.341796875 468.87109375 356 467.5 348.75 467.5 c 0
 338.720703125 467.5 333.997070312 473.25 331.291992188 488.75 c 0
 326.256835938 517.603515625 296 549.665039062 265.25 558.731445312 c 2
 259.25 560.5 l 1
 261.016601562 538.75 l 2
 264.833984375 491.75 267.309570312 434.28515625 267.40234375 390.5 c 2
 267.5 344.75 l 1
 275.75 338.009765625 l 2
 322 300.223632812 350.017578125 261.297851562 362.668945312 217.25 c 0
 369.346679688 194 372.185546875 133.713867188 367.63671875 111.75 c 0
 362.666992188 87.75 346.416992188 58.5947265625 327.75 40.185546875 c 0
 304.75 17.50390625 269.685546875 0 247.25 0 c 0
 243.5 0 239.669921875 -0.986328125 239 -2.125 c 0
 238.311523438 -3.294921875 236.508789062 -24.25 234.98828125 -48.75 c 0
 231.979492188 -97.25 228.71484375 -110.137695312 218.25 -114.83203125 c 0
 210.419921875 -118.34375 201.290039062 -113.25 197.045898438 -103 c 0
 195.48046875 -99.2216796875 193.754882812 -74.625 193.125 -47.125 c 2
 192 2 l 1
 183 3.654296875 l 2
 168.384765625 6.3408203125 144.5 18.80859375 125.5 33.66796875 c 0
 104.873046875 49.80078125 86.4091796875 72.25 72.794921875 97.75 c 0
 54.775390625 131.5 50.76953125 156.520507812 60.06640625 177.25 c 2
 65 188.25 l 1
 70.875 182.75 l 2
 74.1181640625 179.713867188 83.70703125 163.25 92.279296875 146 c 0
 109.795898438 110.75 126.205078125 88.7705078125 147.25 72.3671875 c 0
 163 60.091796875 190.958984375 46.2451171875 195 48.7197265625 c 0
 196.345703125 49.5439453125 197.5 54.75 197.5 60 c 0
 197.5 65.373046875 201.416992188 106 206.224609375 150.5 c 0
 215.137695312 233 220 289.55859375 220 310.75 c 2
 220 322.5 l 1
 193.25 335.875 l 2
 162 351.5 139.504882812 367.622070312 125.400390625 384.5 c 0
 114.706054688 397.298828125 88.1025390625 440.75 78.4111328125 461.25 c 0
 70.9638671875 477 70.4951171875 496.299804688 77.2373046875 509.5 c 0
 92.90234375 540.170898438 148.5 582.036132812 192.5 596.293945312 c 0
 200 598.724609375 206.477539062 600.920898438 206.75 601.125 c 0
 207.021484375 601.328125 205.634765625 608.25 203.719726562 616.25 c 0
 198.513671875 638 198.930664062 651.430664062 205 657.5 c 0
217.25 502.375 m 0
 215.73828125 525.125 213.768554688 547.294921875 212.875 551.625 c 2
 211.25 559.5 l 1
 195.75 553.88671875 l 2
 168.25 543.927734375 137.51171875 522.49609375 117.387695312 499.25 c 0
 107.0625 487.322265625 107.155273438 487 132.758789062 445.75 c 0
 155.103515625 409.75 168.672851562 396.283203125 197.75 381.251953125 c 2
 220 369.75 l 1
 220 415.375 l 2
 220 440.375 218.756835938 479.704101562 217.25 502.375 c 0
283.553710938 268.25 m 0
 275.79296875 277.5 268.772460938 285 267.875 285 c 0
 266.978515625 285 264.233398438 262.875 261.75 235.625 c 0
 259.265625 208.370117188 253.970703125 158.25 249.930664062 123.75 c 0
 241.46875 51.5 241.275390625 47.5 246.25 47.5 c 0
 256.149414062 47.5 278.75 58.943359375 291 70.158203125 c 0
 321.833007812 98.3857421875 331.381835938 141.25 319.64453125 198.75 c 0
 315.765625 217.75 299.267578125 249.521484375 283.553710938 268.25 c 0
EndSplineSet
EndChar

StartChar: percent
Encoding: 6 37 6
Width: 1000
VWidth: 0
Flags: H
LayerCount: 2
Fore
SplineSet
304.5 189.092773438 m 0
 319.75 193.438476562 343.736328125 191.912109375 357.75 185.705078125 c 0
 390.461914062 171.21484375 405.048828125 134 401.630859375 73.75 c 0
 398.653320312 21.25 386.196289062 -13.845703125 362.75 -35.791015625 c 0
 335.49609375 -61.30078125 289.25 -60.3837890625 254.25 -33.6396484375 c 0
 227.147460938 -12.9306640625 218.581054688 11.5 220.978515625 61.25 c 0
 223.60546875 115.75 233.779296875 146.049804688 254.5 161.081054688 c 0
 274.5 175.588867188 292.5 185.673828125 304.5 189.092773438 c 0
347 148.625 m 0
 343.556640625 151.05078125 336.125 152.5 327.125 152.5 c 0
 315.309570312 152.5 309.5 150.80859375 294.5 143 c 0
 279.25 135.061523438 275.345703125 131.69140625 270.75 122.5 c 0
 264.002929688 109.005859375 260.67578125 92.5 258.455078125 61.5 c 0
 256.198242188 30 258.46875 16.8818359375 268.061523438 6 c 0
 280.23046875 -7.8056640625 293.5 -13.5458984375 313.5 -13.65625 c 2
 330.5 -13.75 l 1
 341.583007812 -1.5 l 2
 358.833984375 17.56640625 363.75 36.75 363.75 85 c 0
 363.75 120.25 363.2421875 124.698242188 358.125 134.25 c 0
 355.044921875 140 350.01171875 146.502929688 347 148.625 c 0
96.75 578.615234375 m 0
 105.33984375 581.396484375 115.5 582.21875 132.5 581.510742188 c 0
 185.25 579.3125 223.280273438 555.473632812 234.215820312 517.75 c 0
 239.383789062 499.922851562 237.415039062 461 230.041992188 435.25 c 0
 218.16015625 393.75 192.594726562 356.434570312 167.25 343.598632812 c 0
 124.83203125 322.115234375 78.4462890625 345.75 57.0478515625 399.75 c 0
 52.404296875 411.46875 51.4189453125 419.25 51 447.5 c 0
 50.7255859375 466 49.708984375 489.72265625 48.75 500 c 0
 47.2568359375 516 47.818359375 520.950195312 52.578125 533.75 c 0
 59.736328125 553 79.4384765625 573.01171875 96.75 578.615234375 c 0
157 537.869140625 m 0
 148.4921875 540.495117188 134.75 542.458007812 125.25 542.403320312 c 0
 105.5 542.290039062 94.689453125 536.951171875 83.9404296875 522 c 0
 77.46875 513 77.150390625 511.775390625 80.75 509.75390625 c 0
 89.462890625 504.86328125 90.296875 498.75 86.3154296875 469 c 0
 82.9345703125 443.75 82.9365234375 438.818359375 86.328125 425.75 c 0
 93.4658203125 398.25 115.649414062 375 134.75 375 c 0
 163.708007812 375 195.634765625 433 195.98828125 486.25 c 0
 196.193359375 517.25 187.803710938 528.357421875 157 537.869140625 c 0
331.25 591.098632812 m 0
 341.25 596.307617188 346.461914062 596.038085938 352.5 590 c 0
 358.970703125 583.529296875 358.774414062 578.75 351.473632812 565 c 0
 348.188476562 558.8125 332.510742188 513.25 316.635742188 463.75 c 0
 279.192382812 347 259.701171875 289.563476562 223.739257812 190 c 0
 188.342773438 92 174.278320312 49.5751953125 159.09765625 -5 c 0
 145.67578125 -53.25 134.703125 -82.8974609375 126.063476562 -94.25 c 0
 114.479492188 -109.47265625 100 -102.25 100 -81.25 c 0
 100 -63.8798828125 112.094726562 -4 123.681640625 36 c 0
 135.258789062 75.96484375 140.467773438 91 177.470703125 191.25 c 0
 213.828125 289.75 240.518554688 367.021484375 270.301757812 460 c 0
 305.376953125 569.5 310.360351562 580.21875 331.25 591.098632812 c 0
EndSplineSet
EndChar

StartChar: ampersand
Encoding: 7 38 7
Width: 1000
VWidth: 0
Flags: H
LayerCount: 2
Fore
SplineSet
131.5 571.311523438 m 0
 153.814453125 579.2421875 187.25 573.856445312 223.75 556.454101562 c 0
 290 524.8671875 323.278320312 473.306640625 315.044921875 415 c 0
 308.409179688 368 287 336.734375 208 258.673828125 c 2
 159.5 210.75 l 1
 164.560546875 201 l 2
 169.751953125 191 244.33203125 69.9765625 250.528320312 61.5 c 0
 253.728515625 57.12109375 254.67578125 58 262.6484375 72.75 c 0
 292.14453125 127.318359375 312.077148438 193.5 317.461914062 254.75 c 0
 320.318359375 287.25 323.6953125 295 335 295 c 0
 351.575195312 295 356.33984375 281.5 354.323242188 240.25 c 0
 351.31640625 178.75 320.009765625 83.1904296875 286.34375 32.75 c 0
 281.504882812 25.5 277.5 18.7080078125 277.5 17.75 c 0
 277.5 10.5 326.833007812 -47.5 333 -47.5 c 0
 337.122070312 -47.5 342.814453125 -63 341.262695312 -70 c 0
 337.770507812 -85.75 322.610351562 -90.9658203125 307 -81.787109375 c 0
 293.734375 -73.9873046875 269 -48.5 256.5 -29.75 c 2
 247 -15.5 l 1
 231 -27.6630859375 l 2
 199.328125 -51.73828125 170 -61.455078125 134.5 -59.634765625 c 0
 108.25 -58.2880859375 90.556640625 -50.5361328125 72.572265625 -32.5 c 0
 38.15234375 2.0185546875 25.1279296875 70.5 43.1875 122 c 0
 51.0087890625 144.303710938 70.287109375 175.5 91.2353515625 199.75 c 2
 107 218 l 1
 97.580078125 238.5 l 2
 71.7314453125 294.75 62.4091796875 330.477539062 60.662109375 380 c 0
 58.6328125 437.5 66.361328125 480.302734375 86.16796875 521.25 c 0
 98.5029296875 546.75 115.640625 565.67578125 131.5 571.311523438 c 0
188.25 523.833984375 m 0
 179 527.052734375 165.494140625 530.491210938 158.625 531.375 c 0
 147.375 532.823242188 145.12890625 532.268554688 138 526.286132812 c 0
 128.319335938 518.161132812 112.096679688 485.25 106.55859375 462.5 c 0
 90.7822265625 397.692382812 97.873046875 335 128.499023438 268.5 c 2
 137.25 249.5 l 1
 144.25 254.479492188 l 2
 157.196289062 263.6875 233.6796875 343.5 245.609375 360.25 c 0
 266.0859375 389 271.25 402.794921875 271.25 428.75 c 0
 271.25 447.5 270.244140625 453.291992188 265.211914062 463.5 c 0
 253.217773438 487.8359375 222.5 511.916015625 188.25 523.833984375 c 0
145.5 150.625 m 0
 136.581054688 165.375 128.4609375 177.5 127.5 177.5 c 0
 124.696289062 177.5 109.698242188 158.5 96.9111328125 138.75 c 0
 80.5009765625 113.405273438 74.25 93.75 74.25 67.5 c 0
 74.25 16.75 101.336914062 -19.828125 139 -19.9375 c 0
 149.301757812 -19.9677734375 173 -13.5986328125 184.5 -7.7099609375 c 0
 197.75 -0.9248046875 222.5 17.9375 222.5 21.25 c 0
 222.5 22.7666015625 208.873046875 46.375 192.125 73.875 c 0
 175.376953125 101.375 154.459960938 135.806640625 145.5 150.625 c 0
EndSplineSet
EndChar

StartChar: quotesingle
Encoding: 8 39 8
Width: 1000
VWidth: 0
Flags: H
LayerCount: 2
Fore
SplineSet
105 588.305664062 m 0
 118.047851562 593.095703125 134.600585938 585.5 143.254882812 570.75 c 0
 151.090820312 557.395507812 151.838867188 528.25 145.0390625 501.25 c 0
 131.944335938 449.25 103.901367188 391.009765625 78.1103515625 362.25 c 0
 54.75390625 336.204101562 54.5244140625 352 77.234375 422.75 c 0
 85.33984375 448 95.044921875 479.237304688 98.75 492 c 2
 105.5 515.25 l 1
 97.7783203125 531.75 l 2
 84.791015625 559.5 87.65625 581.9375 105 588.305664062 c 0
EndSplineSet
EndChar

StartChar: parenleft
Encoding: 9 40 9
Width: 1000
VWidth: 0
Flags: H
LayerCount: 2
Fore
SplineSet
215 590.943359375 m 0
 224 595.959960938 234.373046875 600 238.25 600 c 0
 245 600 255 592.387695312 255 587.25 c 0
 255 579.372070312 245 568.19140625 223.25 551.752929688 c 0
 197.611328125 532.375 183.473632812 517.5 158.140625 483.25 c 0
 133.432617188 449.844726562 125.451171875 434.75 113.857421875 399.5 c 0
 93.3349609375 337.1015625 84.5361328125 279 84.025390625 202.5 c 0
 83.7802734375 165.75 84.3916015625 159.204101562 89.6279296875 142.5 c 0
 104.950195312 93.6201171875 153.776367188 17.5 221.123046875 -62.5 c 0
 245.74609375 -91.75 275 -133.422851562 275 -139.25 c 0
 275 -143.290039062 260.75 -138.388671875 239.5 -127.0390625 c 0
 183.182617188 -96.9580078125 74.5849609375 52.25 51.1455078125 131.75 c 0
 42.8916015625 159.74609375 41.046875 192 44.8125 242.5 c 0
 50.1435546875 314 59.568359375 363.561523438 78.091796875 417.5 c 0
 89.595703125 451 96.8603515625 464.827148438 120.122070312 497.5 c 0
 155.71875 547.5 180.055664062 571.46875 215 590.943359375 c 0
EndSplineSet
EndChar

StartChar: parenright
Encoding: 10 41 10
Width: 1000
VWidth: 0
Flags: H
LayerCount: 2
Fore
SplineSet
67.5 609.211914062 m 0
 75.0673828125 613.037109375 73.75 613.0625 83.75 608.895507812 c 0
 109.870117188 598.012695312 167.583007812 544.5 190.677734375 509.75 c 0
 227.115234375 454.924804688 252.403320312 376.5 260.084960938 294.5 c 0
 264.487304688 247.5 262.052734375 168.551757812 255.134765625 134 c 0
 236.913085938 43 186.708984375 -53.71484375 126.5 -113.8046875 c 0
 109.75 -130.521484375 93.498046875 -144.260742188 85.5 -148.463867188 c 0
 70.25 -156.479492188 45 -160.2421875 45 -154.5 c 0
 45 -149.060546875 55.7900390625 -134.5 84.2763671875 -101.5 c 0
 147.380859375 -28.39453125 192.166015625 58 210.111328125 141.25 c 0
 214.217773438 160.303710938 215.814453125 178.5 216.822265625 217.75 c 0
 218.774414062 293.75 212.8359375 342.865234375 194.909179688 399 c 0
 171.834960938 471.25 145.6953125 510.944335938 89.25 559.447265625 c 0
 75.75 571.047851562 62.90234375 583.305664062 60.6337890625 586.75 c 0
 55.4365234375 594.642578125 58.5 604.6640625 67.5 609.211914062 c 0
EndSplineSet
EndChar

StartChar: asterisk
Encoding: 11 42 11
Width: 1000
VWidth: 0
Flags: H
LayerCount: 2
Fore
SplineSet
192.75 530.25 m 0
 199.232421875 536.732421875 209.35546875 535.5 215.331054688 527.5 c 0
 218.0703125 523.833007812 220.993164062 513.5 222.404296875 502.5 c 0
 225.170898438 480.91796875 230 397 230 370.5 c 0
 230 360.5 230.666992188 352.5 231.5 352.5 c 0
 232.319335938 352.5 244 362.905273438 257.25 375.439453125 c 0
 304.25 419.8984375 333.05078125 440 349.75 440 c 0
 360.728515625 440 370 430.5 370 419.25 c 0
 370 408.536132812 363.75 401.559570312 326.25 370.415039062 c 0
 309.75 356.711914062 285.5625 334.643554688 272.5 321.375 c 2
 248.75 297.25 l 1
 255.25 291.75 l 2
 258.80078125 288.74609375 275.25 274.905273438 291.5 261.25 c 0
 307.75 247.594726562 334.5234375 226.154296875 350.5 214.001953125 c 0
 390.75 183.387695312 398.256835938 168.006835938 381.25 151 c 0
 373.1015625 142.8515625 356.5 142.854492188 340.5 151.006835938 c 0
 324.697265625 159.05859375 294.75 180.728515625 261.75 207.989257812 c 0
 246.75 220.380859375 234.21875 230.106445312 233.875 229.625 c 0
 233.530273438 229.141601562 231.9140625 200.75 230.267578125 166.25 c 0
 222.380859375 1 222.680664062 3.5966796875 210.75 -2.7822265625 c 0
 202.532226562 -7.17578125 192.711914062 -3.25 185.653320312 7.25 c 0
 178.466796875 17.9404296875 178.200195312 36 183.81640625 132 c 0
 185.98046875 169 187.413085938 204.704101562 187 211.375 c 2
 186.25 223.5 l 1
 156.194335938 187.25 l 2
 104.58203125 125 81.3740234375 104.817382812 60.75 104.247070312 c 0
 49 103.922851562 44.3388671875 109.21875 47.3271484375 119.5 c 0
 50.572265625 130.666992188 63.515625 148.25 122.23046875 221.25 c 0
 149.979492188 255.75 172.518554688 284.421875 172.541992188 285.25 c 0
 172.666992188 289.649414062 77.25 369.506835938 56.75 382.161132812 c 0
 47.5 387.870117188 40 398.65625 40 406.25 c 0
 40 412.930664062 54 425 61.75 425 c 0
 65.626953125 425 76 421.569335938 85 417.310546875 c 0
 100.450195312 410 151 377.240234375 175.5 358.661132812 c 2
 187.25 349.75 l 1
 185.754882812 423 l 2
 184.1015625 504 185.330078125 522.830078125 192.75 530.25 c 0
EndSplineSet
EndChar

StartChar: plus
Encoding: 12 43 12
Width: 1000
VWidth: 0
Flags: H
LayerCount: 2
Fore
SplineSet
211 498.255859375 m 0
 217.099609375 502.510742188 230.532226562 499 235.891601562 491.75 c 0
 241.110351562 484.689453125 241.25 482 241.25 388.75 c 2
 241.25 293 l 1
 267.5 291.328125 l 2
 305.25 288.924804688 363.3125 282.807617188 377.75 279.713867188 c 0
 394 276.232421875 403.25 268.35546875 403.25 258 c 0
 403.25 248.017578125 396.5 240.516601562 385.75 238.552734375 c 0
 381.088867188 237.701171875 352.75 239.37109375 323 242.25 c 0
 293.25 245.12890625 261.411132812 247.725585938 252.5 248 c 2
 236.25 248.5 l 1
 229.625 183.625 l 2
 225.974609375 147.875 222.221679688 101.241210938 221.266601562 79.75 c 0
 219.2109375 33.5 217.602539062 28.75 204 28.75 c 0
 196.25 28.75 193.176757812 30.185546875 189.017578125 35.75 c 0
 180.668945312 46.9189453125 180.517578125 99.75 188.609375 178.25 c 0
 192.114257812 212.25 195 242.282226562 195 244.75 c 0
 195 248.94921875 190.25 249.333984375 124 250.5 c 0
 64.25 251.551757812 52.009765625 252.396484375 46.75 255.828125 c 0
 34.048828125 264.115234375 37 282.14453125 52 287.907226562 c 0
 55.712890625 289.333007812 90.25 291.231445312 128.75 292.125 c 2
 198.75 293.75 l 1
 200.5 313.75 l 2
 201.4609375 324.737304688 202.357421875 368 202.489257812 409.75 c 0
 202.723632812 484 203.59765625 493.090820312 211 498.255859375 c 0
EndSplineSet
EndChar

StartChar: comma
Encoding: 13 44 13
Width: 1000
VWidth: 0
Flags: H
LayerCount: 2
Fore
SplineSet
96 65.2587890625 m 0
 111.75 72.4267578125 126.422851562 71.5771484375 135 63 c 0
 144.212890625 53.787109375 146.981445312 42.75 148.918945312 7.5 c 0
 150.087890625 -13.75 149.510742188 -25.880859375 146.708007812 -39 c 0
 139.178710938 -74.25 107.706054688 -141.842773438 94.5 -151.12890625 c 0
 80.4873046875 -160.981445312 69.5634765625 -151.25 74.4306640625 -133.25 c 0
 75.8388671875 -128.044921875 83.298828125 -107.25 90.9326171875 -87.25 c 0
 106.201171875 -47.25 112.5 -25.6396484375 112.5 -13.25 c 0
 112.5 -6 111.651367188 -5 105.5 -5 c 0
 91.6767578125 -5 79.5 13.5 79.5 34.5 c 0
 79.5 51 84.2900390625 59.9296875 96 65.2587890625 c 0
EndSplineSet
EndChar

StartChar: hyphen
Encoding: 14 45 14
Width: 1000
VWidth: 0
Flags: H
LayerCount: 2
Fore
SplineSet
80 280.124023438 m 0
 112.376953125 282.338867188 300.25 282.427734375 344.75 280.25 c 2
 380.5 278.5 l 1
 387.725585938 270.5 l 2
 399.680664062 257.263671875 397.25 241.512695312 382 233.397460938 c 0
 370.615234375 227.338867188 305.5 226.482421875 164.5 230.537109375 c 2
 52.75 233.75 l 1
 46.25 239.911132812 l 2
 35.8525390625 249.765625 38.25 268.732421875 50.75 275.515625 c 0
 53.7607421875 277.149414062 67 279.235351562 80 280.124023438 c 0
EndSplineSet
EndChar

StartChar: period
Encoding: 15 46 15
Width: 1000
VWidth: 0
Flags: H
LayerCount: 2
Fore
SplineSet
104 -20.1376953125 m 0
 115 -10.484375 125.169921875 -9.9814453125 132.069335938 -18.75 c 0
 138.231445312 -26.5810546875 143.525390625 -56 142.010742188 -74 c 0
 140.180664062 -95.75 125.807617188 -106.598632812 109.25 -98.7294921875 c 0
 83 -86.25390625 79.9912109375 -41.20703125 104 -20.1376953125 c 0
EndSplineSet
EndChar

StartChar: slash
Encoding: 16 47 16
Width: 1000
VWidth: 0
Flags: H
LayerCount: 2
Fore
SplineSet
368.25 608.73046875 m 0
 377.25 612.524414062 383.104492188 611.41015625 389.159179688 604.75 c 0
 396.470703125 596.708007812 393.791015625 585.5 375.473632812 547.5 c 0
 365.877929688 527.592773438 343.102539062 478 324.95703125 437.5 c 0
 233.556640625 233.5 191.569335938 143.43359375 125.083007812 8.75 c 0
 88.306640625 -65.75 70.30859375 -99.517578125 63.125 -107.5 c 0
 57.5 -113.75 52.22265625 -117.991210938 51.25 -117.041992188 c 0
 47.34765625 -113.232421875 47.310546875 -88 51.1826171875 -71.5 c 0
 57.353515625 -45.19921875 69.26171875 -17.25 115.729492188 80 c 0
 170.344726562 194.30078125 208.45703125 276.75 271.737304688 417.5 c 0
 336.81640625 562.25 358.119140625 604.459960938 368.25 608.73046875 c 0
EndSplineSet
EndChar

StartChar: zero
Encoding: 17 48 17
Width: 1000
VWidth: 0
Flags: H
LayerCount: 2
Fore
SplineSet
243.75 600.861328125 m 0
 253.291992188 602.904296875 284 602.453125 313.75 599.834960938 c 0
 356.5 596.072265625 369.169921875 589.655273438 409.75 551.21875 c 0
 430.549804688 531.516601562 444.271484375 513.5 458.276367188 487.5 c 0
 481.419921875 444.536132812 492.970703125 407.5 503.96875 341 c 0
 512.728515625 288.03515625 511.690429688 244.25 500.15234375 180 c 0
 482.375 81 463.370117188 26.6279296875 428.150390625 -26 c 0
 385.006835938 -90.466796875 335.25 -118.38671875 257.5 -121.756835938 c 0
 219.75 -123.392578125 204.236328125 -120.19140625 171 -103.90625 c 0
 134.482421875 -86.013671875 117.86328125 -68.25 95.0693359375 -22.75 c 0
 69.7685546875 27.7568359375 54.0947265625 80 44.96875 144.25 c 0
 40.2939453125 177.16015625 43.134765625 281.75 49.6943359375 318.25 c 0
 70.4970703125 434 98.962890625 497.088867188 157.081054688 556.25 c 0
 183.076171875 582.7109375 200.25 591.55078125 243.75 600.861328125 c 0
276.25 553.75 m 0
 247.25 556.09765625 223.078125 558.39453125 222.25 558.8828125 c 0
 218.7734375 560.927734375 197.412109375 544.25 179.8125 525.75 c 0
 139.712890625 483.600585938 121.3515625 447.5 102.375 373.5 c 0
 87.3056640625 314.739257812 82.5 275.75 82.5 212.25 c 0
 82.5 138.25 90.880859375 91.64453125 114.735351562 33 c 0
 143.309570312 -37.25 164.348632812 -61.8974609375 207 -75.0927734375 c 0
 240.081054688 -85.3271484375 295.25 -79.7431640625 331.25 -62.517578125 c 0
 349.93359375 -53.5771484375 370.140625 -33 390.922851562 -1.75 c 0
 416.439453125 36.619140625 433.416015625 81.75 447.063476562 147.5 c 0
 464.655273438 232.25 466.78515625 276.526367188 456.203125 337.5 c 0
 447.22265625 389.25 439.604492188 414.079101562 420.916015625 452.5 c 0
 405.108398438 485 403.508789062 487.2265625 377.75 512.625 c 0
 362 528.154296875 346.424804688 541.159179688 339.875 544.25 c 0
 331.081054688 548.400390625 317.75 550.390625 276.25 553.75 c 0
EndSplineSet
EndChar

StartChar: one
Encoding: 18 49 18
Width: 1000
VWidth: 0
Flags: H
LayerCount: 2
Fore
SplineSet
180.5 550.692382812 m 0
 200.75 570.580078125 208.022460938 572.2578125 220.5 559.916015625 c 0
 227.841796875 552.653320312 228.166015625 551.5 226.645507812 538 c 0
 223.538085938 510.411132812 220.122070312 445.25 216.329101562 341.25 c 0
 214.22265625 283.5 211.426757812 216.5625 210.116210938 192.5 c 0
 203.944335938 79.25 202.072265625 35.3994140625 200.244140625 -38.75 c 0
 198.1171875 -125 197.30859375 -130.032226562 184.75 -135.165039062 c 0
 175.225585938 -139.057617188 166.607421875 -133.5 162.396484375 -120.75 c 0
 158.3828125 -108.595703125 160.676757812 66.25 165.982421875 152.5 c 0
 168.05859375 186.245117188 172.051757812 273.25 174.875 346.25 c 0
 177.698242188 419.25 180.504882812 484.083007812 181.125 490.625 c 0
 181.977539062 499.625 181.5234375 502.045898438 179.25 500.625 c 0
 177.596679688 499.591796875 158.125 486.573242188 135.875 471.625 c 0
 105.875 451.469726562 92.8662109375 444.147460938 85.25 443.126953125 c 0
 73 441.486328125 67.5 445.243164062 67.5 455.25 c 0
 67.5 463.32421875 82.75 476.580078125 133.5 512.622070312 c 0
 149.75 524.162109375 171.078125 541.4375 180.5 550.692382812 c 0
EndSplineSet
EndChar

StartChar: two
Encoding: 19 50 19
Width: 1000
VWidth: 0
Flags: H
LayerCount: 2
Fore
SplineSet
192.75 594.9375 m 0
 215.75 597.795898438 253.749023438 595.990234375 275 591.029296875 c 0
 299.75 585.251953125 325.598632812 571.62890625 343.5 554.930664062 c 0
 373.876953125 526.592773438 384.46875 493.75 381.7734375 436.25 c 0
 380.9296875 418.25 377.998046875 393.823242188 375.202148438 381.5 c 0
 364.157226562 332.811523438 334.3046875 257.5 306.130859375 207.25 c 0
 279.08984375 159.020507812 210.716796875 62.5 160.205078125 1.25 c 0
 149.071289062 -12.25 140.44921875 -23.69921875 141 -24.25 c 0
 141.55078125 -24.80078125 154.25 -23.462890625 169.25 -21.2734375 c 0
 247.25 -9.8916015625 352.442382812 -6.2451171875 392.5 -13.5341796875 c 0
 438.25 -21.859375 464.491210938 -40.1220703125 457.466796875 -58.75 c 0
 452.911132812 -70.8330078125 445.5 -71.630859375 413 -63.5361328125 c 0
 384.18359375 -56.3583984375 382.75 -56.251953125 316.25 -56.3642578125 c 0
 244.571289062 -56.486328125 225.25 -58.1787109375 130.5 -72.63671875 c 0
 104 -76.6806640625 79.4326171875 -79.3037109375 76 -78.455078125 c 0
 67.3515625 -76.3173828125 60 -66 60 -56 c 0
 60 -49.048828125 63.7998046875 -43.5 84.138671875 -20.75 c 0
 152.9765625 56.25 233.237304688 164.4453125 269.591796875 229.25 c 0
 290.642578125 266.776367188 311.328125 315.75 324.81640625 360 c 0
 341.276367188 414 343.173828125 471.099609375 329.560546875 502.75 c 0
 319.624023438 525.849609375 290 545.783203125 255.5 552.58203125 c 0
 235.55078125 556.513671875 184.25 554.430664062 163.75 548.857421875 c 0
 114.5 535.467773438 67.984375 494.7265625 57.7294921875 456 c 0
 54.5517578125 444 46.2216796875 438.635742188 36.5 442.330078125 c 0
 23.6240234375 447.22265625 23.7080078125 468.25 36.7080078125 494.75 c 0
 50.3828125 522.625976562 83.25 554.939453125 114 570.739257812 c 0
 139.036132812 583.602539062 164.5 591.427734375 192.75 594.9375 c 0
EndSplineSet
EndChar

StartChar: three
Encoding: 20 51 20
Width: 1000
VWidth: 0
Flags: H
LayerCount: 2
Fore
SplineSet
187.5 667.219726562 m 0
 217 673.411132812 258.168945312 674.091796875 278.75 668.728515625 c 0
 323.096679688 657.171875 361.303710938 616 372.686523438 567.5 c 0
 377.805664062 545.686523438 376.709960938 507 370.329101562 484.25 c 0
 358.899414062 443.5 335.275390625 405.481445312 296.6953125 365.75 c 2
 269.75 338 l 1
 284.25 336.321289062 l 2
 303.212890625 334.125 331.5 326.497070312 350.75 318.388671875 c 0
 424.545898438 287.303710938 465.671875 211 461.716796875 112.5 c 0
 460.221679688 75.25 454.684570312 53.66796875 438.626953125 22.5 c 0
 404.157226562 -44.404296875 340.5 -93.5986328125 268.75 -108.780273438 c 0
 239.25 -115.022460938 187.030273438 -114.58984375 162 -107.896484375 c 0
 122 -97.2001953125 91.8212890625 -75.3447265625 77.568359375 -46.75 c 0
 69.5927734375 -30.75 67.154296875 -10 73.25 -10 c 0
 74.892578125 -10 87 -18.44140625 100 -28.6494140625 c 0
 140.474609375 -60.4306640625 163 -68.4765625 211.25 -68.3857421875 c 0
 262.25 -68.2900390625 299.145507812 -56.2265625 337.75 -27.02734375 c 0
 370.591796875 -2.1865234375 398.297851562 35 410.041015625 70 c 0
 420.885742188 102.322265625 419.200195312 156.75 406.169921875 195 c 0
 389.538085938 243.822265625 362.75 270.435546875 313.75 286.814453125 c 0
 295.194335938 293.017578125 290.5 293.508789062 248.75 293.625 c 0
 212.5 293.725585938 201.100585938 292.899414062 190.125 289.375 c 0
 182.419921875 286.900390625 168.625 285 158.375 285 c 0
 141.875 285 139.796875 285.583007812 135.194335938 291.5 c 0
 128.97265625 299.5 128.645507812 310.268554688 134.413085938 317.25 c 0
 137.111328125 320.516601562 147.25 324.932617188 161.25 328.938476562 c 0
 200 340.02734375 234.48046875 362.139648438 268.942382812 398 c 0
 315.219726562 446.15625 334.243164062 488.75 331.91796875 539 c 0
 330.923828125 560.5 329.602539062 566.700195312 323.021484375 580.75 c 0
 313.53515625 601 298.18359375 616.791992188 278.75 626.291015625 c 0
 264.930664062 633.044921875 262.25 633.4765625 236.25 633.12109375 c 0
 205.3828125 632.700195312 174.75 626.106445312 141 612.620117188 c 0
 95.25 594.338867188 65.0693359375 567.298828125 61.0615234375 541 c 0
 59.6142578125 531.5 60.076171875 530.338867188 67.375 525.125 c 0
 73.625 520.661132812 75.095703125 517.926757812 74.5 511.875 c 0
 74.08203125 507.625 71.9794921875 503.1328125 69.75 501.7265625 c 0
 63.8515625 498.006835938 47 503.376953125 37.25 512.083984375 c 0
 22.0703125 525.640625 25.43359375 557.75 45.1220703125 587.25 c 0
 67.94140625 621.440429688 126.75 654.471679688 187.5 667.219726562 c 0
EndSplineSet
EndChar

StartChar: four
Encoding: 21 52 21
Width: 1000
VWidth: 0
Flags: H
LayerCount: 2
Fore
SplineSet
313.5 678.75 m 0
 325.252929688 690.502929688 341.481445312 684 344.69140625 666.25 c 0
 345.69140625 660.720703125 345.102539062 637.25 343.375 613.75 c 0
 341.65234375 590.325195312 337.893554688 523 335 463.75 c 0
 332.106445312 404.5 328.291015625 328.197265625 326.5 293.75 c 0
 324.706054688 259.25 323.473632812 230.969726562 323.75 230.625 c 0
 324.025390625 230.28125 347.75 228.819335938 376.5 227.375 c 0
 405.25 225.930664062 431.8984375 223.52734375 435.75 222.032226562 c 0
 444.626953125 218.5859375 449.965820312 210.75 449.91015625 201.25 c 0
 449.784179688 179.979492188 431.5 175.372070312 363.75 179.540039062 c 0
 341.75 180.892578125 323 181.212890625 322.083007812 180.25 c 0
 320.2109375 178.283203125 315.982421875 80.25 312.432617188 -43.5 c 0
 309.650390625 -140.5 308.806640625 -145.918945312 296 -149.040039062 c 0
 286 -151.4765625 276.676757812 -147.038085938 271.760742188 -137.5 c 0
 267.579101562 -129.388671875 267.359375 -123 268.750976562 -50 c 0
 270.389648438 36 274.258789062 144.784179688 276.55859375 169.5 c 2
 278 185 l 1
 191.625 185 l 2
 126.625 185 97.9501953125 184.025390625 75.75 181.060546875 c 0
 31.25 175.1171875 28.068359375 175.245117188 21.0869140625 183.25 c 0
 10.009765625 195.952148438 10.869140625 198.25 58.5791015625 283.5 c 0
 90.83984375 341.145507812 126.666015625 407.5 177.494140625 503.75 c 0
 255.916015625 652.25 272.010742188 677.5 288.25 677.5 c 0
 292.75 677.5 298.411132812 675.24609375 301.75 672.125 c 0
 305 669.086914062 307.5 668.0546875 307.5 669.75 c 0
 307.5 671.375 310.25 675.5 313.5 678.75 c 0
302.65234375 627.25 m 0
 303.953125 637.5 304.577148438 646.196289062 304.052734375 646.75 c 0
 301.77734375 649.151367188 264.314453125 582 199.866210938 460 c 0
 154.171875 373.5 109.375976562 290.6484375 84.296875 246.25 c 0
 78.083984375 235.25 73.28125 225.96875 73.625 225.625 c 0
 73.96875 225.28125 92 226.685546875 113.75 228.75 c 0
 137.123046875 230.96875 179.125 232.5 216.625 232.5 c 2
 280 232.5 l 1
 280 240.25 l 2
 280 280.25 298.306640625 593.005859375 302.65234375 627.25 c 0
EndSplineSet
EndChar

StartChar: five
Encoding: 22 53 22
Width: 1000
VWidth: 0
Flags: H
LayerCount: 2
Fore
SplineSet
216.25 662.625 m 0
 227.25 663.65625 281.25 664.331054688 336.25 664.125 c 0
 429.5 663.775390625 436.908203125 663.423828125 446 658.915039062 c 0
 457.5 653.212890625 463.69140625 641.286132812 460.102539062 631.75 c 0
 458.78515625 628.25 456.4296875 624.674804688 454.75 623.625 c 0
 453.100585938 622.59375 396.5 621.637695312 329 621.5 c 2
 206.25 621.25 l 1
 204.428710938 608.5 l 2
 201.595703125 588.672851562 182.109375 524 161.416992188 465.75 c 0
 151.025390625 436.5 142.5 411.541992188 142.5 410.375 c 0
 142.5 409.211914062 153.25 407.493164062 166.25 406.579101562 c 0
 196.25 404.467773438 221.314453125 399.69921875 246 391.40625 c 0
 343.572265625 358.626953125 409.181640625 276 422.600585938 169 c 0
 426.61328125 137 424.458984375 86.962890625 418.068359375 63.75 c 0
 396.319335938 -15.25 341.509765625 -70.8349609375 266.5 -89.9619140625 c 0
 242.25 -96.1455078125 202.5703125 -96.7529296875 181 -91.271484375 c 0
 140.75 -81.0439453125 103.142578125 -51.7734375 84.6083984375 -16.25 c 0
 75.0869140625 2 70.4443359375 17.5 74.5 17.5 c 0
 77.0673828125 17.5 102 -0.724609375 125.75 -19.962890625 c 0
 142.75 -33.732421875 165.943359375 -45.9189453125 182.5 -49.779296875 c 0
 199.145507812 -53.6611328125 236.75 -53.1572265625 253.75 -48.8232421875 c 0
 262.043945312 -46.708984375 278.25 -40.337890625 290 -34.5712890625 c 0
 327.604492188 -16.1171875 358.744140625 21.25 374.016601562 66.25 c 0
 383.483398438 94.142578125 385.3359375 149.5 377.991210938 185 c 0
 358.95703125 277 296.6796875 340.045898438 205 360.126953125 c 0
 192.521484375 362.859375 166.5 365.713867188 145.75 366.625 c 0
 109.75 368.206054688 108.564453125 368.435546875 101.875 375.125 c 0
 98.125 378.875 95 384.159179688 95 386.75 c 0
 95 389.357421875 102.986328125 414.5 112.708007812 442.5 c 0
 151.770507812 555 170 615.454101562 170 632.5 c 0
 170 640.93359375 182 656.271484375 190.75 659.021484375 c 0
 193.775390625 659.971679688 205.25 661.59375 216.25 662.625 c 0
EndSplineSet
EndChar

StartChar: six
Encoding: 23 54 23
Width: 1000
VWidth: 0
Flags: H
LayerCount: 2
Fore
SplineSet
304.5 691.59375 m 0
 325.75 700.318359375 334.868164062 698.756835938 338.620117188 685.75 c 0
 340.606445312 678.864257812 335.75 674.1796875 309.25 657.422851562 c 0
 292.75 646.989257812 287.22265625 641.5 270.555664062 619 c 0
 216.262695312 545.704101562 151.25 418.75 120 325 c 0
 86.4169921875 224.25 80.546875 125.426757812 103.9765625 55.25 c 0
 114.41015625 24 128.791015625 1.330078125 155.044921875 -25.25 c 0
 175.29296875 -45.75 182.213867188 -50.9560546875 202.5 -60.9453125 c 0
 290.529296875 -104.295898438 359.759765625 -71.25 385.173828125 26.25 c 0
 392.538085938 54.5 394.3671875 100.874023438 389.010742188 123.5 c 0
 375.823242188 179.208984375 337.5 202.75 260 202.75 c 0
 217.637695312 202.75 193.75 198.49609375 147.25 182.671875 c 0
 127.25 175.865234375 106.51171875 169.458984375 101.375 168.5 c 0
 92.625 166.866210938 92.1767578125 167.083007812 94.65625 171.75 c 0
 104.876953125 190.98828125 147.25 215.71484375 188.75 226.658203125 c 0
 211.317382812 232.608398438 218.25 233.274414062 260 233.5 c 0
 296.25 233.696289062 309.979492188 232.795898438 323.5 229.337890625 c 0
 377.5 215.52734375 410.615234375 182.826171875 424.095703125 130 c 0
 429.541992188 108.657226562 429.532226562 61 424.07421875 32.5 c 0
 401.3828125 -86 325.05859375 -140.448242188 223 -110.943359375 c 0
 141.633789062 -87.4208984375 79.25 -16.75 58.861328125 75 c 0
 53.2607421875 100.201171875 51.103515625 174 54.9814453125 207.75 c 0
 63.984375 286.1171875 90.0751953125 368.5 136.13671875 464 c 0
 171.828125 538 210.43359375 601.862304688 246.612304688 646.75 c 0
 265.946289062 670.73828125 279.75 681.431640625 304.5 691.59375 c 0
EndSplineSet
EndChar

StartChar: seven
Encoding: 24 55 24
Width: 1000
VWidth: 0
Flags: H
LayerCount: 2
Fore
SplineSet
397.5 676.14453125 m 0
 465.75 685.970703125 496.930664062 687.21484375 509.75 680.625 c 0
 519.611328125 675.555664062 527.5 662.5 527.5 651.25 c 0
 527.5 631.911132812 470.344726562 484.25 371.317382812 247.75 c 0
 269.778320312 5.25 249.330078125 -52.6572265625 238.807617188 -127.5 c 0
 234.625 -157.25 231.540039062 -166.465820312 224.25 -170.98828125 c 0
 214.741210938 -176.887695312 203.354492188 -162.5 199.725585938 -140 c 0
 196.428710938 -119.559570312 198.450195312 -97.5 207.399414062 -56.25 c 0
 219.84375 1.103515625 239.075195312 54.5 308.967773438 225.75 c 0
 389.471679688 423 437.100585938 542.775390625 461.56640625 609.5 c 2
 470 632.5 l 1
 462.375 632.5 l 2
 458.17578125 632.5 431.5 629.189453125 403 625.131835938 c 0
 328.75 614.560546875 282.428710938 610.364257812 208.75 607.534179688 c 0
 140.75 604.921875 115.119140625 603.048828125 110.5 600.354492188 c 0
 108.974609375 599.46484375 106.533203125 586.5 105.018554688 571.25 c 0
 100.872070312 529.5 87.931640625 442.873046875 85.0380859375 437.5 c 0
 79.005859375 426.295898438 59.1640625 429.25 56.4951171875 441.75 c 0
 55.6708984375 445.607421875 58.4228515625 474 62.625 505 c 0
 66.8271484375 536 71.392578125 578.64453125 72.796875 600 c 0
 75.91796875 647.5 76.205078125 648.88671875 84 654.083007812 c 0
 89.9326171875 658.038085938 90.625 657.970703125 97.625 652.75 c 0
 104.571289062 647.569335938 106.125 647.395507812 124.375 649.75 c 0
 135.00390625 651.12109375 163.5 653.48828125 187.5 654.993164062 c 0
 258.75 659.4609375 334.857421875 667.125976562 397.5 676.14453125 c 0
EndSplineSet
EndChar

StartChar: eight
Encoding: 25 56 25
Width: 1000
VWidth: 0
Flags: H
LayerCount: 2
Fore
SplineSet
245.25 683.747070312 m 0
 267 688.680664062 306.658203125 687.005859375 325.5 680.359375 c 0
 360.598632812 667.977539062 386.918945312 640.25 404.155273438 597.5 c 0
 412.622070312 576.5 422.5 527.76953125 422.5 507 c 0
 422.5 468.138671875 389.611328125 411.75 331.22265625 350.5 c 2
 310.25 328.5 l 1
 331.5 307.424804688 l 2
 382.038085938 257.302734375 407.149414062 210.5 422.668945312 137.5 c 0
 427.3515625 115.475585938 428.28515625 103 428.470703125 60 c 0
 428.721679688 1.75 426.82421875 -8.765625 409.569335938 -44.75 c 0
 401.420898438 -61.744140625 395.375 -69.875 377.875 -87.375 c 0
 364.125 -101.125 351.243164062 -111.446289062 342.5 -115.716796875 c 0
 286.25 -143.194335938 233.25 -129.908203125 182.068359375 -75.5 c 0
 136.142578125 -26.6787109375 114.249023438 25.75 110.868164062 95 c 0
 109.122070312 130.75 113.461914062 153.423828125 127.375 181.25 c 0
 142.352539062 211.205078125 159 231.75 208 280.75 c 2
 252.75 325.5 l 1
 226 350.875 l 2
 211.309570312 364.810546875 188.1484375 390 174.625 406.75 c 0
 161.1015625 423.5 140.447265625 447.280273438 128.809570312 459.5 c 0
 102.619140625 487 95 501.873046875 95 525.5 c 0
 95 559.25 110.92578125 591.592773438 143.5 623.998046875 c 0
 172.901367188 653.247070312 212 676.206054688 245.25 683.747070312 c 0
323.75 641.94921875 m 0
 312.954101562 647.606445312 307.5 648.619140625 283.75 649.375 c 0
 260.25 650.123046875 253.88671875 649.420898438 240 644.547851562 c 0
 171.75 620.600585938 116.475585938 550.897460938 132.51171875 509 c 0
 133.877929688 505.432617188 146.6171875 490.375 160.75 475.625 c 0
 174.8828125 460.875 194.443359375 439.163085938 204.107421875 427.5 c 0
 220.885742188 407.25 276.287109375 352.5 280 352.5 c 0
 280.96875 352.5 293.943359375 365 309.0625 380.5 c 0
 337.106445312 409.25 360.07421875 436.741210938 377.5703125 462.5 c 2
 387.25 476.75 l 1
 385.125 516.5 l 2
 383.25390625 551.5 382.095703125 558.69921875 375.435546875 576.75 c 0
 363.53515625 609 347.126953125 629.698242188 323.75 641.94921875 c 0
307.290039062 278 m 0
 295.404296875 290 284.25 300 282.75 300 c 0
 278.29296875 300 203.530273438 225.75 185.8359375 203.75 c 0
 177.079101562 192.862304688 164.965820312 174.125 159.25 162.625 c 2
 148.75 141.5 l 1
 148.852539062 104 l 2
 148.974609375 59.5 152.438476562 43.0654296875 168.98046875 8.5 c 0
 187.525390625 -30.25 219.295898438 -65.31640625 251 -82.029296875 c 0
 261.677734375 -87.658203125 267 -88.75 283.75 -88.75 c 0
 301 -88.75 306.018554688 -87.673828125 320.25 -80.9248046875 c 0
 352.68359375 -65.54296875 377.138671875 -32.25 386.305664062 9 c 0
 392.627929688 37.4521484375 390.206054688 106 381.571289062 143 c 0
 368.734375 198 346.498046875 238.4140625 307.290039062 278 c 0
EndSplineSet
EndChar

StartChar: nine
Encoding: 26 57 26
Width: 1000
VWidth: 0
Flags: H
LayerCount: 2
Fore
SplineSet
246.25 682.53125 m 0
 260.690429688 685.428710938 287.25 685.419921875 302.75 682.510742188 c 0
 345 674.583007812 377.669921875 641.005859375 381.81640625 601.25 c 0
 383.041015625 589.5 384.104492188 587.282226562 389.125 586 c 0
 392.415039062 585.16015625 397.172851562 581.75 399.938476562 578.25 c 0
 408.892578125 566.916992188 406.821289062 551.25 389.0625 496 c 0
 354.508789062 388.5 323.015625 279.103515625 296.291992188 173.75 c 0
 271.43359375 75.75 259.376953125 17.7998046875 248.698242188 -55 c 0
 239.1640625 -120 234.364257812 -136.0234375 222.75 -141.633789062 c 0
 214.87890625 -145.435546875 204.078125 -141.5 200.426757812 -133.5 c 0
 196.647460938 -125.215820312 196.833984375 -112.75 201.40234375 -68.5 c 0
 206.35546875 -20.5234375 213.09375 21.25 223.703125 69.75 c 0
 241.75 152.25 282.530273438 307.942382812 306.5390625 386 c 0
 307.466796875 389.015625 302.25 385.9296875 292.25 377.545898438 c 0
 256.25 347.365234375 227.185546875 332.834960938 192.25 327.55078125 c 0
 151.75 321.424804688 109.44140625 335.975585938 91.3603515625 362.25 c 0
 78.2724609375 381.267578125 74.1669921875 394.75 73.0126953125 422.5 c 0
 70.111328125 492.25 103.5703125 573.249023438 158.622070312 629.75 c 0
 188.461914062 660.375 214.75 676.208984375 246.25 682.53125 c 0
305.5 639.525390625 m 0
 291.083007812 643.734375 270 644.921875 255 642.370117188 c 0
 192.056640625 631.663085938 123.259765625 541 109.973632812 451.25 c 0
 102.94140625 403.75 115.930664062 375.720703125 149.5 365.95703125 c 0
 208.528320312 348.7890625 285.3125 400.25 329.360351562 486.5 c 0
 339.702148438 506.75 341.568359375 512.340820312 339.625 517.25 c 0
 338.009765625 521.330078125 338.59375 529.25 341.450195312 542 c 0
 346.881835938 566.25 345.333984375 597.338867188 337.9765625 611.75 c 0
 331.594726562 624.25 318 635.876953125 305.5 639.525390625 c 0
EndSplineSet
EndChar

StartChar: colon
Encoding: 27 58 27
Width: 1000
VWidth: 0
Flags: H
LayerCount: 2
Fore
SplineSet
113.125 -6 m 0
 123.375 3.69921875 126.110351562 5 136.25 5 c 0
 151 5 157.172851562 1.58984375 161.590820312 -9 c 0
 167.954101562 -24.25 166.18359375 -40.9814453125 156.645507812 -55.75 c 0
 151.963867188 -63 146.259765625 -70.3857421875 143.75 -72.4482421875 c 0
 137.5 -77.5859375 123.166992188 -76.7958984375 117.473632812 -71 c 0
 111.09375 -64.5068359375 101.78125 -38.5 101.627929688 -26.75 c 0
 101.517578125 -18.36328125 103.125 -15.4619140625 113.125 -6 c 0
115.625 421.875 m 0
 121.610351562 431.125 123.6328125 432.5 131.25 432.5 c 0
 152.530273438 432.5 162.5 419.5 162.5 391.75 c 0
 162.5 372.75 157.18359375 364.037109375 143.25 360.203125 c 0
 131.5 356.969726562 121.538085938 359.243164062 114.559570312 366.75 c 0
 109.547851562 372.142578125 108.75 375.625 108.75 392.125 c 0
 108.75 408.875 109.603515625 412.569335938 115.625 421.875 c 0
EndSplineSet
EndChar

StartChar: semicolon
Encoding: 28 59 28
Width: 1000
VWidth: 0
Flags: H
LayerCount: 2
Fore
SplineSet
108.75 49.5732421875 m 0
 134 55.5146484375 141.434570312 52.3603515625 151.94140625 31.25 c 0
 157.919921875 19.2392578125 163.727539062 -28.5 161.795898438 -49.75 c 0
 159.954101562 -70 121.138671875 -147.765625 109.25 -155.022460938 c 0
 99.5 -160.973632812 95.4697265625 -161.125 89.5 -155.760742188 c 0
 81.484375 -148.55859375 84.2509765625 -137.75 105.05078125 -95 c 0
 115.999023438 -72.5 125 -50.841796875 125 -47 c 0
 125 -41 124 -40 118 -40 c 0
 107.125 -40 95.8798828125 -31.5 87.5712890625 -17 c 0
 78.546875 -1.25 77.603515625 13.5078125 84.6455078125 28.75 c 0
 90.5361328125 41.5 96.5625 46.7060546875 108.75 49.5732421875 c 0
122.41796875 -5.5 m 0
 122.463867188 -3.8388671875 120.26953125 1.125 117.5 5.625 c 0
 113.345703125 12.375 112.498046875 12.861328125 112.490234375 8.5 c 0
 112.48046875 3 122.2734375 -10.8095703125 122.41796875 -5.5 c 0
107 445.857421875 m 0
 119.041992188 454.458007812 129.25 454.240234375 142 445.108398438 c 0
 156.741210938 434.549804688 161.02734375 425 161.120117188 402.5 c 0
 161.21484375 379.5 155.24609375 368.086914062 139 360.204101562 c 0
 125.75 353.775390625 114.950195312 353.666015625 107 359.881835938 c 0
 98.8232421875 366.274414062 89.9619140625 387 88.2431640625 403.75 c 0
 86.525390625 420.5 93.537109375 436.241210938 107 445.857421875 c 0
127.051757812 403.5 m 0
 126.599609375 409 124.724609375 413.794921875 122.75 414.5 c 0
 119.970703125 415.4921875 119.6015625 414 120.95703125 407.25 c 0
 123.518554688 394.5 128.018554688 391.73046875 127.051757812 403.5 c 0
EndSplineSet
EndChar

StartChar: less
Encoding: 29 60 29
Width: 1000
VWidth: 0
Flags: H
LayerCount: 2
Fore
SplineSet
395.5 555.75390625 m 0
 407.25 561.538085938 415.981445312 560.8671875 424.75 553.505859375 c 0
 430.77734375 548.446289062 432.5 545 432.5 538 c 0
 432.5 528.5 426.71484375 520 420.25 520 c 0
 413.912109375 520 390.333984375 494.5 334.72265625 427.5 c 0
 273.508789062 353.75 225.573242188 299.176757812 186.497070312 258.75 c 0
 170.548828125 242.25 157.5 227.962890625 157.5 227 c 0
 157.5 224.418945312 197.25 189.10546875 258.75 137.051757812 c 0
 289 111.448242188 332.931640625 73.7939453125 356.375 53.375 c 0
 379.875 32.9072265625 412.572265625 4.6572265625 429.25 -9.5888671875 c 0
 462.5 -37.9892578125 469.98828125 -48.1005859375 466.032226562 -59.25 c 0
 462.51953125 -69.1484375 451.75 -73.76953125 440.25 -70.3115234375 c 0
 429.12890625 -66.966796875 394.75 -39.7373046875 327.5 18.9931640625 c 0
 299.25 43.6640625 254.596679688 82.09375 228 104.625 c 0
 201.5 127.07421875 167.466796875 156.65625 152.5 170.25 c 0
 126.25 194.091796875 124.828125 195 113.75 195 c 0
 100.25 195 90 203.091796875 90 213.75 c 0
 90 223.897460938 92.5 226.987304688 122.25 253.61328125 c 0
 168.934570312 295.396484375 227.543945312 360.5 310.75 463 c 0
 360.267578125 524 384.197265625 550.189453125 395.5 555.75390625 c 0
EndSplineSet
EndChar

StartChar: equal
Encoding: 30 61 30
Width: 1000
VWidth: 0
Flags: H
LayerCount: 2
Fore
SplineSet
162.5 180.081054688 m 0
 167.361328125 181.286132812 176.25 181.770507812 182.5 181.169921875 c 0
 216.505859375 177.90625 329.5 177.193359375 403.75 179.7734375 c 0
 498.25 183.056640625 512.28515625 182.043945312 521.813476562 171.25 c 0
 533.908203125 157.547851562 525.25 138.881835938 505 135.002929688 c 0
 484.623046875 131.100585938 304.75 129.21875 252 132.357421875 c 0
 201 135.390625 164.3359375 140.147460938 155.5 144.875 c 0
 138.958984375 153.7265625 143.25 175.309570312 162.5 180.081054688 c 0
456.25 392.569335938 m 0
 491 398.322265625 510.578125 385.677734375 501.26171875 363.5 c 0
 496.716796875 352.681640625 483.5 346.44921875 457.5 342.866210938 c 0
 443.700195312 340.96484375 173 338.298828125 145.5 339.79296875 c 0
 139.267578125 340.131835938 132.5 350 132.5 358.75 c 0
 132.5 372.29296875 140.75 379.762695312 158.75 382.517578125 c 0
 188.85546875 387.125976562 258.25 389.915039062 350 390.204101562 c 0
 401.5 390.3671875 449.383789062 391.432617188 456.25 392.569335938 c 0
EndSplineSet
EndChar

StartChar: greater
Encoding: 31 62 31
Width: 1000
VWidth: 0
Flags: H
LayerCount: 2
Fore
SplineSet
115.75 570.501953125 m 0
 124.565429688 571.903320312 133.75 568.5234375 162 553.484375 c 0
 235.6015625 514.302734375 291.5 473.78515625 373.75 399.99609375 c 0
 419.75 358.728515625 434.259765625 346.779296875 477.25 314.7578125 c 0
 519.5 283.288085938 523.471679688 277.905273438 516.547851562 261.5 c 0
 513.620117188 254.5625 510 251.314453125 500.75 247.327148438 c 0
 484.815429688 240.458984375 479.140625 234.75 410.224609375 156.25 c 0
 339.357421875 75.5283203125 305.936523438 39.25 225.051757812 -44.75 c 0
 164.62890625 -107.5 153.48828125 -117.5 144 -117.5 c 0
 137.123046875 -117.5 130 -110.25 130 -103.25 c 0
 130 -89.177734375 139.453125 -77.25 218.766601562 8.75 c 0
 290.241210938 86.25 311.909179688 110.760742188 372.143554688 182.25 c 0
 400.579101562 216 430.372070312 250.627929688 438.5 259.375 c 0
 446.629882812 268.125 452.80078125 275.55078125 452.25 275.920898438 c 0
 424.262695312 294.69921875 395.75 318.151367188 342 366.603515625 c 0
 255.75 444.3515625 195.94921875 487.979492188 130.5 520.90625 c 0
 111.75 530.338867188 100 541.932617188 100 551 c 0
 100 558.5 108.801757812 569.3984375 115.75 570.501953125 c 0
EndSplineSet
EndChar

StartChar: question
Encoding: 32 63 32
Width: 1000
VWidth: 0
Flags: H
LayerCount: 2
Fore
SplineSet
240.25 -28.5771484375 m 0
 256.501953125 -19.611328125 276.86328125 -27.75 283.836914062 -46 c 0
 293.29296875 -70.75 279.375 -95.5 256 -95.5 c 0
 244.666992188 -95.5 236.444335938 -88 231.33203125 -73 c 0
 224.259765625 -52.25 227.612304688 -35.5498046875 240.25 -28.5771484375 c 0
248.25 597.23046875 m 0
 310.25 604.397460938 352.216796875 593.568359375 379.939453125 563.25 c 0
 406.638671875 534.049804688 413.935546875 485.75 399.916992188 431 c 0
 392.194335938 400.833984375 364.333007812 347.25 326.213867188 289.25 c 0
 288.916015625 232.5 274.907226562 207.185546875 267.41796875 183 c 0
 262.583984375 167.387695312 250 82.5 250 65.5 c 0
 250 57.5 249.583007812 56.9169921875 246.25 60.25 c 0
 244.197265625 62.302734375 238.37109375 74.125 233.375 86.375 c 0
 225.52734375 105.6171875 224.0859375 112.25 223.078125 133.75 c 0
 220.490234375 188.952148438 234.25 226.5 284.916992188 302.5 c 0
 349.916992188 400 366.673828125 439.684570312 364.51171875 491 c 0
 362.984375 527.25 353.76953125 542.779296875 326.25 555.48046875 c 0
 315 560.672851562 310 561.25 276.25 561.25 c 0
 247.5 561.25 234.375 560.129882812 220 556.44921875 c 0
 184.25 547.294921875 159.690429688 535.036132812 145.974609375 519.5 c 0
 139.252929688 511.88671875 138.05859375 508.25 136.77734375 491.5 c 0
 135.170898438 470.5 132.415039062 465 123.5 465 c 0
 113.7109375 465 109.418945312 475 109.229492188 498.25 c 0
 109.05078125 520.25 112.8046875 531.03515625 126.196289062 547 c 0
 145.81640625 570.389648438 196.5 591.248046875 248.25 597.23046875 c 0
EndSplineSet
EndChar

StartChar: at
Encoding: 33 64 33
Width: 1000
VWidth: 0
Flags: H
LayerCount: 2
Fore
SplineSet
446 637.954101562 m 0
 470.46875 644.192382812 520.25 642.936523438 549.25 635.348632812 c 0
 596.75 622.921875 640.2734375 597.998046875 673.845703125 564 c 0
 706.03515625 531.40234375 723.672851562 496.5 730.067382812 452.75 c 0
 734.479492188 422.5625 731.897460938 342 725.323242188 304.75 c 0
 704.412109375 186.25 642.822265625 111.962890625 581.5 131.2734375 c 0
 548.01171875 141.818359375 520.528320312 183.75 512.205078125 237 c 0
 510.446289062 248.25 508.323242188 257.5 507.5 257.5 c 0
 506.678710938 257.5 503.361328125 252.75 500.166992188 247 c 0
 488.77734375 226.5 464.54296875 192.796875 451.989257812 180 c 0
 428.200195312 155.75 398.377929688 148.14453125 376.25 160.68359375 c 0
 354.897460938 172.783203125 346.16015625 197 348.174804688 238.5 c 0
 350.46875 285.7578125 362.3046875 329.25 386.342773438 378.75 c 0
 410.8671875 429.25 437.42578125 462.44921875 465.5 477.696289062 c 0
 479.5703125 485.337890625 483.25 486.239257812 500 486.151367188 c 0
 522.75 486.03125 533.333007812 481.147460938 550.708007812 462.75 c 0
 557.319335938 455.75 564.215820312 450 566 450 c 0
 567.760742188 450 571.828125 447.25 574.875 444 c 0
 579.711914062 438.840820312 580.307617188 436.125 579.125 424.625 c 0
 578.370117188 417.278320312 576.633789062 395.25 575.2734375 375.75 c 0
 571.208984375 317.5 568.483398438 302.182617188 561 295.543945312 c 0
 556.342773438 291.413085938 553.125 290.4140625 548.375 291.625 c 2
 542 293.25 l 1
 543.788085938 272.25 l 2
 548.727539062 214.25 566.3671875 174.346679688 590.25 167.151367188 c 0
 604.748046875 162.784179688 619.190429688 169.25 635.702148438 187.5 c 0
 669.176757812 224.497070312 691.109375 289.5 697.704101562 371.25 c 0
 703.471679688 442.75 694.08984375 486.081054688 664.580078125 524.25 c 0
 639.505859375 556.681640625 590.25 587.689453125 543.75 600.315429688 c 0
 513.75 608.461914062 467.840820312 608.388671875 442.75 600.154296875 c 0
 420.907226562 592.985351562 395 576.70703125 373 556.327148438 c 0
 309.416992188 497.42578125 248.171875 387.5 229.62890625 299 c 0
 223.395507812 269.25 222.284179688 223.897460938 227.234375 201.25 c 0
 239.255859375 146.25 276.594726562 91.90625 328.75 53.5029296875 c 0
 362.231445312 28.849609375 391.75 15.240234375 440.5 1.98046875 c 0
 468 -5.5 525.580078125 -6.021484375 548.75 1 c 0
 570 7.439453125 621.36328125 33.283203125 638.75 46.2841796875 c 0
 647 52.453125 654.537109375 57.5 655.5 57.5 c 0
 660.0625 57.5 644.5 36.8837890625 626.25 18.7509765625 c 0
 603.25 -4.1015625 573.883789062 -24.8369140625 554 -32.2646484375 c 0
 485.31640625 -57.9228515625 377 -32.97265625 300 26.2431640625 c 0
 262.182617188 55.326171875 221.83203125 106.25 205.504882812 145.5 c 0
 172.56640625 224.680664062 182.703125 313 237.438476562 423.75 c 0
 296.127929688 542.5 370.270507812 618.6484375 446 637.954101562 c 0
520.125 440.375 m 2
 512.227539062 448.272460938 508.75 449.984375 500.75 449.912109375 c 0
 487.892578125 449.795898438 476.436523438 443.25 460.653320312 427 c 0
 422.135742188 387.34375 386.833007812 302.5 383.365234375 241.25 c 0
 381.071289062 200.75 387.302734375 187.5546875 407 191.19921875 c 0
 425.16796875 194.560546875 458.3984375 235.5 491.254882812 295 c 0
 504.645507812 319.25 506.009765625 323.23046875 509.161132812 347.25 c 0
 513.196289062 378 518.008789062 399.706054688 524.739257812 417.5 c 2
 529.75 430.75 l 1
 520.125 440.375 l 2
EndSplineSet
EndChar

StartChar: A
Encoding: 34 65 34
Width: 1000
VWidth: 0
Flags: H
LayerCount: 2
Fore
SplineSet
415.5 646.102539062 m 0
 422.099609375 650.76171875 425.25 650.939453125 433.5 647.116210938 c 0
 442.026367188 643.1640625 444.375 635.25 445.997070312 605 c 0
 448.590820312 556.624023438 460.15625 520 530.944335938 336 c 0
 583.073242188 200.5 607.711914062 133.5078125 637.509765625 46.25 c 0
 648.779296875 13.25 665.764648438 -33.662109375 675.255859375 -58 c 0
 693.485351562 -104.75 697.401367188 -120.770507812 692.732421875 -129.5 c 0
 688.346679688 -137.700195312 684.10546875 -136.25 671.526367188 -122.25 c 0
 653.046875 -101.682617188 628.67578125 -48.5 602.330078125 28.75 c 0
 574.534179688 110.25 528.135742188 237.864257812 525.25 240.75 c 0
 524.138671875 241.861328125 517.25 241.083007812 509.75 239 c 0
 494.5078125 234.766601562 472.75 231.670898438 367.75 218.799804688 c 0
 292.25 209.544921875 257.875976562 203.979492188 254.733398438 200.5 c 0
 252.875976562 198.442382812 237.2578125 156.25 192.733398438 33 c 0
 166.362304688 -40 163.0546875 -50.873046875 165.276367188 -57.25 c 0
 172.071289062 -76.75 143.133789062 -91.2099609375 131.254882812 -74.25 c 0
 122.666992188 -61.98828125 123.590820312 -58.75 179.744140625 95.75 c 0
 199.098632812 149 215 193.2578125 215 193.875 c 0
 215 194.5 212 195 208.25 195 c 0
 199.5 195 192.5 201.666992188 192.5 210 c 0
 192.5 220.111328125 197.5 224.806640625 215 231.12890625 c 2
 231.25 237 l 1
 248.237304688 281.75 l 2
 300.90625 420.5 334.387695312 499.766601562 367.348632812 563.75 c 0
 397.7421875 622.75 408.512695312 641.170898438 415.5 646.102539062 c 0
414.567382812 553.25 m 0
 412.885742188 561.75 410.758789062 569.653320312 409.859375 570.75 c 0
 407.780273438 573.283203125 364.069335938 482.75 344.919921875 436.25 c 0
 310.430664062 352.5 271.323242188 250.323242188 273.059570312 248.5 c 0
 273.709960938 247.81640625 290 249.548828125 309 252.321289062 c 0
 371.5 261.44140625 463.225585938 272.64453125 488.25 274.213867188 c 0
 509.25 275.530273438 512.525390625 276.321289062 511.17578125 279.75 c 0
 457.735351562 415.5 421.563476562 517.905273438 414.567382812 553.25 c 0
EndSplineSet
EndChar

StartChar: B
Encoding: 35 66 35
Width: 1000
VWidth: 0
Flags: H
LayerCount: 2
Fore
SplineSet
441.25 668.439453125 m 0
 458.609375 670.247070312 503 667.643554688 521.25 663.748046875 c 0
 559.5 655.583984375 598.725585938 629.752929688 613.119140625 603.25 c 0
 633.091796875 566.4765625 632.274414062 514.25 611.060546875 471.75 c 0
 585.036132812 419.612304688 536 375.006835938 453.75 328.653320312 c 2
 441.5 321.75 l 1
 468.75 316.200195312 l 2
 592.25 291.047851562 660.118164062 221.544921875 660.333007812 120 c 0
 660.448242188 65.5 643.533203125 19.92578125 605.400390625 -28 c 0
 569.107421875 -73.61328125 520.25 -104.854492188 461.25 -120.174804688 c 0
 421 -130.625976562 360.614257812 -129.317382812 325.5 -117.232421875 c 0
 318 -114.651367188 311.522460938 -112.5 311.25 -112.5 c 0
 310.973632812 -112.5 310.103515625 -127.5 309.306640625 -146 c 0
 307.573242188 -186.25 304.97265625 -193.75 292.75 -193.75 c 0
 286.25 -193.75 283.014648438 -192.102539062 279 -186.75 c 0
 274.127929688 -180.25390625 273.6875 -176.125 272.875 -129.375 c 0
 272.09375 -84.375 271.485351562 -78.279296875 267.178710938 -72.25 c 0
 260.75 -63.25 261.190429688 -61.63671875 268.75 -66.4892578125 c 0
 274.75 -70.33984375 275 -70.2646484375 275 -64.625 c 0
 275 -61.3857421875 278.921875 -15 283.740234375 38.75 c 0
 302.228515625 245 305.219726562 283.943359375 303.634765625 297.75 c 0
 302.57421875 307 303.052734375 313.973632812 305 317.625 c 0
 306.760742188 320.926757812 311.998046875 375.5 317.6796875 449.75 c 0
 330.591796875 618.5 329.08984375 606.802734375 339.216796875 617.5 c 0
 343.676757812 622.211914062 351.239257812 630.75 355.602539062 636 c 0
 368.340820312 651.330078125 403 664.45703125 441.25 668.439453125 c 0
513.75 623.723632812 m 0
 494.946289062 628.565429688 454.25 630.404296875 431 627.463867188 c 0
 421.25 626.23046875 406.525390625 622.703125 397.75 619.5 c 0
 383.5 614.297851562 381.154296875 612.392578125 373.125 599.5 c 2
 364.25 585.25 l 1
 360.875 527 l 2
 359.012695312 494.854492188 355.37109375 438.5 352.75 401.25 c 0
 350.12890625 364 348.428710938 333.301757812 348.956054688 332.75 c 0
 351.0859375 330.5234375 383.25 340.940429688 409.5 352.359375 c 0
 503 393.030273438 573.001953125 458.674804688 585.069335938 517 c 0
 591.637695312 548.75 582.250976562 584.067382812 563 600.034179688 c 0
 550.96875 610.012695312 532.5 618.896484375 513.75 623.723632812 c 0
423 282.262695312 m 0
 408.88671875 283.762695312 385.5 285 371.25 285 c 2
 345.25 285 l 1
 344 276.875 l 2
 343.310546875 272.392578125 341.518554688 252.5 340.001953125 232.5 c 0
 337.177734375 195.25 316.17578125 -48.716796875 313.809570312 -71.75 c 0
 312.731445312 -82.25 313.25 -84.8193359375 316.75 -86.306640625 c 0
 324.952148438 -89.794921875 394.25 -90.701171875 415.5 -87.5986328125 c 0
 498.5 -75.4814453125 570.036132812 -23.240234375 602.889648438 49.25 c 0
 617.279296875 81 622.295898438 124.284179688 615.146484375 155 c 0
 605.3984375 196.8828125 576.75 230.497070312 532.25 252.267578125 c 0
 501.686523438 267.219726562 462 278.115234375 423 282.262695312 c 0
EndSplineSet
EndChar

StartChar: C
Encoding: 36 67 36
Width: 1000
VWidth: 0
Flags: H
LayerCount: 2
Fore
SplineSet
481.25 614.875976562 m 0
 517.75 622.130859375 559.881835938 607.921875 586.1484375 579.5 c 0
 600.787109375 563.661132812 610.8046875 544.5 623.0078125 509 c 0
 630.7421875 486.5 630.858398438 485.532226562 626.608398438 479 c 0
 621.56640625 471.25 612.602539062 470.46875 606.530273438 477.25 c 0
 604.326171875 479.7109375 599.536132812 489 595.958984375 497.75 c 0
 578.381835938 540.75 564.232421875 559.896484375 541.25 571.784179688 c 0
 526.162109375 579.588867188 499.25 582.154296875 480.25 577.600585938 c 0
 442.068359375 568.448242188 396.173828125 520.25 363.748046875 455.25 c 0
 329.83984375 387.27734375 310.495117188 287 313.30078125 193.75 c 0
 315.693359375 114.25 327.529296875 84.4951171875 376 36.130859375 c 0
 414.004882812 -1.7919921875 453 -17.2109375 503.5 -14.287109375 c 0
 542.662109375 -12.0185546875 579 0.59375 620.75 26.408203125 c 0
 650.369140625 44.72265625 669 59.8134765625 707.25 96.474609375 c 0
 738.75 126.666015625 741.15234375 127.317382812 728.571289062 102.25 c 0
 718.91015625 83 693.998046875 47.3505859375 678.083984375 30 c 0
 659.006835938 9.2021484375 625.25 -15.0478515625 595.75 -29.1474609375 c 0
 537.25 -57.1083984375 473.649414062 -60.6806640625 420.25 -39.005859375 c 0
 366.049804688 -17.0068359375 311.612304688 41 292.141601562 97.5 c 0
 266.052734375 173.204101562 279.383789062 337.5 319.932617188 440 c 0
 357.31640625 534.5 420.282226562 602.7578125 481.25 614.875976562 c 0
EndSplineSet
EndChar

StartChar: D
Encoding: 37 68 37
Width: 1000
VWidth: 0
Flags: H
LayerCount: 2
Fore
SplineSet
376.25 660.705078125 m 0
 389.70703125 662.727539062 422.75 658.798828125 447 652.29296875 c 0
 484 642.366210938 519.434570312 620.596679688 547.98828125 590.25 c 0
 619.578125 514.1640625 630.198242188 367.25 576.016601562 202.5 c 0
 558.997070312 150.75 529.385742188 90.0986328125 506.078125 59.25 c 0
 452.104492188 -12.1845703125 334 -72.7353515625 260.75 -66.5263671875 c 0
 250.75 -65.677734375 236.97265625 -62.8291015625 229.75 -60.1162109375 c 0
 215 -54.57421875 197.5 -43.6591796875 197.5 -40 c 0
 197.5 -38.4892578125 209.125 -37.5 226.875 -37.5 c 2
 256.25 -37.5 l 1
 256.5 23.125 l 2
 256.661132812 62.1220703125 259.131835938 116.75 263.426757812 176.25 c 0
 274.921875 335.5 277.576171875 388.211914062 279.185546875 489.25 c 0
 280.646484375 581 280.46484375 587.814453125 276.439453125 592.25 c 0
 268.826171875 600.637695312 279 623.421875 291.75 626.5390625 c 0
 295.615234375 627.483398438 306.25 632 315.5 636.625 c 0
 337.5 647.625 366.987304688 659.313476562 376.25 660.705078125 c 0
417.75 621.256835938 m 0
 395 626.033203125 376.608398438 625.854492188 363.75 620.733398438 c 0
 358.232421875 618.53515625 345.625 613.444335938 335.625 609.375 c 2
 317.5 602 l 1
 317.5 523.25 l 2
 317.5 429.08984375 315.203125 376 303.5703125 201.25 c 0
 298.7109375 128.25 293.989257812 46.6337890625 293.055664062 19.5 c 0
 291.103515625 -37.25 289.084960938 -33.7685546875 318 -23.501953125 c 0
 361.75 -7.9677734375 419.581054688 27.8525390625 452.5 59.8076171875 c 0
 499.727539062 105.651367188 543.888671875 207.5 562.82421875 314.25 c 0
 567.421875 340.169921875 568.520507812 355.75 568.606445312 396.25 c 0
 568.724609375 451.5 565.87890625 471.141601562 552.37890625 508.25 c 0
 531.280273438 566.245117188 481.75 607.8203125 417.75 621.256835938 c 0
EndSplineSet
EndChar

StartChar: E
Encoding: 38 69 38
Width: 1000
VWidth: 0
Flags: H
LayerCount: 2
Fore
SplineSet
278 612.494140625 m 0
 327.75 615.786132812 619.40625 613.953125 630.75 610.27734375 c 0
 650.25 603.958984375 656.645507812 588.532226562 642.75 581.330078125 c 0
 625.728515625 572.5078125 614.5 571.887695312 436.25 569.939453125 c 0
 338.5 568.872070312 254.032226562 567.213867188 248.25 566.25 c 0
 238.75 564.666992188 237.071289062 565.178710938 230.625 571.625 c 2
 223.5 578.75 l 1
 224.375 511.25 l 2
 224.857421875 474 224.297851562 429.185546875 223.125 411.25 c 0
 221.948242188 393.25 221.055664062 378.583007812 221.125 378.375 c 0
 221.194335938 378.16796875 261.75 379.176757812 311.5 380.623046875 c 0
 428.25 384.016601562 505.907226562 381.133789062 522 372.810546875 c 0
 528 369.70703125 534.020507812 364.43359375 535.625 360.875 c 0
 538.180664062 355.208007812 537.75 353.853515625 531.75 348.677734375 c 0
 519.520507812 338.130859375 506.25 337.106445312 359.5 335.3828125 c 0
 283 334.484375 219.825195312 333.075195312 219 332.25 c 0
 218.173828125 331.423828125 215.196289062 310.75 212.375 286.25 c 0
 209.552734375 261.740234375 203.326171875 213 198.515625 177.75 c 0
 189.780273438 113.75 183.388671875 34.2880859375 186.107421875 23.5 c 0
 188.106445312 15.5693359375 192 15.8330078125 244.25 27.4443359375 c 0
 298.25 39.4443359375 329.278320312 44.107421875 380 47.8447265625 c 0
 445.75 52.689453125 560.278320312 47.7080078125 623.25 37.265625 c 0
 641.25 34.2802734375 655 25.8291015625 655 17.75 c 0
 655 10.146484375 644 2.68359375 628.5 -0.228515625 c 0
 617.021484375 -2.3857421875 600 -2.029296875 551.75 1.375 c 0
 504.522460938 4.7080078125 473.25 5.41015625 420.5 4.3251953125 c 0
 345.25 2.77734375 319.428710938 0.0087890625 250.75 -13.875 c 0
 186.25 -26.9140625 166.635742188 -25.2080078125 154.462890625 -5.5 c 0
 149.6171875 2.345703125 148.609375 8 147.823242188 31.75 c 0
 146.625976562 67.8935546875 150.104492188 108 162.370117188 199.5 c 0
 173.999023438 286.25 177.563476562 317.217773438 178.68359375 341.25 c 0
 179.1328125 350.875 180.793945312 370 182.375 383.75 c 0
 183.959960938 397.53125 185.530273438 449.25 185.875 499 c 0
 186.435546875 580 186.93359375 589.916015625 190.727539062 595.75 c 0
 198.379882812 607.514648438 213.533203125 607 220.16015625 594.75 c 0
 223 589.5 223 589.5 225.924804688 595.5 c 0
 230.977539062 605.864257812 244.5 610.27734375 278 612.494140625 c 0
EndSplineSet
EndChar

StartChar: F
Encoding: 39 70 39
Width: 1000
VWidth: 0
Flags: H
LayerCount: 2
Fore
SplineSet
612.5 672.303710938 m 0
 644.5 675.334960938 677.650390625 673.791015625 687.25 668.823242188 c 0
 696 664.295898438 703.431640625 651.740234375 701.3515625 645 c 0
 699.512695312 639.040039062 699 638.938476562 625 629.827148438 c 0
 544.25 619.884765625 360.27734375 593.575195312 338.75 588.892578125 c 0
 333.735351562 587.801757812 333.55078125 586.375 334.625 557.125 c 0
 335.245117188 540.252929688 334.346679688 487.375 332.625 439.375 c 0
 330.903320312 391.375 329.94921875 351.80078125 330.5 351.25 c 0
 331.05078125 350.69921875 341.5 349.153320312 353.75 347.809570312 c 0
 407.204101562 341.948242188 462.5 339.596679688 556.5 339.1875 c 0
 611.75 338.947265625 657.788085938 337.961914062 658.75 337 c 0
 661.827148438 333.922851562 655 325.15625 643.25 317.09765625 c 0
 616.80078125 298.95703125 575.5 293.517578125 481.25 295.76171875 c 0
 446.75 296.583007812 400.26953125 299.041992188 377.5 301.25 c 0
 354.75 303.456054688 334.0078125 305.474609375 331.25 305.75 c 0
 327.02734375 306.171875 326.15234375 304.5 325.625 295 c 0
 325.28125 288.821289062 322.180664062 246 318.745117188 200 c 0
 303.490234375 -4.25 295.5546875 -96.7216796875 292.850585938 -101.75 c 0
 286.26171875 -114 271.384765625 -114.130859375 264.474609375 -102 c 0
 258.87109375 -92.162109375 261.115234375 -30.25 272.025390625 106.25 c 0
 289.029296875 319 288.4609375 308.950195312 283.8515625 315.5 c 0
 278.43359375 323.200195312 278.965820312 336.25 285.034179688 344.5 c 0
 289.301757812 350.301757812 290.333984375 357.75 292.375 397.5 c 0
 293.685546875 423.017578125 295.534179688 473 296.5 509 c 2
 298.25 574.25 l 1
 290 574.25 l 2
 279 574.25 268.919921875 585.254882812 271.224609375 594.75 c 0
 273.095703125 602.463867188 281.25 611.700195312 290.25 616.299804688 c 0
 294.012695312 618.22265625 298.162109375 623.125 299.625 627.375 c 0
 301.087890625 631.625 305.071289062 636.272460938 308.625 637.875 c 0
 313.993164062 640.295898438 316.125 639.940429688 322.125 635.625 c 2
 329.25 630.5 l 1
 394 641.397460938 l 2
 462.75 652.96875 572.984375 668.560546875 612.5 672.303710938 c 0
EndSplineSet
EndChar

StartChar: G
Encoding: 40 71 40
Width: 1000
VWidth: 0
Flags: H
LayerCount: 2
Fore
SplineSet
504.5 737.538085938 m 0
 544.25 744.213867188 595.299804688 733.659179688 626.75 712.263671875 c 0
 680.75390625 675.525390625 713.421875 624.75 726.001953125 558 c 0
 730.2421875 535.5 728.733398438 526.526367188 720.25 523.786132812 c 0
 710.193359375 520.5390625 705.7734375 526.25 697.640625 553 c 0
 686.162109375 590.75 684.186523438 595.3515625 670.803710938 615.5 c 0
 651.044921875 645.25 626.620117188 667.668945312 599.5 680.950195312 c 0
 531.25 714.37109375 461.936523438 696.604492188 398.779296875 629.5 c 0
 330.225585938 556.661132812 280.181640625 426.75 275.703125 310 c 0
 273.328125 248.0703125 283.385742188 217 327.091796875 151.25 c 0
 385.586914062 63.25 451.534179688 8.58203125 522 -10.3232421875 c 0
 550 -17.8349609375 587.379882812 -17.8017578125 613.75 -10.2412109375 c 0
 637.430664062 -3.4521484375 644.5 0.04296875 671.25 18.185546875 c 0
 687 28.8671875 690.986328125 32.759765625 690.0078125 36.5 c 0
 687.509765625 46.0498046875 689.208007812 177 692.176757812 203.75 c 0
 694.951171875 228.75 705.541015625 297.506835938 708.887695312 312.25 c 2
 710.25 318.25 l 1
 660.75 316.5 l 2
 633.5 315.536132812 599.67578125 313.064453125 585.5 311 c 0
 571.25 308.924804688 557.516601562 307.975585938 554.75 308.875 c 0
 551.98046875 309.775390625 548.021484375 314.125 545.875 318.625 c 0
 542.536132812 325.625 542.475585938 327.75390625 545.434570312 334 c 0
 552.307617188 348.509765625 567 351.206054688 667.25 356.353515625 c 0
 747 360.448242188 748.08984375 360.3359375 755.227539062 347.25 c 0
 758.5234375 341.206054688 758.5859375 341.75 746.701171875 272.5 c 0
 734.232421875 199.84765625 732.241210938 179.5 730.376953125 105.75 c 0
 728.525390625 32.5 728.244140625 31.4599609375 709.5 28.5 c 0
 701.161132812 27.18359375 697.810546875 24.25 682.083007812 4.5 c 0
 661.9765625 -20.75 651.196289062 -29.6728515625 627.75 -40.47265625 c 0
 579.263671875 -62.8046875 524.5 -58.5419921875 461.25 -27.513671875 c 0
 423.75 -9.1181640625 396.580078125 11.341796875 361.301757812 47.75 c 0
 307.766601562 103 258.896484375 178.734375 244.504882812 228.75 c 0
 239.297851562 246.845703125 238.760742188 253.75 238.860351562 301.25 c 0
 238.98046875 358.743164062 241.415039062 377.5 256.413085938 436.5 c 0
 289.905273438 568.25 363.690429688 676.841796875 448.75 719.56640625 c 0
 465.05859375 727.7578125 485.5 734.34765625 504.5 737.538085938 c 0
EndSplineSet
EndChar

StartChar: H
Encoding: 41 72 41
Width: 1000
VWidth: 0
Flags: H
LayerCount: 2
Fore
SplineSet
225.112304688 688.25 m 0
 232.274414062 697.35546875 242.840820312 697.25 250.159179688 688 c 2
 255.5 681.25 l 1
 254.25 515.625 l 2
 253.061523438 358.125 253.220703125 350 257.5 350 c 0
 259.969726562 350 277 351.640625 295.25 353.63671875 c 0
 352.481445312 359.896484375 421.75 362.651367188 548.75 363.719726562 c 0
 616.25 364.287109375 672.036132812 364.817382812 673 364.900390625 c 0
 675.857421875 365.14453125 675.42578125 502.5 672.271484375 597 c 0
 669.7421875 672.75 669.849609375 680.545898438 673.5 686.25 c 0
 676.059570312 690.25 679.75 692.5 683.75 692.5 c 0
 708.163085938 692.5 711.25 654.75 711.25 356.25 c 0
 711.25 148.75 709.854492188 85.994140625 701.336914062 -89.5 c 0
 700.16015625 -113.75 695.434570312 -132.5 690.5 -132.5 c 0
 689.272460938 -132.5 685.969726562 -130 683.232421875 -127 c 0
 664.928710938 -106.936523438 663.043945312 -84.5 668.47265625 48.75 c 0
 670.825195312 106.5 673.424804688 192 674.25 238.75 c 2
 675.75 323.75 l 1
 568.5 323.204101562 l 2
 449 322.595703125 351.26171875 319.123046875 299 313.627929688 c 0
 280 311.629882812 263.15234375 310 261.5 310 c 0
 259.912109375 310 256.5 308.529296875 254.25 306.875 c 0
 250.62890625 304.212890625 249.426757812 294.5 246.125 241.25 c 0
 243.991210938 206.833984375 238.936523438 135.5 234.875 82.5 c 0
 230.813476562 29.5 226.982421875 -35.5439453125 226.34765625 -62.25 c 0
 225.071289062 -116 224.220703125 -118.594726562 210.25 -111.333984375 c 0
 195.61328125 -103.7265625 188.53125 -68.5 191.131835938 -16.25 c 0
 192.020507812 1.5908203125 194.904296875 42.75 197.525390625 75 c 0
 202.7265625 139 208.83984375 226.115234375 211.541992188 274.75 c 0
 212.791992188 297.25 212.377929688 308.116210938 210 315.25 c 0
 207.166992188 323.75 207.279296875 326.202148438 210.875 334.375 c 0
 214.345703125 342.263671875 215.396484375 360 217.5 446.25 c 0
 218.877929688 502.75 220 578.59375 220 615.25 c 0
 220 678.75 220.23046875 682.04296875 225.112304688 688.25 c 0
EndSplineSet
EndChar

StartChar: I
Encoding: 42 73 42
Width: 1000
VWidth: 0
Flags: H
LayerCount: 2
Fore
SplineSet
448.780273438 695.25 m 0
 455.505859375 702.686523438 470.713867188 701.75 477.196289062 693.5 c 0
 482.357421875 686.931640625 482.497070312 684.25 482.375 594 c 0
 482.306640625 543 481.125 481.556640625 479.75 457.5 c 0
 478.375976562 433.44921875 476.26171875 310.75 475.0546875 185 c 0
 472.893554688 -40.25 471.165039062 -85.908203125 463.828125 -111.5 c 0
 457.01953125 -135.25 439.897460938 -144.400390625 427.340820312 -131 c 2
 421.25 -124.5 l 1
 420.743164062 58.25 l 2
 420.20703125 251.75 422.465820312 361.262695312 428.848632812 451.25 c 0
 430.994140625 481.5 433.668945312 542.25 434.79296875 586.25 c 0
 436.912109375 669.25 438.836914062 684.254882812 448.780273438 695.25 c 0
EndSplineSet
EndChar

StartChar: J
Encoding: 43 74 43
Width: 1000
VWidth: 0
Flags: H
LayerCount: 2
Fore
SplineSet
622.83984375 692.25 m 0
 629.858398438 699.716796875 642.587890625 699.25 650.1171875 691.25 c 0
 655.651367188 685.370117188 656.029296875 682.875 656.5 649.125 c 0
 656.774414062 629.447265625 658.396484375 579.5 660.092773438 538.5 c 0
 663.682617188 451.7578125 662.5234375 401.25 653.84375 266.25 c 0
 643.267578125 101.75 639.821289062 65.763671875 629.778320312 15 c 0
 623.6953125 -15.75 610.8671875 -56.3330078125 601.171875 -75.5 c 0
 570.954101562 -135.234375 517.25 -174.615234375 451.75 -185.0703125 c 0
 428.75 -188.741210938 377.486328125 -186.869140625 358.75 -181.674804688 c 0
 330.25 -173.7734375 303.017578125 -155.982421875 309.5 -149.5 c 0
 311.298828125 -147.701171875 328.5 -146.552734375 359.25 -146.178710938 c 0
 449 -145.086914062 488.297851562 -132.528320312 525.645507812 -93 c 0
 562.03515625 -54.486328125 579.818359375 11.25 592.396484375 153.75 c 0
 608.041992188 331 612.5 419.25 612.5 551.75 c 0
 612.5 666.25 613.697265625 682.524414062 622.83984375 692.25 c 0
EndSplineSet
EndChar

StartChar: K
Encoding: 44 75 44
Width: 1000
VWidth: 0
Flags: H
LayerCount: 2
Fore
SplineSet
591.5 703.75 m 0
 596.5 708.75 607.25 708.5390625 613 703.328125 c 0
 616.1875 700.439453125 617.5 695.75 617.5 687.25 c 0
 617.5 671.734375 611.35546875 663.5 534.104492188 575.5 c 0
 419.764648438 445.25 354.94921875 381.909179688 297 343.788085938 c 0
 289 338.525390625 282.5 333.577148438 282.5 332.75 c 0
 282.5 329.62890625 304.896484375 297 319.22265625 279.25 c 0
 327.208984375 269.353515625 359.68359375 235.25 391.352539062 203.5 c 0
 477.381835938 117.25 679.995117188 -80.3251953125 711.25 -108.442382812 c 0
 749.25 -142.627929688 755.61328125 -151.778320312 745.25 -157.330078125 c 0
 735.98046875 -162.295898438 720 -160.189453125 704.5 -151.95703125 c 0
 682.49609375 -140.270507812 655.75 -116.232421875 553.75 -16.470703125 c 0
 502.75 33.41015625 437.696289062 96.873046875 408.75 124.981445312 c 0
 315.5 215.534179688 271.650390625 264.661132812 250.5234375 302.25 c 0
 245.46484375 311.25 240.965820312 317.045898438 240.625 315 c 0
 240.282226562 312.940429688 236.599609375 280.25 232.458007812 242.5 c 0
 223.32421875 159.241210938 214.739257812 97.25 196.104492188 -20 c 0
 188.357421875 -68.75 180.783203125 -117.087890625 179.299804688 -127.25 c 0
 176.344726562 -147.5 171.465820312 -155 161.25 -155 c 0
 146.549804688 -155 138.495117188 -135 141.11328125 -105 c 0
 142.012695312 -94.703125 148.25390625 -53 154.95703125 -12.5 c 0
 195.633789062 233.25 215 439.108398438 215 625.75 c 2
 215 692.75 l 1
 221.125 698.875 l 2
 224.375 702.125 228.892578125 705 230.75 705 c 0
 237.581054688 705 247.379882812 694.75 250.5859375 684.25 c 0
 254.774414062 670.533203125 254.706054688 503.75 250.48828125 443.75 c 0
 248.8359375 420.25 246.7734375 390.799804688 245.875 377.875 c 2
 244.25 354.5 l 1
 257 360.970703125 l 2
 297.44921875 381.499023438 390.369140625 469 474.9921875 566.25 c 0
 498.921875 593.75 534.025390625 633.96875 553 655.625 c 0
 572.057617188 677.375 587.5 696.063476562 587.5 697.375 c 0
 587.5 698.7109375 589.25 701.5 591.5 703.75 c 0
EndSplineSet
EndChar

StartChar: L
Encoding: 45 76 45
Width: 1000
VWidth: 0
Flags: H
LayerCount: 2
Fore
SplineSet
301.25 715.086914062 m 0
 309 718.241210938 311.361328125 717.876953125 318.25 712.463867188 c 0
 330.513671875 702.828125 331.239257812 696.25 331.05859375 596.25 c 0
 330.842773438 476.791015625 320.724609375 348 297.375 167.5 c 0
 287.381835938 90.25 278.114257812 9.166015625 275.97265625 -19.75 c 0
 274.342773438 -41.75 274.505859375 -42.9208984375 279 -41.525390625 c 0
 307.897460938 -32.552734375 388.25 -17.97265625 441.25 -12.0830078125 c 0
 481.5 -7.611328125 616.944335938 -7.6630859375 653.75 -12.1650390625 c 0
 714.5 -19.5966796875 758.407226562 -31.419921875 771.75 -43.9404296875 c 0
 782 -53.55859375 782.57421875 -62.62109375 773.5 -71.5810546875 c 0
 767.297851562 -77.7060546875 766.125 -77.9375 747.875 -76.625 c 0
 737.333984375 -75.8671875 714.5 -73.001953125 697 -70.240234375 c 0
 647.323242188 -62.4033203125 587.75 -59.0966796875 525 -60.6962890625 c 0
 444.5 -62.7470703125 346.377929688 -73.6103515625 293 -86.380859375 c 0
 258.25 -94.6953125 249.819335938 -94.53125 239.5 -85.3447265625 c 2
 231.25 -78 l 1
 231.762695312 -50.75 l 2
 232.379882812 -17.9140625 239.6171875 54 251.084960938 141.25 c 0
 278.521484375 350 290.88671875 507.036132812 289.58984375 630.25 c 0
 288.7578125 709.25 288.8671875 710.047851562 301.25 715.086914062 c 0
EndSplineSet
EndChar

StartChar: M
Encoding: 46 77 46
Width: 1000
VWidth: 0
Flags: H
LayerCount: 2
Fore
SplineSet
173.25 694.651367188 m 0
 189.016601562 702.25390625 198.522460938 695.25 205.015625 671.25 c 0
 207.706054688 661.305664062 226.4140625 619.75 248.346679688 575 c 0
 305.350585938 458.69140625 346.779296875 366 396.397460938 243.75 c 0
 409.791015625 210.75 426.037109375 172.5 432.5 158.75 c 2
 444.25 133.75 l 1
 452.62109375 152.5 l 2
 490.62890625 237.6328125 556.505859375 360 635.661132812 492.5 c 0
 728.555664062 648 758.173828125 688.5 779 688.5 c 0
 786 688.5 789.698242188 686.796875 794.205078125 681.5 c 0
 801.293945312 673.16796875 801.413085938 667.75 795.029296875 644.25 c 0
 781.436523438 594.213867188 770.307617188 471 764.83984375 310 c 0
 760.8671875 193 764.103515625 113.971679688 777.487304688 1.25 c 0
 787.430664062 -82.5 787.211914062 -108.28515625 776.5 -115.463867188 c 0
 770.793945312 -119.288085938 762.556640625 -117.25 758.456054688 -111 c 0
 744.6015625 -89.87890625 726.44140625 47.5 722.764648438 159 c 0
 719.352539062 262.5 725.517578125 435.385742188 736.306640625 538.75 c 0
 741.65625 590 741.969726562 589.24609375 725.935546875 563.75 c 0
 630.3515625 411.75 531.482421875 232.168945312 487.270507812 130.25 c 0
 473.28125 98 463.216796875 84.1103515625 451.75 81.228515625 c 0
 425.9375 74.7412109375 410.84765625 98.75 357.774414062 230.75 c 0
 317.66796875 330.5 268.39453125 441.590820312 222.271484375 536.25 c 2
 204 573.75 l 1
 202.134765625 528.75 l 2
 196.758789062 399 189.827148438 291.03515625 178.702148438 163.75 c 0
 170.7265625 72.5 157.6953125 -54.47265625 155.5078125 -62.25 c 0
 154.548828125 -65.6591796875 150.625 -70.26171875 146.875 -72.375 c 0
 140.625 -75.8974609375 139.375 -75.9091796875 133.125 -72.5 c 0
 129.375 -70.4541015625 124.58984375 -65.681640625 122.598632812 -62 c 0
 118.578125 -54.568359375 119.65625 -37.5 131.171875 73.75 c 0
 138.059570312 140.286132812 150.288085938 285.25 156.478515625 373.75 c 0
 158.97265625 409.411132812 160.927734375 478.25 161.625 555 c 0
 162.309570312 630.25 163.729492188 681.346679688 165.25 685.375 c 0
 166.665039062 689.125 170.13671875 693.150390625 173.25 694.651367188 c 0
EndSplineSet
EndChar

StartChar: N
Encoding: 47 78 47
Width: 1000
VWidth: 0
Flags: H
LayerCount: 2
Fore
SplineSet
695.25 728.110351562 m 0
 706.182617188 737.189453125 723.16015625 731.5 726.166015625 717.75 c 0
 727.032226562 713.782226562 726.561523438 693.125 725.125 672.125 c 0
 723.678710938 650.981445312 721.353515625 576.5 719.946289062 506.25 c 0
 715.665039062 292.5 710.2734375 67.9794921875 708.66015625 36.25 c 0
 704.030273438 -54.75 680.02734375 -94.349609375 640.75 -75.7822265625 c 0
 626.34375 -68.9716796875 597.208007812 -26.5 554.4609375 50 c 0
 532.365234375 89.54296875 515.375 125.5 460.313476562 249.25 c 0
 395.463867188 395 321.895507812 549.572265625 315.5 553.516601562 c 0
 314.400390625 554.194335938 310.515625 527.5 306.875 494.25 c 0
 303.231445312 460.974609375 294.634765625 384.25 287.771484375 323.75 c 0
 267.889648438 148.5 266.491210938 129.40625 266.36328125 31.5 c 0
 266.25390625 -52.5 266.077148438 -55.6259765625 261.25 -59.1669921875 c 0
 254.012695312 -64.4736328125 242.590820312 -62.5 237.13671875 -55 c 0
 230.666015625 -46.1025390625 227.5 -13.25 227.5 45 c 0
 227.5 129.2890625 232.90234375 194.5 258.982421875 425 c 0
 273.23828125 551 277.716796875 611.045898438 275.595703125 647.75 c 0
 274.078125 674 277.362304688 686.00390625 287.5 691.263671875 c 0
 309.225585938 702.537109375 324.083984375 687.25 321.044921875 656.75 c 2
 319.5 641.25 l 1
 337.327148438 607.5 l 2
 392.39453125 503.25 433.663085938 417 502.401367188 262.5 c 0
 524.758789062 212.25 552.22265625 152.154296875 563.526367188 128.75 c 0
 595.040039062 63.5 649.74609375 -29.5263671875 654.75 -26.373046875 c 0
 657.829101562 -24.4326171875 661.998046875 1.75 663.725585938 30 c 0
 665.999023438 67.158203125 674.530273438 336.5 677.426757812 462.5 c 0
 680.62109375 601.5 684.385742188 693.43359375 687.592773438 710.75 c 0
 689.07421875 718.75 692.01953125 725.426757812 695.25 728.110351562 c 0
EndSplineSet
EndChar

StartChar: O
Encoding: 48 79 48
Width: 1000
VWidth: 0
Flags: H
LayerCount: 2
Fore
SplineSet
439.75 752.2734375 m 0
 467.5 755.223632812 467.986328125 755.223632812 494.25 752.284179688 c 0
 614.266601562 738.854492188 704.25390625 663.25 754.359375 533.75 c 0
 776.53125 476.447265625 781.20703125 451 781.0078125 388.75 c 0
 780.381835938 194 723.58203125 29.654296875 631.25 -44.5556640625 c 0
 608.688476562 -62.689453125 573.5 -80.5419921875 546.25 -87.6787109375 c 0
 504.408203125 -98.6376953125 426.25 -96.724609375 381.25 -83.640625 c 0
 291.611328125 -57.5771484375 190.310546875 32.5 141.552734375 129.5 c 0
 117.008789062 178.328125 110.842773438 220.75 118.58984375 287.5 c 0
 133.995117188 420.25 171.671875 543.252929688 218.981445312 615.25 c 0
 242.711914062 651.364257812 285 690.145507812 328 715.229492188 c 0
 361.974609375 735.047851562 401.75 748.232421875 439.75 752.2734375 c 0
506.25 708.810546875 m 0
 431.5 720.977539062 360.5625 698.423828125 292 640.693359375 c 0
 259.8203125 613.59765625 244.200195312 592.5 222.450195312 546.75 c 0
 180.374023438 458.25 145.984375 295.259765625 152.875 217 c 0
 157.15234375 168.41015625 188.90234375 110.75 242.489257812 54.25 c 0
 292.520507812 1.5 347.668945312 -34.9775390625 396.25 -47.4541015625 c 0
 442 -59.2041015625 505.469726562 -59.06640625 544.5 -47.1337890625 c 0
 656.87109375 -12.779296875 728.670898438 130.25 742.60546875 347.5 c 0
 747.944335938 430.75 739.965820312 475.24609375 707.236328125 544.75 c 0
 662.735351562 639.25 595.26953125 694.321289062 506.25 708.810546875 c 0
EndSplineSet
EndChar

StartChar: P
Encoding: 49 80 49
Width: 1000
VWidth: 0
Flags: H
LayerCount: 2
Fore
SplineSet
334.5 764.932617188 m 0
 409.5 773.725585938 505.125976562 756.282226562 575.75 720.923828125 c 0
 630 693.763671875 656.828125 665.828125 670.270507812 622.5 c 0
 678.19921875 596.947265625 678.21875 555.75 670.317382812 525 c 0
 663.31640625 497.75 636.877929688 444.5078125 617.681640625 419 c 0
 571.125 357.13671875 512 309.083007812 449 281.907226562 c 0
 390.5 256.671875 327.25 249.598632812 282.25 263.258789062 c 2
 270.75 266.75 l 1
 269.069335938 242.75 l 2
 265.764648438 195.553710938 254.891601562 79.75 246.276367188 0 c 0
 241.442382812 -44.75 235.921875 -102.701171875 233.987304688 -129 c 0
 230.309570312 -179 227.380859375 -190.67578125 217.75 -193.75 c 0
 210.196289062 -196.161132812 203.484375 -191.25 198.95703125 -180 c 0
 192.977539062 -165.141601562 193.774414062 -115.5 201.125 -45 c 0
 204.5 -12.6279296875 210.091796875 41.25 213.580078125 75 c 0
 228.41796875 218.571289062 235.91015625 334.25 240.134765625 485 c 0
 242.915039062 584.25 241.342773438 706.301757812 237.25 708.84765625 c 0
 233.21484375 711.357421875 235 724.2890625 240 728.76953125 c 0
 243.713867188 732.09765625 247.25 732.864257812 253.75 731.75 c 0
 260.75 730.549804688 263.036132812 731.25 265.178710938 735.25 c 0
 272.041992188 748.061523438 302.75 761.209960938 334.5 764.932617188 c 0
453.25 722.711914062 m 0
 434.404296875 726.779296875 417.5 728.205078125 380 728.890625 c 0
 329.75 729.80859375 315.965820312 728.387695312 300.25 720.669921875 c 0
 292.015625 716.625976562 291.186523438 715.25 290.5 704.5 c 0
 289.95703125 696 288.228515625 691.504882812 284.25 688.25 c 2
 278.75 683.75 l 1
 278.625 540 l 2
 278.553710938 457.5 277.168945312 374.51953125 275.375 345.25 c 0
 273.659179688 317.25 272.982421875 293.573242188 273.875 292.75 c 0
 274.770507812 291.922851562 291.375 291.305664062 310.875 291.375 c 0
 340.875 291.481445312 350.352539062 292.524414062 373.25 298.239257812 c 0
 461.75 320.331054688 540.00390625 376.455078125 593.565429688 456.25 c 0
 639.711914062 525 648.75 598.334960938 616.487304688 642.25 c 0
 592.475585938 674.934570312 528.5 706.46875 453.25 722.711914062 c 0
EndSplineSet
EndChar

StartChar: Q
Encoding: 50 81 50
Width: 1000
VWidth: 0
Flags: H
LayerCount: 2
Fore
SplineSet
388.75 698.303710938 m 0
 451.64453125 711.78125 530.25 693.315429688 596.25 649.55859375 c 0
 622.75 631.990234375 663.538085938 591.341796875 679.844726562 566.25 c 0
 715.677734375 511.114257812 728.659179688 463 728.412109375 386.25 c 0
 728.012695312 262.5 686.5625 118.826171875 623.830078125 23.75 c 0
 614.922851562 10.25 607.784179688 -1.1708984375 608.125 -1.375 c 0
 608.470703125 -1.58203125 620.5 -9.9189453125 635 -20 c 0
 649.482421875 -30.0693359375 677.5 -50.595703125 697.5 -65.7900390625 c 0
 763 -115.551757812 771.21875 -121.637695312 777.5 -125.01953125 c 0
 783.25 -128.115234375 783.301757812 -128.391601562 778.75 -131.65234375 c 0
 772.650390625 -136.020507812 746.5 -135.9765625 731.75 -131.572265625 c 0
 717.041015625 -127.180664062 698 -115.500976562 654.25 -84.033203125 c 0
 634.75 -70.0078125 610.243164062 -52.75390625 599.875 -45.75 c 2
 581 -33 l 1
 563.5 -48.03125 l 2
 507.576171875 -96.06640625 450 -107.666992188 381.25 -84.75 c 0
 339.25 -70.75 299.319335938 -45.3857421875 258.5 -6.77734375 c 0
 218.015625 31.5146484375 187.345703125 72.75 162.533203125 122.25 c 0
 120.051757812 207 113.856445312 288.02734375 143.685546875 368.75 c 0
 148.278320312 381.178710938 155.583984375 403 160.005859375 417.5 c 0
 188.140625 509.75 234.641601562 590.82421875 289 642.403320312 c 0
 321.966796875 673.684570312 351.75 690.375 388.75 698.303710938 c 0
488.25 654.010742188 m 0
 437.25 666.956054688 390.294921875 663.137695312 355 643.17578125 c 0
 280.559570312 601.073242188 208.2578125 479 171.288085938 333 c 0
 159.893554688 288 154.983398438 253.584960938 157.625976562 237.25 c 0
 169.842773438 161.75 225.571289062 68.185546875 292 11.646484375 c 0
 361.25 -47.294921875 427.705078125 -69.2451171875 482 -51.109375 c 0
 501.25 -44.6787109375 528.900390625 -28.1962890625 539.63671875 -16.75 c 2
 545.5 -10.5 l 1
 523.75 2.345703125 l 2
 481.75 27.1513671875 412.81640625 59.802734375 394.5 63.56640625 c 0
 376 67.369140625 366.724609375 86.724609375 378 98 c 0
 382.5 102.5 385.25 103.063476562 397.25 101.943359375 c 0
 420.022460938 99.818359375 489.75 69.0947265625 548.5 35.298828125 c 0
 560.75 28.251953125 571.6484375 22.5 572.75 22.5 c 0
 573.84375 22.5 580.497070312 31 587.426757812 41.25 c 0
 647.26171875 129.747070312 688.072265625 270 688.1796875 387.5 c 0
 688.229492188 442.25 679.821289062 481.446289062 659.755859375 520 c 0
 626.323242188 584.239257812 560.5 635.671875 488.25 654.010742188 c 0
EndSplineSet
EndChar

StartChar: R
Encoding: 51 82 51
Width: 1000
VWidth: 0
Flags: H
LayerCount: 2
Fore
SplineSet
327.5 737.5 m 0
 481.5 746.8046875 595.5546875 710.16796875 627.9140625 641 c 0
 634.55078125 626.813476562 635.94140625 620.5 637 599.75 c 0
 638.096679688 578.25 637.442382812 572.678710938 631.657226562 554.25 c 0
 622.57421875 525.3203125 601.204101562 493.5 567.85546875 459.25 c 0
 491.5234375 380.85546875 392.25 330.797851562 279.25 313.723632812 c 2
 269.5 312.25 l 1
 274.375 306.75 l 2
 277.059570312 303.720703125 290.072265625 285.75 303.337890625 266.75 c 0
 345.775390625 205.966796875 396.303710938 146.5 459.890625 82.5 c 0
 506.432617188 35.6552734375 538 7.1728515625 599.75 -43.6943359375 c 0
 641.25 -77.8798828125 664.940429688 -100.229492188 696.267578125 -134.75 c 2
 706.25 -145.75 l 1
 698 -144.197265625 l 2
 677.899414062 -140.415039062 636.5 -121.453125 610.75 -104.235351562 c 0
 495.047851562 -26.8671875 351.71875 118.75 270.6953125 241.25 c 0
 240.104492188 287.5 242.856445312 283.606445312 241.625 282.375 c 0
 241.002929688 281.752929688 238.625976562 260 236.311523438 233.75 c 0
 230.169921875 164.116210938 221.311523438 84.75 208.82421875 -12.5 c 0
 202.725585938 -60 196.506835938 -112.790039062 194.983398438 -130 c 0
 191.840820312 -165.5 189.32421875 -177.111328125 183.063476562 -185 c 0
 179.690429688 -189.25 177.065429688 -190.294921875 173 -189.005859375 c 0
 155.002929688 -183.299804688 153.014648438 -140.5 166.079101562 -40 c 0
 182.978515625 90 195.930664062 207.848632812 202.01953125 287 c 0
 203.75 309.5 203.463867188 313.223632812 199.75 316.5 c 0
 197.448242188 318.53125 194.8046875 323 193.983398438 326.25 c 0
 192.27734375 333 197.809570312 346.08203125 203.25 348.162109375 c 0
 205.75 349.1171875 207.217773438 356.5 208.385742188 374 c 0
 212.274414062 432.25 222.731445312 614.423828125 224.889648438 661.5 c 0
 226.826171875 703.75 228.015625 713.853515625 231.512695312 717.75 c 0
 240.231445312 727.46484375 273 734.20703125 327.5 737.5 c 0
457.5 693.676757812 m 0
 418.044921875 700.008789062 348.25 700.5703125 294.5 694.98828125 c 0
 259.940429688 691.399414062 258.545898438 689.75 259.654296875 653.75 c 0
 260.12109375 638.565429688 259.272460938 600.5 257.758789062 568.75 c 0
 252.837890625 465.5 247.567382812 371.469726562 246.142578125 361.5 c 2
 244.75 351.75 l 1
 268 353.364257812 l 2
 313.764648438 356.54296875 358.25 369.653320312 409.5 395.06640625 c 0
 464 422.090820312 501.578125 449.176757812 540.170898438 489.25 c 0
 588.322265625 539.25 604.86328125 578.360351562 593.881835938 616.25 c 0
 583.569335938 651.833984375 530.5 681.961914062 457.5 693.676757812 c 0
EndSplineSet
EndChar

StartChar: S
Encoding: 52 83 52
Width: 1000
VWidth: 0
Flags: H
LayerCount: 2
Fore
SplineSet
396.25 727.211914062 m 0
 420.934570312 730.301757812 449.75 730.39453125 477.5 727.473632812 c 0
 546.5 720.2109375 592.77734375 694.18359375 614.361328125 650.5 c 0
 623.481445312 632.04296875 623.743164062 630.75 623.505859375 605.25 c 0
 623.241210938 576.75 615.974609375 542.998046875 608.2734375 534.5 c 0
 604.059570312 529.849609375 596.25 528.694335938 588.75 531.611328125 c 0
 580.73828125 534.7265625 579.84375 544 584.252929688 578.25 c 2
 588.5 611.25 l 1
 582.083007812 625.25 l 2
 569.283203125 653.177734375 547 669.828125 508.25 680.419921875 c 0
 491.450195312 685.01171875 482 685.767578125 440 685.875 c 0
 397.75 685.983398438 388.650390625 685.283203125 371.75 680.623046875 c 0
 348 674.075195312 315.86328125 659.251953125 296 645.682617188 c 0
 276.25 632.192382812 252.286132812 606.638671875 243.78125 590 c 0
 234.70703125 572.25 232.125976562 540.481445312 238.72265625 527.75 c 0
 250.967773438 504.118164062 281.75 479.53515625 405 394.954101562 c 0
 467 352.40625 504.715820312 324.3203125 536.25 297.21484375 c 0
 618.849609375 226.217773438 659.529296875 156.75 667.98828125 72.25 c 0
 674.99609375 2.25 657.084960938 -51.181640625 611.5 -96.2666015625 c 0
 577.904296875 -129.493164062 544.75 -144.778320312 495.25 -149.86328125 c 0
 413.25 -158.287109375 322.266601562 -123.072265625 257.258789062 -57.75 c 0
 223.27734375 -23.603515625 200.52734375 11.75 185.5078125 53.75 c 0
 180.188476562 68.625 179.137695312 76.5 178.5 106.25 c 0
 177.80859375 138.5 178.016601562 140.463867188 181.142578125 131.25 c 0
 193.184570312 95.75 220.137695312 46.0810546875 245.990234375 11.75 c 0
 263.875 -12 299.201171875 -45.8095703125 321.75 -60.7578125 c 0
 412.5 -120.916992188 522.029296875 -122.12109375 580.75 -63.60546875 c 0
 610.965820312 -33.4951171875 622.642578125 -6.25 624.401367188 38.25 c 0
 626.288085938 86 618.594726562 119.809570312 596.297851562 161.75 c 0
 562.716796875 224.913085938 510.75 271.918945312 355 380.010742188 c 0
 226.25 469.364257812 201.833984375 492.918945312 195.376953125 534 c 0
 191.250976562 560.25 197.661132812 593.349609375 211.40234375 616.75 c 0
 243.13671875 670.7890625 322 717.916992188 396.25 727.211914062 c 0
EndSplineSet
EndChar

StartChar: T
Encoding: 53 84 53
Width: 1000
VWidth: 0
Flags: H
LayerCount: 2
Fore
SplineSet
788.75 750.725585938 m 0
 812.75 753.067382812 835.645507812 752.362304688 843.5 749.041015625 c 0
 860 742.064453125 864.7890625 725.795898438 854.036132812 713.25 c 0
 848.422851562 706.701171875 847.25 706.444335938 814.75 704.625 c 0
 796.270507812 703.590820312 746.5 698.724609375 703.75 693.7734375 c 0
 633.75 685.665039062 563.375 680.16796875 528 680.044921875 c 2
 515 680 l 1
 515 630.75 l 2
 515 566.743164062 507.952148438 438.5 494.966796875 266.25 c 0
 482.529296875 101.25 477.900390625 19.361328125 472.78125 -126.25 c 0
 470.390625 -194.25 469.291992188 -198.318359375 453 -199.482421875 c 0
 442.75 -200.213867188 442.052734375 -199.80859375 438 -190.75 c 0
 434.251953125 -182.37109375 433.795898438 -172.25 434.135742188 -105 c 0
 434.59765625 -13.6484375 439.16796875 74.75 452.553710938 251.25 c 0
 463.872070312 400.5 471.974609375 533.881835938 476.2578125 641.5 c 2
 477.75 679 l 1
 369.5 682.5 l 2
 310 684.423828125 253.369140625 686.181640625 243.75 686.40234375 c 0
 217.75 687 217.75 687 211.25 693.5 c 0
 200.737304688 704.012695312 205 722.232421875 219.25 727.698242188 c 0
 222.95703125 729.120117188 267 728.887695312 334.5 727.08984375 c 0
 485.25 723.075195312 574.080078125 726.239257812 692.5 739.842773438 c 0
 740 745.298828125 783.243164062 750.188476562 788.75 750.725585938 c 0
EndSplineSet
EndChar

StartChar: U
Encoding: 54 85 54
Width: 1000
VWidth: 0
Flags: H
LayerCount: 2
Fore
SplineSet
767.5 730 m 0
 774.051757812 736.551757812 789.75 736.671875 798 730.234375 c 0
 808.72265625 721.868164062 815.42578125 702 818.323242188 670 c 0
 821.044921875 639.936523438 817.477539062 480 812.301757812 400 c 0
 804.989257812 287 786.396484375 171.865234375 765.024414062 107.25 c 0
 738.978515625 28.5 695.065429688 -27.5224609375 636.25 -57.0361328125 c 0
 602.262695312 -74.0908203125 562.75 -79.7412109375 508.75 -75.2685546875 c 0
 401.75 -66.40625 315.46875 -31.826171875 274.161132812 18.75 c 0
 249.770507812 48.61328125 232.528320312 94.75 223.989257812 153 c 0
 212.32421875 232.577148438 209.057617188 306.75 209.260742188 487.5 c 0
 209.452148438 657.25 211.384765625 702.0625 218.868164062 710.25 c 0
 225.3125 717.30078125 236.008789062 716.5 242.241210938 708.5 c 0
 247.430664062 701.838867188 247.5 699.75 247.5 550.25 c 0
 247.5 232.75 259.028320312 113.22265625 295.002929688 57.75 c 0
 324.236328125 12.671875 389.5 -17.798828125 483.25 -30.140625 c 0
 516.25 -34.484375 577.620117188 -32.1943359375 595.25 -25.9619140625 c 0
 665.369140625 -1.1708984375 712.79296875 73 737.329101562 196.25 c 0
 757.899414062 299.576171875 767.221679688 396 772.740234375 562.5 c 0
 775.846679688 656.25 774.650390625 688.28515625 767.427734375 704.75 c 0
 761.28515625 718.75 761.299804688 723.799804688 767.5 730 c 0
EndSplineSet
EndChar

StartChar: V
Encoding: 55 86 55
Width: 1000
VWidth: 0
Flags: H
LayerCount: 2
Fore
SplineSet
796.938476562 708 m 0
 805.384765625 717 816.83984375 717.307617188 824.888671875 708.75 c 0
 833.5234375 699.5703125 831.075195312 688.25 808.12890625 631.25 c 0
 797.057617188 603.75 746.149414062 471 694.998046875 336.25 c 0
 594.78515625 72.25 594.416015625 71.2626953125 564.685546875 -12.25 c 0
 553.739257812 -43 541.500976562 -74.6748046875 537.543945312 -82.5 c 0
 529.453125 -98.5 513.602539062 -114.114257812 503.25 -116.283203125 c 0
 499.5 -117.069335938 494.276367188 -118.153320312 492 -118.619140625 c 0
 483.75 -120.306640625 466.087890625 -114.610351562 459 -107.975585938 c 0
 442.754882812 -92.7705078125 444.711914062 -99 331.240234375 298.75 c 0
 238.59375 623.5 229.697265625 656.678710938 229.140625 679.5 c 0
 228.780273438 694.25 229.296875 695.96875 235.75 701.5 c 0
 239.5 704.713867188 246 707.5 249.75 707.5 c 0
 257.623046875 707.5 266.891601562 699.75 268.584960938 691.75 c 0
 269.225585938 688.724609375 271.068359375 679.5 272.6796875 671.25 c 0
 275.5859375 656.37109375 290.215820312 604.75 389.940429688 257.5 c 0
 449.028320312 51.75 474.584960938 -34.697265625 482.698242188 -56.25 c 0
 488.15625 -70.75 488.321289062 -70.9111328125 492.47265625 -65.75 c 0
 496.838867188 -60.322265625 502.221679688 -46.25 533.404296875 41.25 c 0
 551.264648438 91.3662109375 721.284179688 540.5 746.811523438 605 c 0
 765.908203125 653.25 787.829101562 698.293945312 796.938476562 708 c 0
EndSplineSet
EndChar

StartChar: W
Encoding: 56 87 56
Width: 1000
VWidth: 0
Flags: H
LayerCount: 2
Fore
SplineSet
781.25 706.900390625 m 0
 786 711.016601562 789.555664062 712.279296875 793.25 711.16015625 c 0
 811.669921875 705.583984375 811.005859375 687.25 789.168945312 598.5 c 0
 779.999023438 561.23046875 761.904296875 478 748.94921875 413.5 c 0
 685.325195312 96.75 659.356445312 -7.30859375 628.971679688 -67.25 c 0
 612.877929688 -99 591.350585938 -110.12890625 570.5 -97.4794921875 c 0
 547.735351562 -83.66796875 541.154296875 -44 526.33203125 168.75 c 0
 524.224609375 199 516.875 280 510 348.75 c 0
 503.125 417.5 496.768554688 487.081054688 495.875 503.375 c 0
 494.983398438 519.625 493.365234375 531.419921875 492.2890625 529.5 c 0
 483.16015625 513.202148438 388.625 138.5 352.708984375 -23.75 c 0
 342.96875 -67.75 333.723632812 -106.900390625 332.165039062 -110.75 c 0
 325.987304688 -126 306.990234375 -130.24609375 296.373046875 -118.75 c 0
 286.533203125 -108.096679688 273.640625 -40.75 249.948242188 123.75 c 0
 219.59375 334.5 195.962890625 465.096679688 164.450195312 596.25 c 0
 149.673828125 657.75 148.328125 674.209960938 157.298828125 683.75 c 0
 171.751953125 699.120117188 200.1484375 683.75 192.865234375 664.5 c 0
 191.057617188 659.72265625 193.094726562 648 201.513671875 614.75 c 0
 232.891601562 490.814453125 257.864257812 355.25 289.891601562 135 c 0
 308.614257812 6.25 310.430664062 -5 312.5 -5 c 0
 313.329101562 -5 317.692382812 11 322.25 30.75 c 0
 352.25 160.75 417.14453125 415.059570312 446.139648438 516.25 c 0
 470.7109375 602 490.822265625 652.671875 502.75 658.881835938 c 0
 512.5 663.958984375 516.372070312 663.349609375 525.5 655.302734375 c 2
 533.5 648.25 l 1
 535.245117188 576 l 2
 537.012695312 502.83984375 539.037109375 475.75 552.32421875 347.5 c 0
 562.91796875 245.25 566.899414062 201.864257812 569.989257812 155 c 0
 574.966796875 79.5 580.227539062 16.5576171875 583.883789062 -11.25 c 0
 585.889648438 -26.5 587.5 -40.0859375 587.5 -41.75 c 0
 587.5 -50.150390625 592.802734375 -43 599.551757812 -25.5 c 0
 621.836914062 32.2861328125 645.358398438 127.25 683.580078125 313.75 c 0
 718.573242188 484.5 723.271484375 505.9296875 740.030273438 571.25 c 0
 770.177734375 688.75 773.706054688 700.362304688 781.25 706.900390625 c 0
EndSplineSet
EndChar

StartChar: X
Encoding: 57 88 57
Width: 1000
VWidth: 0
Flags: H
LayerCount: 2
Fore
SplineSet
122.5 692.5 m 0
 133.640625 703.640625 142.137695312 697.75 175.872070312 655.5 c 0
 215.325195312 606.087890625 278.211914062 519.75 344.672851562 423.75 c 0
 365.615234375 393.5 383.650390625 368.412109375 384.75 368 c 0
 385.848632812 367.587890625 406.301757812 400.25 430.1484375 440.5 c 0
 534.421875 616.5 566.833984375 664.37109375 596 685.455078125 c 0
 611.5 696.659179688 625.563476562 694.154296875 630.823242188 679.25 c 0
 633.229492188 672.434570312 628.749023438 664 612.366210938 644.5 c 0
 589.022460938 616.715820312 561.817382812 574.25 483.919921875 444 c 2
 412.75 325 l 1
 452.109375 264.5 l 2
 505.29296875 182.75 539.546875 127.376953125 569.33203125 75 c 0
 601.178710938 19 682.5 -137.833007812 682.5 -143.25 c 0
 682.5 -149.630859375 673.25 -157.5 665.75 -157.5 c 0
 650.66796875 -157.5 624.329101562 -118.75 572.287109375 -20 c 0
 525.98046875 67.8681640625 472.700195312 158 410.462890625 253.75 c 2
 389.5 286 l 1
 379.08203125 269 l 2
 313.053710938 161.25 221.18359375 17.4052734375 186.203125 -33 c 0
 151.329101562 -83.25 127.501953125 -107.5 113 -107.5 c 0
 107.02734375 -107.5 106.80859375 -107 108.073242188 -96.25 c 0
 110.532226562 -75.353515625 130.369140625 -39.75 195.828125 61.25 c 0
 241.520507812 131.75 298.868164062 222.837890625 333.235351562 279.5 c 2
 362.5 327.75 l 1
 317.046875 394.5 l 2
 264.78515625 471.25 214.408203125 542.803710938 163.564453125 612.5 c 0
 113.229492188 681.5 112.642578125 682.642578125 122.5 692.5 c 0
EndSplineSet
EndChar

StartChar: Y
Encoding: 58 89 58
Width: 1000
VWidth: 0
Flags: H
LayerCount: 2
Fore
SplineSet
668.25 705.189453125 m 0
 679.5 716.001953125 688.334960938 717.85546875 692.375 710.25 c 0
 698.040039062 699.586914062 691.512695312 688 633.791015625 606.25 c 0
 567.596679688 512.5 518.487304688 434.955078125 481.797851562 366.25 c 0
 464.442382812 333.75 454.928710938 319.765625 448.5 317.302734375 c 0
 446.599609375 316.575195312 446.346679688 307.75 447.681640625 288.75 c 0
 455.091796875 183.25 456.625976562 -153.49609375 449.809570312 -178.25 c 0
 444.990234375 -195.75 427.4609375 -199.90625 418.176757812 -185.75 c 0
 414.060546875 -179.47265625 413.635742188 -162.875 412.125 51.125 c 0
 411.231445312 177.625 409.655273438 295.884765625 408.625 313.75 c 2
 406.75 346.25 l 1
 396.676757812 361.25 l 2
 352.068359375 427.676757812 279.5 509.510742188 197.5 585.858398438 c 0
 111.25 666.1640625 112.352539062 664.852539062 122.5 675 c 0
 133.083984375 685.583984375 146 679.21875 192 640.750976562 c 0
 273.75 572.38671875 351.1484375 491.89453125 405.469726562 418.75 c 0
 417.723632812 402.25 430.28125 385.487304688 433.375 381.5 c 2
 439 374.25 l 1
 447.4375 390.25 l 2
 495.950195312 482.25 619.212890625 658.056640625 668.25 705.189453125 c 0
EndSplineSet
EndChar

StartChar: Z
Encoding: 59 90 59
Width: 1000
VWidth: 0
Flags: H
LayerCount: 2
Fore
SplineSet
293.75 693.404296875 m 0
 338.5 695.55078125 627.286132812 694.741210938 635.5 692.446289062 c 0
 647.6875 689.041992188 655 679.5 655 667 c 0
 655 658.211914062 653.083984375 655 639.190429688 640.5 c 0
 604.083007812 603.860351562 566.752929688 548 394.930664062 275 c 0
 348.670898438 201.5 291.018554688 110.280273438 266.947265625 72.5 c 0
 223.622070312 4.5 197.5 -39.0390625 197.5 -43.25 c 0
 197.5 -44.361328125 199.5 -44.6259765625 202 -43.8466796875 c 0
 209.51171875 -41.5048828125 269.75 -32.8994140625 302.5 -29.490234375 c 0
 345 -25.0654296875 536.193359375 -25.0185546875 573.75 -29.423828125 c 0
 639.25 -37.10546875 697.729492188 -48.791015625 715.5 -57.7490234375 c 0
 733.5 -66.822265625 737.890625 -83.201171875 726.08984375 -97.25 c 0
 716.86328125 -108.234375 707.25 -109.057617188 674.5 -101.666015625 c 0
 605.444335938 -86.0810546875 540.75 -80 444 -80 c 0
 335.25 -80 274.016601562 -85.1396484375 189.75 -101.33984375 c 0
 135 -111.866210938 125.647460938 -110.442382812 120.154296875 -90.75 c 0
 117.021484375 -79.515625 119.673828125 -72.75 133.584960938 -56.5 c 0
 139.547851562 -49.53515625 150.8515625 -31.5 158.5 -16.75 c 0
 166.216796875 -1.8671875 196.23046875 47.5 225.375 93.25 c 0
 254.422851562 138.84765625 306.34375 220.75 340.591796875 275 c 0
 489.107421875 510.25 533.565429688 579.047851562 567.737304688 626.5 c 0
 575.838867188 637.75 582.5 647.676757812 582.5 648.5 c 0
 582.5 649.325195312 541.25 649.97265625 490.75 649.938476562 c 0
 340.25 649.838867188 184.65234375 643.721679688 158.75 636.888671875 c 0
 153.25 635.4375 144.587890625 634.192382812 139.5 634.12109375 c 0
 116.5 633.80078125 107.928710938 661.844726562 127.5 673.3828125 c 0
 139.9765625 680.73828125 213 689.533203125 293.75 693.404296875 c 0
EndSplineSet
EndChar

StartChar: bracketleft
Encoding: 60 91 60
Width: 1000
VWidth: 0
Flags: H
LayerCount: 2
Fore
SplineSet
538.75 719.462890625 m 0
 560.75 721.616210938 587 720.25 595 716.536132812 c 0
 598.272460938 715.016601562 602.76171875 710.625 604.875 706.875 c 0
 608.397460938 700.625 608.397460938 699.375 604.875 693.125 c 0
 601.013671875 686.274414062 600.875 686.244140625 566.125 684.625 c 0
 546.875 683.728515625 522.681640625 681.263671875 512.125 679.125 c 0
 501.548828125 676.982421875 480.875 674.579101562 465.875 673.75 c 0
 450.875 672.920898438 436.068359375 671.69140625 432.75 671 c 2
 426.75 669.75 l 1
 428.375 616.75 l 2
 429.271484375 587.5 431.288085938 541.904296875 432.875 515 c 0
 434.559570312 486.439453125 436.008789062 363.75 436.375 218.75 c 0
 436.71875 82.5 437.842773438 -35.3798828125 438.875 -43.5 c 2
 440.75 -58.25 l 1
 483.5 -56.875 l 2
 507 -56.119140625 543.923828125 -53.5302734375 565.5 -51.126953125 c 0
 608 -46.3916015625 617.083984375 -47.51953125 622.845703125 -58.25 c 0
 630.560546875 -72.6181640625 622.25 -87.185546875 602.75 -93.4755859375 c 0
 573.930664062 -102.772460938 504.5 -108.297851562 447 -105.87109375 c 0
 396 -103.71875 396.786132812 -104.40625 394.336914062 -59.75 c 0
 393.326171875 -41.3095703125 392.163085938 94 391.75 241.25 c 0
 391.14453125 457.25 390.182617188 521.263671875 386.754882812 573.75 c 0
 380.680664062 666.75 382.838867188 683.282226562 403 698.178710938 c 0
 415.357421875 707.30859375 426 710 449.75 710 c 0
 461.575195312 710 482.5 711.744140625 496.25 713.875 c 0
 510 716.005859375 529.125 718.520507812 538.75 719.462890625 c 0
EndSplineSet
EndChar

StartChar: backslash
Encoding: 61 92 61
Width: 1000
VWidth: 0
Flags: H
LayerCount: 2
Fore
SplineSet
245.75 685.03515625 m 0
 248.75 686.243164062 251.477539062 687.306640625 251.75 687.375 c 0
 252.026367188 687.444335938 254.875 686.327148438 258.125 684.875 c 0
 262.0234375 683.1328125 268.458007812 673.25 277.25 655.5 c 0
 284.555664062 640.750976562 313.549804688 587.25 341.875 536.25 c 0
 370.200195312 485.25 411.76171875 409.541015625 434.510742188 367.5 c 0
 486.458984375 271.5 692.560546875 -136.327148438 694.268554688 -146.5 c 0
 695.947265625 -156.5 688.490234375 -165.681640625 678.75 -165.606445312 c 0
 668.895507812 -165.53125 657.479492188 -152.25 640.194335938 -120.75 c 0
 632.8046875 -107.283203125 584.916015625 -13.5 533.856445312 87.5 c 0
 441.46875 270.25 402.91015625 343.78515625 316.901367188 501.25 c 0
 264.739257812 596.75 238.626953125 648.977539062 236.283203125 662.5 c 0
 234.333007812 673.75 237.713867188 681.797851562 245.75 685.03515625 c 0
EndSplineSet
EndChar

StartChar: bracketright
Encoding: 62 93 62
Width: 1000
VWidth: 0
Flags: H
LayerCount: 2
Fore
SplineSet
534.71875 728.75 m 0
 537.133789062 731.243164062 553.25 729.7421875 559.75 726.418945312 c 0
 571.498046875 720.412109375 573.813476562 711 570.430664062 683 c 0
 568.81640625 669.640625 566.376953125 597 565 521.25 c 0
 563.623046875 445.5 561.208984375 345.577148438 559.625 298.75 c 0
 557.673828125 241.071289062 557.432617188 168.75 558.875 73.75 c 0
 560.043945312 -3.25 561.056640625 -78.90625 561.125 -94.375 c 2
 561.25 -122.5 l 1
 553.125 -130.625 l 1
 545 -138.75 l 1
 494.25 -139.59375 l 2
 424.5 -140.751953125 364.990234375 -134.055664062 342.5 -122.516601562 c 0
 325.25 -113.666015625 317.08203125 -97.212890625 328 -93.306640625 c 0
 331.166015625 -92.173828125 374.75 -91.25 425 -91.25 c 2
 516.25 -91.25 l 1
 516 -70 l 2
 515.862304688 -58.3125 514.849609375 3 513.75 66.25 c 0
 512.209960938 154.799804688 512.715820312 215.75 515.950195312 331.25 c 0
 519.631835938 462.75 524.587890625 683.123046875 523.887695312 684.25 c 0
 523.447265625 684.958984375 386.5 680.163085938 359.5 678.493164062 c 0
 330.5 676.698242188 322.35546875 679.049804688 318.779296875 690.25 c 0
 316.34375 697.87890625 322 709.265625 329.75 712.333007812 c 0
 341.13671875 716.840820312 401 722.338867188 468.75 725.100585938 c 0
 504.5 726.557617188 534.185546875 728.200195312 534.71875 728.75 c 0
EndSplineSet
EndChar

StartChar: asciicircum
Encoding: 63 94 63
Width: 1000
VWidth: 0
Flags: H
LayerCount: 2
Fore
SplineSet
445 692.265625 m 0
 453.75 695.705078125 455.25 695.543945312 464 690.217773438 c 0
 469.68359375 686.7578125 472.516601562 682.5 474.625 674.25 c 0
 476.203125 668.076171875 498.701171875 620.25 524.489257812 568.25 c 0
 562.055664062 492.5 651.124023438 300.6640625 677.358398438 239 c 0
 683.1015625 225.5 684 212.5 679.5 208 c 0
 673.5234375 202.0234375 662.374023438 204.5 653.618164062 213.75 c 0
 643.641601562 224.2890625 612.530273438 285.25 567.495117188 382.5 c 0
 549.383789062 421.610351562 514.087890625 495.25 489.25 545.75 c 0
 444.24609375 637.25 443.975585938 637.71875 439.5859375 632 c 0
 425.755859375 613.986328125 358.126953125 496.25 290.669921875 372.75 c 0
 239.872070312 279.75 233.985351562 267.186523438 233.854492188 251.5 c 0
 233.762695312 240.5 232.924804688 238.53515625 226.875 235.125 c 0
 220.736328125 231.665039062 219.25 231.666015625 213 235.133789062 c 0
 188.703125 248.61328125 197.549804688 277.25 263.159179688 397.5 c 0
 373.918945312 600.5 425.896484375 684.755859375 445 692.265625 c 0
EndSplineSet
EndChar

StartChar: underscore
Encoding: 64 95 64
Width: 1000
VWidth: 0
Flags: H
LayerCount: 2
Fore
SplineSet
222.5 -65.291015625 m 0
 298.5 -61.7353515625 486.282226562 -63.66796875 532 -68.4765625 c 0
 554 -70.791015625 573.436523438 -74.1611328125 577.75 -76.4111328125 c 0
 591.25 -83.4501953125 592.904296875 -100.4375 581 -109.779296875 c 0
 572.370117188 -116.551757812 557.5 -117.873046875 525 -114.756835938 c 0
 509.073242188 -113.229492188 421.375 -111.275390625 328.375 -110.375 c 2
 160.5 -108.75 l 1
 154 -102.627929688 l 2
 146 -95.0927734375 145.18359375 -82.31640625 152.25 -75.25 c 0
 158.641601562 -68.8583984375 164.75 -67.9931640625 222.5 -65.291015625 c 0
EndSplineSet
EndChar

StartChar: grave
Encoding: 65 96 65
Width: 1000
VWidth: 0
Flags: H
LayerCount: 2
Fore
SplineSet
352.5 655.96484375 m 0
 363 665.439453125 367.5 667.174804688 367.5 661.75 c 0
 367.5 653.729492188 355.916992188 626 336.276367188 587 c 0
 324.692382812 564 313.397460938 538.90625 311.125 531.125 c 2
 307 517 l 1
 320.75 504.1875 l 2
 336 489.977539062 340 482.25 340 467 c 0
 340 458.75 338.293945312 455.293945312 330.25 447.25 c 0
 321.474609375 438.474609375 319.25 437.5 308 437.5 c 0
 292.752929688 437.5 286.713867188 443.5 282.588867188 462.75 c 0
 278.678710938 481 279.313476562 518.966796875 283.819335938 536.25 c 0
 292.095703125 568 331.893554688 637.37109375 352.5 655.96484375 c 0
EndSplineSet
EndChar

StartChar: a
Encoding: 66 97 66
Width: 1000
VWidth: 0
Flags: H
LayerCount: 2
Fore
SplineSet
346.75 444.870117188 m 0
 381.75 448.71875 415.061523438 443.706054688 436.25 431.403320312 c 0
 452.336914062 422.0625 471.844726562 399.5 481.55859375 379 c 0
 495.384765625 349.822265625 500.787109375 319 500.881835938 268.75 c 0
 500.973632812 220.25 497.2109375 194.130859375 483.846679688 150.5 c 0
 477.234375 128.912109375 474.850585938 115.25 472.375976562 84.75 c 0
 466.737304688 15.25 475.08203125 0 518.75 0 c 0
 539.982421875 0 563.75 6.685546875 590.5 20.181640625 c 0
 598.75 24.3447265625 606.0625 27.1943359375 606.75 26.5146484375 c 0
 611.040039062 22.275390625 569.75 -19.6328125 554 -27.0244140625 c 0
 528.75 -38.8740234375 497.033203125 -38.6572265625 473 -26.4716796875 c 0
 450.764648438 -15.197265625 439.94140625 3.25 436.200195312 36.25 c 2
 434.5 51.25 l 1
 426.803710938 41.25 l 2
 412.181640625 22.25 378.213867188 -8.830078125 363.5 -16.671875 c 0
 321 -39.32421875 286.915039062 -37.86328125 258.75 -12.18359375 c 0
 242.2109375 2.8955078125 229.140625 27.75 223.419921875 55 c 0
 218.013671875 80.75 219.778320312 120.564453125 227.297851562 142.5 c 0
 251.208984375 212.247070312 332.25 270.047851562 407.5 271.0234375 c 0
 434 271.3671875 448.530273438 265.573242188 459.59765625 250.25 c 0
 466.458007812 240.75 467.111328125 240.420898438 468.524414062 245.75 c 0
 470.823242188 254.42578125 470.329101562 280.25 467.350585938 307 c 0
 462.33984375 352 446.930664062 386.186523438 424.75 401.515625 c 0
 384.637695312 429.23828125 293.75 413.44140625 237 368.884765625 c 0
 223.75 358.481445312 222.5 356.659179688 222.5 347.75 c 0
 222.5 331.5 209.499023438 324.115234375 201.373046875 335.75 c 0
 195.9375 343.533203125 196.500976562 364 202.413085938 373.5 c 0
 211.40234375 387.943359375 242.25 410.6015625 271 423.876953125 c 0
 293.868164062 434.436523438 321.5 442.094726562 346.75 444.870117188 c 0
430.25 239.803710938 m 0
 408.4296875 251.456054688 351.5 237.041015625 313.25 210.177734375 c 0
 270.512695312 180.162109375 247.5 139.5 247.5 94 c 0
 247.5 48.25 267.0625 10.638671875 295.25 2.19140625 c 0
 309.14453125 -1.9716796875 333.25 4.1572265625 352.5 16.748046875 c 0
 382.03515625 36.0673828125 411.727539062 72.75 434.658203125 118.25 c 2
 446.25 141.25 l 1
 446.25 177.5 l 2
 446.25 209.25 445.583007812 215.193359375 440.875 225.375 c 0
 437.869140625 231.875 433.185546875 238.236328125 430.25 239.803710938 c 0
EndSplineSet
EndChar

StartChar: b
Encoding: 67 98 67
Width: 1000
VWidth: 0
Flags: H
LayerCount: 2
Fore
SplineSet
342.5 687.5 m 0
 349.3203125 694.3203125 357.9375 693.75 365.177734375 686 c 0
 371.146484375 679.610351562 371.244140625 678.75 370.896484375 635.5 c 0
 370.397460938 573.403320312 356.099609375 424.75 338.627929688 300 c 0
 335.265625 276 332.5 254.557617188 332.5 252.5 c 0
 332.5 250.4375 338.25 257.75 345.278320312 268.75 c 0
 396.873046875 349.5 456.623046875 395.095703125 502.5 388.7265625 c 0
 528.75 385.08203125 550.50390625 365 562.323242188 333.5 c 0
 581.670898438 281.938476562 578.37109375 188.75 554.791015625 120.75 c 0
 529.477539062 47.75 486.34765625 -8.451171875 436.25 -33.71875 c 0
 382.5 -60.828125 317.690429688 -57.798828125 283.25 -26.568359375 c 0
 277.75 -21.5810546875 272.518554688 -17.5 271.625 -17.5 c 0
 270.75 -17.5 267.708984375 -22 265.036132812 -27.25 c 0
 258.927734375 -39.25 251.140625 -45 241 -45 c 0
 232.776367188 -45 224.293945312 -37.75 221.40234375 -28.25 c 0
 217.787109375 -16.3720703125 228.943359375 22.75 255.122070312 90 c 0
 268.84375 125.25 273.497070312 140.91015625 278.521484375 168.75 c 0
 295.059570312 260.381835938 313.080078125 396.25 323.782226562 510 c 0
 327.333007812 547.75 331.884765625 594.418945312 333.875 613.5 c 0
 335.857421875 632.5 337.5 656.01171875 337.5 665.375 c 0
 337.5 679.125 338.485351562 683.485351562 342.5 687.5 c 0
509 346.04296875 m 0
 496.427734375 353.846679688 483.75 352.47265625 462.25 340.9765625 c 0
 446.634765625 332.626953125 413.794921875 300.75 397.62890625 278.25 c 0
 357.213867188 222 313.280273438 137.456054688 305 100 c 0
 302.100585938 86.8828125 295.776367188 62.875 290.875 46.375 c 2
 282 16.5 l 1
 289 10.6015625 l 2
 300.845703125 0.6201171875 322.25 -8.1572265625 341.5 -10.9267578125 c 0
 364.6328125 -14.255859375 390.5 -9.22265625 416.75 3.71484375 c 0
 468.506835938 29.224609375 510.55859375 95.25 529.026367188 180 c 0
 535.671875 210.5 535.737304688 289.591796875 529.133789062 311.25 c 0
 523.798828125 328.75 516.477539062 341.40234375 509 346.04296875 c 0
EndSplineSet
EndChar

StartChar: c
Encoding: 68 99 68
Width: 1000
VWidth: 0
Flags: H
LayerCount: 2
Fore
SplineSet
493.75 395.907226562 m 0
 516.25 400.73046875 544.62890625 395.051757812 564 381.849609375 c 0
 583.25 368.729492188 604.06640625 324.989257812 597.241210938 312 c 0
 593.248046875 304.400390625 590.25 302.5 582.25 302.5 c 0
 574.241210938 302.5 571.650390625 305.5 558.716796875 329.75 c 0
 545.638671875 354.270507812 538.5 358.75 512.5 358.75 c 0
 497.25 358.75 490.997070312 357.46484375 479 351.866210938 c 0
 426.241210938 327.24609375 362.411132812 252.5 333.514648438 181.5 c 0
 301.361328125 102.5 306.491210938 35.158203125 347.75 -5.3935546875 c 0
 372.926757812 -30.1376953125 408.5 -42.4921875 456 -42.9873046875 c 0
 478.298828125 -43.2197265625 485.75 -42.0224609375 519.75 -32.75 c 0
 541 -26.9541015625 563.291015625 -20.05859375 569.5 -17.3583984375 c 0
 582.75 -11.59765625 584.845703125 -12.482421875 578.130859375 -21 c 0
 559.325195312 -44.8525390625 505.5 -75.189453125 473.25 -80.111328125 c 0
 449.290039062 -83.767578125 408.75 -79.720703125 383 -71.1005859375 c 0
 302.038085938 -44 262.155273438 31 278.5859375 125.25 c 0
 298.983398438 242.25 406.219726562 377.143554688 493.75 395.907226562 c 0
EndSplineSet
EndChar

StartChar: d
Encoding: 69 100 69
Width: 1000
VWidth: 0
Flags: H
LayerCount: 2
Fore
SplineSet
626.75 698 m 0
 632.452148438 704.284179688 646.244140625 703.75 652.5546875 697 c 0
 659.293945312 689.790039062 658.93359375 684.25 650.180664062 660.5 c 0
 612.865234375 559.25 576.813476562 394.25 564.967773438 270.5 c 0
 562.16796875 241.25 562.319335938 238.060546875 567.655273438 214 c 0
 573.919921875 185.75 573.09375 176.286132812 564 172.12890625 c 0
 558.68359375 169.698242188 558.137695312 167.5 556.762695312 143 c 0
 554.938476562 110.5 558.768554688 54.4541015625 563.783203125 40.25 c 0
 579.936523438 -5.5 618.151367188 -49.875 649.25 -58.9931640625 c 0
 668.211914062 -64.552734375 681.25 -62.5537109375 705 -50.4462890625 c 0
 716 -44.837890625 725 -40.6435546875 725 -41.125 c 0
 725 -41.6083984375 713.25 -49.5107421875 698.75 -58.779296875 c 0
 669.5 -77.4765625 655.474609375 -82.822265625 635 -83.080078125 c 0
 602.114257812 -83.494140625 564.875 -50 537.625 4.5 c 0
 522.045898438 35.6572265625 519.206054688 53.5 518.958984375 121.75 c 0
 518.84375 153.75 518.469726562 179.469726562 518.125 179.125 c 0
 517.780273438 178.780273438 511.89453125 162 505.015625 141.75 c 0
 467.5625 31.5 429.1328125 -41.99609375 398.25 -62.4375 c 0
 383 -72.5322265625 370.57421875 -75.716796875 357.75 -72.8173828125 c 0
 313.809570312 -62.8828125 295.295898438 4 305.069335938 117.5 c 0
 314.864257812 231.25 354.891601562 318.135742188 409 343.098632812 c 0
 419.057617188 347.73828125 425.5 348.75 445 348.75 c 0
 466.5 348.75 470.2890625 348.015625 485 341 c 0
 494 336.708007812 506.380859375 328.676757812 512.75 323 c 2
 524.25 312.75 l 1
 529.625 331.25 l 2
 532.591796875 341.459960938 538.390625 370.25 542.567382812 395.5 c 0
 556.336914062 478.75 570.513671875 541.387695312 589.7578125 604 c 0
 601.360351562 641.75 621.005859375 691.668945312 626.75 698 c 0
470.75 306.71875 m 0
 434.002929688 322.185546875 408.0546875 311.25 381.245117188 269 c 0
 354.448242188 226.76953125 338.49609375 161 335.708007812 81.25 c 0
 333.522460938 18.75 339.416992188 -17.6728515625 354.196289062 -33 c 0
 363.145507812 -42.2802734375 370.5 -41.673828125 382.75 -30.6435546875 c 0
 414.856445312 -1.7353515625 453.685546875 83.75 496.482421875 219.75 c 0
 504.5859375 245.5 509.6796875 265.762695312 508.86328125 269 c 0
 506.427734375 278.662109375 483.5 301.352539062 470.75 306.71875 c 0
EndSplineSet
EndChar

StartChar: e
Encoding: 70 101 70
Width: 1000
VWidth: 0
Flags: H
LayerCount: 2
Fore
SplineSet
428.5 361.48828125 m 0
 438.080078125 363.694335938 451 364.510742188 463.25 363.68359375 c 0
 512.75 360.33984375 540 334.4453125 540 290.75 c 0
 540 258 523.768554688 214.440429688 501.618164062 187.75 c 0
 462.092773438 140.12109375 403.25 117.434570312 337.5 124.474609375 c 0
 325.75 125.732421875 315.802734375 126.358398438 315.25 125.875 c 0
 314.69921875 125.392578125 313.709960938 111.75 313.047851562 95.5 c 0
 309.411132812 6.25 345.208984375 -38.66796875 427.25 -47.7958984375 c 0
 471.690429688 -52.740234375 527.5 -42.5439453125 593 -17.5146484375 c 0
 611 -10.63671875 626.42578125 -5 627.25 -5 c 0
 630.583984375 -5 599.75 -33.9921875 585.5 -44.255859375 c 0
 539.078125 -77.693359375 456.75 -92.322265625 396.5 -77.8388671875 c 0
 295.677734375 -53.6025390625 259.845703125 33.75 291.759765625 177.5 c 0
 299.751953125 213.5 307.26171875 234.571289062 323.297851562 266 c 0
 350.595703125 319.5 386.09765625 351.723632812 428.5 361.48828125 c 0
486.5 323.461914062 m 0
 473.956054688 329.369140625 446.75 330.717773438 430.75 326.224609375 c 0
 394.7734375 316.123046875 362.1796875 279.75 339.594726562 224.5 c 0
 330.703125 202.75 318.793945312 157.956054688 321.25 155.5 c 0
 324.75 152 362.25 152.278320312 383.75 155.963867188 c 0
 453.25 167.87890625 505 225.405273438 505 290.75 c 0
 505 306.75 498.833007812 317.654296875 486.5 323.461914062 c 0
EndSplineSet
EndChar

StartChar: f
Encoding: 71 102 71
Width: 1000
VWidth: 0
Flags: H
LayerCount: 2
Fore
SplineSet
437.75 633.375 m 0
 448.873046875 638.936523438 454.25 639.987304688 471.25 639.920898438 c 0
 502.5 639.797851562 520.2421875 628.978515625 534.25390625 601.5 c 0
 539.516601562 591.178710938 540.716796875 584.625 541.875 559.875 c 0
 543.208984375 531.375 543.079101562 530.408203125 537.5 527.427734375 c 0
 527.983398438 522.34375 523.642578125 530 519.314453125 559.5 c 0
 515.8671875 583 514.7109375 586.317382812 507.29296875 594 c 0
 493.237304688 608.557617188 466 611.44921875 450 600.083007812 c 0
 430.393554688 586.154296875 421.831054688 549.25 408.797851562 422.5 c 0
 405.328125 388.75 401.995117188 357.490234375 401.375 352.875 c 2
 400.25 344.5 l 1
 455.75 346.25 l 2
 510.5 347.9765625 511.344726562 347.92578125 518.25 342.53125 c 0
 526.575195312 336.02734375 526.619140625 334.75 518.84375 325.5 c 0
 514.74609375 320.625 508 316.92578125 498.25 314.208007812 c 0
 484.375976562 310.33984375 442.5 305.58984375 411.25 304.33984375 c 2
 396.5 303.75 l 1
 389.627929688 242 l 2
 370.9296875 74 353.932617188 -24.87109375 332.552734375 -90 c 0
 323.279296875 -118.25 297.329101562 -172.124023438 289.75 -178.861328125 c 2
 284.25 -183.75 l 1
 285.75 -162.125 l 2
 286.577148438 -150.206054688 293.586914062 -112 301.370117188 -77 c 0
 325.436523438 31.232421875 335.174804688 91 349.759765625 220 c 0
 353.88671875 256.5 357.754882812 290.459960938 358.375 295.625 c 2
 359.5 305 l 1
 306.875 305 l 1
 254.25 305 l 1
 248.49609375 298.75 l 2
 241.708007812 291.376953125 236 290.818359375 223 296.254882812 c 0
 197.5 306.91796875 193.16796875 328.716796875 214.5 339.028320312 c 0
 222.395507812 342.845703125 234 343.701171875 293.75 344.875 c 2
 363.75 346.25 l 1
 365.56640625 363.75 l 2
 377.735351562 481 384.754882812 534.309570312 391.5078125 560.75 c 0
 401.658203125 600.5 415.510742188 622.255859375 437.75 633.375 c 0
EndSplineSet
EndChar

StartChar: g
Encoding: 72 103 72
Width: 1000
VWidth: 0
Flags: H
LayerCount: 2
Fore
SplineSet
448.125 542.25 m 0
 470.375 553.477539062 491.01171875 562.436523438 493.75 562.057617188 c 0
 499.9140625 561.204101562 501.599609375 552.25 497.478515625 542.25 c 0
 493.325195312 532.17578125 474.25 515.03125 456.25 505.196289062 c 2
 441.25 497 l 1
 457.6328125 480.25 l 2
 487.192382812 450.02734375 496.341796875 422.25 494.356445312 368.75 c 0
 492.353515625 314.75 480.357421875 279.502929688 454.198242188 250.75 c 0
 438.717773438 233.735351562 426 226.254882812 403.75 221.077148438 c 0
 372.478515625 213.799804688 331.25 220.010742188 292.75 237.797851562 c 0
 281.25 243.111328125 270.958007812 247.5 270 247.5 c 0
 267.764648438 247.5 237.342773438 202 230.216796875 188 c 0
 225.381835938 178.5 225.3203125 177.658203125 229.375 176.5 c 0
 231.78125 175.8125 254 174.020507812 278.75 172.517578125 c 0
 409 164.610351562 465.030273438 151.615234375 504.5 120.159179688 c 0
 549.513671875 84.28515625 557.380859375 16.5 522.709960938 -36.75 c 0
 466.064453125 -123.75 337.424804688 -153.642578125 256.75 -98.552734375 c 0
 235.5 -84.0419921875 224.079101562 -71.06640625 214.013671875 -50 c 0
 207.112304688 -35.5556640625 206.25 -31.25 206.25 -11.25 c 0
 206.25 4.75 207.624023438 14.861328125 211.0078125 23.75 c 0
 224.36328125 58.837890625 264.5 101.950195312 308.25 128.200195312 c 2
 322.5 136.75 l 1
 297 138.450195312 l 2
 209.75 144.266601562 195 149.479492188 195 174.5 c 0
 195 186.634765625 201.637695312 199.25 227.48828125 236.25 c 2
 247.75 265.25 l 1
 230.743164062 283.25 l 2
 193.267578125 322.916015625 182.42578125 366.5 197.66015625 416.25 c 0
 202.40625 431.75 216.205078125 456.708984375 225.717773438 467 c 0
 239.470703125 481.879882812 267.5 499.732421875 291.25 508.741210938 c 0
 326.01171875 521.926757812 351.5 525.114257812 399.25 522.245117188 c 0
 405.241210938 521.885742188 418.625 527.364257812 448.125 542.25 c 0
377.75 487.444335938 m 0
 349.811523438 492.688476562 324.5 489.96484375 295 478.540039062 c 0
 263.75 466.436523438 256.803710938 461.9140625 244.638671875 445.75 c 0
 208.702148438 398 212.467773438 343.017578125 254.5 301.771484375 c 2
 266.75 289.75 l 1
 274.5 294.178710938 l 2
 285.177734375 300.280273438 291.25 296.5 291.25 283.75 c 0
 291.25 274.56640625 291.75 274.015625 306.25 267.20703125 c 0
 339 251.830078125 378.580078125 247.360351562 404.75 256.083007812 c 0
 436.216796875 266.572265625 456.5546875 301.75 462.66015625 356.25 c 0
 467.729492188 401.5 457.297851562 435.830078125 431.25 459.622070312 c 0
 415.198242188 474.283203125 396.75 483.876953125 377.75 487.444335938 c 0
397.75 127.255859375 m 0
 349.25 136.067382812 356.818359375 138.037109375 323.75 108.001953125 c 0
 266.75 56.2294921875 241.911132812 21.4130859375 241.705078125 -7 c 0
 241.3359375 -58.044921875 304.25 -96.3994140625 373.75 -87.498046875 c 0
 416 -82.0869140625 446.240234375 -67.841796875 474 -40.2744140625 c 0
 495.3203125 -19.1005859375 507.6640625 5.25 509.370117188 29.5 c 0
 513.083007812 82.2978515625 478.5 112.5859375 397.75 127.255859375 c 0
EndSplineSet
EndChar

StartChar: h
Encoding: 73 104 73
Width: 1000
VWidth: 0
Flags: H
LayerCount: 2
Fore
SplineSet
275.5 539.5 m 0
 277.13671875 541.13671875 282.25 542.5 286.75 542.5 c 0
 300.76953125 542.5 303.213867188 535.5 304.556640625 491.5 c 0
 306.297851562 434.439453125 297.588867188 327 279.912109375 187.5 c 0
 275.826171875 155.25 272.5 128.3828125 272.5 127.625 c 0
 272.5 126.868164062 279.32421875 138.5 287.680664062 153.5 c 0
 307.875 189.75 317.435546875 204.52734375 336.848632812 229.5 c 0
 386.017578125 292.75 433.6640625 297.115234375 451.46484375 240 c 0
 455.064453125 228.450195312 456.0546875 209.25 457.657226562 120 c 0
 459.650390625 9 461.790039062 -13.5634765625 471.982421875 -31 c 0
 478.506835938 -42.1630859375 486.25 -45.5029296875 502.25 -44.0576171875 c 0
 516.426757812 -42.77734375 530.5 -36.505859375 581.25 -8.8486328125 c 0
 597.75 0.142578125 612.037109375 7.5 613 7.5 c 0
 616.735351562 7.5 614.884765625 -1.75 608.6484375 -14.25 c 0
 584.950195312 -61.75 518.588867188 -95.3115234375 474.5 -82.0947265625 c 0
 461.359375 -78.1552734375 443.567382812 -62 436.125 -47.25 c 0
 423.094726562 -21.4248046875 422.114257812 -12 420.025390625 107.5 c 0
 417.61328125 245.5 416.4765625 251.248046875 394.75 235.291015625 c 0
 370.0234375 217.131835938 339.771484375 172.75 305.938476562 105 c 0
 282.592773438 58.25 249.915039062 -17.0107421875 243.741210938 -38.25 c 0
 237.055664062 -61.25 221.463867188 -69.2138671875 208.5 -56.25 c 0
 200.580078125 -48.330078125 200.390625 -50.25 217.110351562 31.25 c 0
 243.779296875 161.25 272.5 413.8984375 272.5 518.5 c 0
 272.5 529.25 273.708007812 537.708007812 275.5 539.5 c 0
446.875 797 m 0
 441.875 799.444335938 442.5 799.75 452.5 799.75 c 0
 462.5 799.75 463.125 799.444335938 458.125 797 c 0
 454.125 795.044921875 450.875 795.044921875 446.875 797 c 0
EndSplineSet
EndChar

StartChar: i
Encoding: 74 105 74
Width: 1000
VWidth: 0
Flags: H
LayerCount: 2
Fore
SplineSet
229.647460938 310.75 m 0
 237.959960938 320.348632812 255.272460938 313.25 258.913085938 298.75 c 0
 262.28515625 285.319335938 257.563476562 232 247.734375 172.5 c 0
 231.048828125 71.5 224.524414062 3.48828125 228.475585938 -28.25 c 0
 230.032226562 -40.75 230.92578125 -42.5 235.75 -42.5 c 0
 238.775390625 -42.5 248 -37.9404296875 256.25 -32.3662109375 c 0
 284 -13.6201171875 297.5 -8.263671875 297.5 -16 c 0
 297.5 -25.3662109375 286.025390625 -48.5 275.674804688 -60 c 0
 256.099609375 -81.75 235.719726562 -88.826171875 216.75 -80.4599609375 c 0
 194.790039062 -70.7744140625 188.6171875 -54.25 189.024414062 -6.25 c 0
 189.3828125 35.99609375 194.255859375 77.75 208.86328125 163.75 c 0
 223.38671875 249.25 225.04296875 261.450195312 225.426757812 285.75 c 0
 225.655273438 300.25 226.890625 307.567382812 229.647460938 310.75 c 0
257 565.75 m 0
 261.403320312 570.322265625 266 572.5 271.25 572.5 c 0
 281 572.5 285.045898438 568.572265625 285.159179688 559 c 0
 285.208984375 554.75 286.8671875 548.427734375 288.831054688 545 c 0
 294.84375 534.50390625 293.434570312 515.5 285.381835938 498.5 c 0
 277.447265625 481.75 270.157226562 475 260 475 c 0
 247.266601562 475 237.5 494.75 237.5 520.5 c 0
 237.5 533 247.25 555.625 257 565.75 c 0
EndSplineSet
EndChar

StartChar: j
Encoding: 75 106 75
Width: 1000
VWidth: 0
Flags: H
LayerCount: 2
Fore
SplineSet
445.5 396.176757812 m 0
 456.09375 405.102539062 466.848632812 404 474.040039062 393.25 c 0
 484.364257812 377.819335938 486.25 351.25 486.25 221.25 c 0
 486.25 122.25 485.458007812 94.03125 481.721679688 60 c 0
 463.830078125 -103 435.203125 -169.403320312 380.75 -174.21484375 c 0
 353 -176.666992188 321.716796875 -157.857421875 307.629882812 -130.25 c 0
 302.655273438 -120.5 282.5 -66.5634765625 282.5 -63 c 0
 282.5 -62.1669921875 289.055664062 -71.5 297.25 -84 c 0
 310.688476562 -104.5 313.755859375 -107.533203125 331.75 -118.127929688 c 0
 363.25 -136.672851562 372.658203125 -138.72265625 386.75 -130.111328125 c 0
 429.705078125 -103.861328125 458.125 88.75 450.508789062 302 c 0
 448.383789062 361.5 447.927734375 365.590820312 442.810546875 371 c 0
 435.04296875 379.211914062 436 388.172851562 445.5 396.176757812 c 0
456.375 630.125 m 0
 457.27734375 631.583007812 462 632.399414062 467 631.9609375 c 0
 481.73046875 630.66796875 486.358398438 621.75 485.922851562 595.5 c 0
 485.348632812 561 475.067382812 540 458.75 540 c 0
 448.624023438 540 443.940429688 545.25 437.563476562 563.75 c 0
 426.1015625 597 428.953125 616.766601562 446.25 623.963867188 c 0
 451 625.939453125 455.466796875 628.658203125 456.375 630.125 c 0
EndSplineSet
EndChar

StartChar: k
Encoding: 76 107 76
Width: 1000
VWidth: 0
Flags: H
LayerCount: 2
Fore
SplineSet
304.630859375 693.25 m 0
 311.235351562 700.90625 323.287109375 698.25 328.448242188 688 c 0
 334.396484375 676.1875 335.142578125 664 332.47265625 622.25 c 0
 329.684570312 578.642578125 314.47265625 422.25 302.805664062 317.25 c 0
 298.916992188 282.25 296.109375 253.30078125 296.549804688 252.75 c 0
 297.840820312 251.13671875 334.5 277.755859375 358 297.37109375 c 0
 405.75 337.227539062 452.5 393.0703125 452.5 410.25 c 0
 452.5 418.5 460.065429688 427.5 467 427.5 c 0
 469.638671875 427.5 474.75 425.169921875 478.5 422.256835938 c 0
 492.278320312 411.553710938 485.77734375 386.5 460.010742188 351 c 0
 435.33203125 317 346.668945312 237.604492188 315 221.147460938 c 0
 310.75 218.938476562 307.5 216.491210938 307.5 215.5 c 0
 307.5 212.9375 351.33203125 158.5 378.154296875 127.75 c 0
 434.591796875 63.048828125 491.5 5.765625 573.75 -69.13671875 c 0
 614.75 -106.473632812 615.625976562 -108.346679688 589 -101.739257812 c 0
 563.75 -95.47265625 537.755859375 -83.4873046875 519.25 -69.578125 c 0
 468.77734375 -31.64453125 379.40234375 60.5 313.544921875 142.5 c 0
 300.092773438 159.25 288.719726562 172.192382812 288.0625 171.5 c 0
 286.362304688 169.709960938 276.262695312 78.75 268.7421875 -2.5 c 0
 261.4296875 -81.5 259.172851562 -95.2236328125 252.5 -101.252929688 c 0
 245.75 -107.352539062 233.490234375 -107.0703125 227 -100.666992188 c 0
 220.358398438 -94.11328125 218.751953125 -112.5 252.603515625 192.5 c 0
 283.930664062 474.75 297.279296875 606.469726562 299.220703125 652.5 c 0
 300.370117188 679.75 301.713867188 689.8671875 304.630859375 693.25 c 0
EndSplineSet
EndChar

StartChar: l
Encoding: 77 108 77
Width: 1000
VWidth: 0
Flags: H
LayerCount: 2
Fore
SplineSet
311.25 656 m 0
 321.936523438 666.686523438 342.041992188 655.5 347.196289062 636 c 0
 358.885742188 591.772460938 345.768554688 399 310.893554688 102.5 c 0
 303.395507812 38.75 299.989257812 -56.30859375 304.6953125 -70.5 c 0
 309.330078125 -84.4755859375 317 -86.470703125 351 -82.54296875 c 0
 378.75 -79.337890625 392.5 -80.15234375 392.5 -85 c 0
 392.5 -90.9375 373.75 -107.404296875 359.5 -113.98046875 c 0
 346.309570312 -120.068359375 340.5 -121.25 323.75 -121.25 c 0
 307 -121.25 301.962890625 -120.248046875 292.75 -115.083007812 c 0
 278.782226562 -107.252929688 268.572265625 -91.25 264.78515625 -71.25 c 0
 259.762695312 -44.73046875 263.696289062 36.5 274.772460938 135 c 0
 286.748046875 241.5 300.806640625 381.96484375 306.55078125 452.5 c 0
 310.907226562 506 312.4453125 626.891601562 308.971679688 642.75 c 0
 307.438476562 649.75 307.944335938 652.694335938 311.25 656 c 0
EndSplineSet
EndChar

StartChar: m
Encoding: 78 109 78
Width: 1000
VWidth: 0
Flags: H
LayerCount: 2
Fore
SplineSet
402.25 349.13671875 m 0
 416.5 353.022460938 414.783203125 352.950195312 425 350.09765625 c 0
 450.971679688 342.846679688 464.8203125 304.25 464.954101562 238.75 c 2
 465 216.25 l 1
 481.513671875 247.5 l 2
 525.110351562 330 544.607421875 352.5 572.5 352.5 c 0
 591.948242188 352.5 606.977539062 339.75 615.23046875 316.25 c 0
 624.640625 289.456054688 625.772460938 213.75 617.809570312 143.75 c 0
 616.397460938 131.3359375 614.490234375 105 613.555664062 85 c 0
 610.212890625 13.5 619.784179688 -8.423828125 668 -39.716796875 c 0
 680.75 -47.9921875 684.325195312 -51.5625 682.30078125 -54 c 0
 678.384765625 -58.71484375 658 -62.89453125 647.75 -61.083984375 c 0
 618.055664062 -55.837890625 587.3671875 -19.25 579.951171875 19.75 c 0
 576.26953125 39.1103515625 576.912109375 107.75 581.181640625 151.25 c 0
 591.217773438 253.5 587.202148438 317.5 570.75 317.5 c 0
 559.0078125 317.5 529.553710938 271.75 496.711914062 202.5 c 0
 465.293945312 136.25 460.376953125 121.596679688 451.076171875 66.5 c 0
 439.090820312 -4.5 433.03125 -29.4951171875 426.106445312 -36.5 c 0
 419.045898438 -43.642578125 407.75 -44.2001953125 399.75 -37.7998046875 c 0
 394.25 -33.400390625 393.784179688 -31.25 394.1640625 -12 c 0
 394.634765625 11.8974609375 398.142578125 29.75 411.995117188 78.75 c 0
 424.43359375 122.75 428.219726562 156.5 428.12109375 222.5 c 0
 428.044921875 273.25 424.119140625 306.880859375 417.5 313.5 c 0
 413.016601562 317.983398438 401.76953125 311.5 391.913085938 298.75 c 0
 386.598632812 291.875 370.05859375 261.5 355.157226562 231.25 c 0
 293.951171875 107 261.927734375 21.4404296875 253.631835938 -40 c 0
 251.504882812 -55.75 249.178710938 -72.48046875 248.486328125 -77 c 0
 245.346679688 -97.5 219.643554688 -101.860351562 213.115234375 -83 c 0
 210.565429688 -75.6328125 211.436523438 -63.75 217.920898438 -17.5 c 0
 220.307617188 -0.474609375 221.25 37.75 221.25 117.5 c 0
 221.25 235 219.130859375 265.692382812 207.681640625 314 c 0
 202.409179688 336.25 203.861328125 344.033203125 213.75 346.521484375 c 0
 230.838867188 350.822265625 242.791015625 326.75 252.364257812 268.75 c 0
 256.258789062 245.15234375 259.989257812 187.25 260.255859375 146.25 c 0
 260.48828125 110.5 260.676757812 109.158203125 264.294921875 117.5 c 0
 303.44140625 207.75 340.905273438 284.732421875 358.583007812 311.25 c 0
 374.083007812 334.5 385.7734375 344.642578125 402.25 349.13671875 c 0
EndSplineSet
EndChar

StartChar: n
Encoding: 79 110 79
Width: 1000
VWidth: 0
Flags: H
LayerCount: 2
Fore
SplineSet
425 373.849609375 m 0
 461.528320312 381.155273438 483.828125 361.75 492.624023438 315 c 0
 497.10546875 291.182617188 496.47265625 202.25 491.380859375 140.25 c 0
 485.671875 70.75 486.6875 13.1240234375 493.875 -1.25 c 0
 502.12109375 -17.7421875 512 -22.5 538 -22.5 c 0
 550 -22.5 560 -23.5224609375 560 -24.75 c 0
 560 -28.365234375 541.75 -41.98828125 529.5 -47.517578125 c 0
 500.284179688 -60.7060546875 470.895507812 -45.75 457.252929688 -10.75 c 0
 449.202148438 9.9052734375 447.80078125 73 453.68359375 150 c 0
 456.643554688 188.75 457.685546875 223.739257812 457 261.375 c 0
 456.09765625 310.875 455.475585938 317.401367188 450.650390625 328 c 0
 444.0546875 342.487304688 437.25 344.881835938 422 338.08203125 c 0
 388.921875 323.33203125 341.33203125 247.5 306.4765625 154 c 0
 298.665039062 133.046875 296.487304688 122.5 292.27734375 85.25 c 0
 284.76171875 18.75 275.684570312 -28.931640625 266.194335938 -51.75 c 0
 259.540039062 -67.75 238.297851562 -67.908203125 232.703125 -52 c 0
 227.954101562 -38.4951171875 238.189453125 28.75 255.228515625 96 c 0
 264.73046875 133.5 264.197265625 276.819335938 254.446289062 306.5 c 0
 251.350585938 315.921875 247.5 318.9296875 230.75 325.006835938 c 0
 224 327.456054688 222.5 329.318359375 222.5 335.25 c 0
 222.5 344.041015625 228.5 347.5 243.75 347.5 c 0
 261.659179688 347.5 274.29296875 339 283.509765625 320.75 c 0
 288.779296875 310.317382812 295 273.5 295 252.75 c 0
 295 243.75 295.681640625 232.045898438 296.5 227 c 0
 298 217.75 298 217.75 313.51171875 248.25 c 0
 354.961914062 329.75 387.439453125 366.337890625 425 373.849609375 c 0
EndSplineSet
EndChar

StartChar: o
Encoding: 80 111 80
Width: 1000
VWidth: 0
Flags: H
LayerCount: 2
Fore
SplineSet
393.5 331.557617188 m 0
 413.831054688 335.467773438 441.25 334.317382812 463.25 328.631835938 c 0
 511.31640625 316.209960938 547.147460938 276.75 563.024414062 218.75 c 0
 567.940429688 200.79296875 568.487304688 192.75 568.375 140 c 0
 568.26953125 90.5 567.39453125 76.56640625 562.81640625 51.5 c 0
 543.8671875 -52.25 495.368164062 -120.608398438 429.75 -136.055664062 c 0
 408.038085938 -141.166992188 392 -140.889648438 369 -135.005859375 c 0
 308.305664062 -119.479492188 259.650390625 -66.5 240.650390625 4.75 c 0
 235.025390625 25.8408203125 234.25 33.75 234.25 70 c 0
 234.25 101 235.56640625 118.518554688 239.546875 140.5 c 0
 245.522460938 173.5 261.66796875 223.956054688 273.306640625 246 c 0
 294.838867188 286.784179688 344.5 322.134765625 393.5 331.557617188 c 0
449.75 296.19140625 m 0
 412.5 304.956054688 376.411132812 297.598632812 340 273.818359375 c 0
 318.13671875 259.538085938 312.1796875 253 300.533203125 230.5 c 0
 276.169921875 183.430664062 266.458007812 139.25 266.3515625 75 c 0
 266.26171875 21.25 268.619140625 9.2158203125 286.184570312 -26.25 c 0
 325.186523438 -105 406.323242188 -130.961914062 464.5 -83.3076171875 c 0
 515.063476562 -41.8896484375 544.01171875 57.25 537.224609375 165.75 c 0
 532.595703125 239.75 503.17578125 283.620117188 449.75 296.19140625 c 0
EndSplineSet
EndChar

StartChar: p
Encoding: 81 112 81
Width: 1000
VWidth: 0
Flags: H
LayerCount: 2
Fore
SplineSet
457.25 516.693359375 m 0
 472.713867188 521.021484375 496 519.231445312 511.75 512.504882812 c 0
 539.045898438 500.84765625 562.221679688 467.5 571.6953125 426.25 c 0
 577.208007812 402.25 577.895507812 339.604492188 572.903320312 316.25 c 0
 560.504882812 258.25 536.516601562 213.975585938 494.884765625 172.25 c 0
 458.986328125 136.270507812 425.5 117.301757812 382.5 108.586914062 c 0
 362.5 104.533203125 338.365234375 104.708984375 319.75 109.044921875 c 0
 313.5 110.5 313.5 110.5 310.31640625 84.75 c 0
 300.2109375 3 269.579101562 -146.67578125 258.642578125 -167.75 c 0
 250.338867188 -183.75 236.243164062 -186.743164062 224.5 -175 c 2
 216.75 -167.25 l 1
 218.25 -105.5 l 2
 219.318359375 -61.5 221.279296875 -33.689453125 225.069335938 -8.75 c 0
 235.708984375 61.25 253.946289062 139.75390625 275.424804688 208 c 2
 288.25 248.75 l 1
 289.456054688 318 l 2
 290.614257812 384.5 288.138671875 429.061523438 282.469726562 443.75 c 0
 281.280273438 446.830078125 277 451.067382812 273.25 452.875 c 0
 269.3203125 454.76953125 265.153320312 459.375 263.75 463.375 c 0
 261.556640625 469.625 262.109375 471.231445312 268.25 476.454101562 c 0
 276.821289062 483.744140625 290.75 484.29296875 301.5 477.763671875 c 0
 316.141601562 468.87109375 325.520507812 437.75 328.928710938 386.75 c 2
 330.75 359.5 l 1
 349.314453125 395.25 l 2
 388.78125 471.25 419.873046875 506.232421875 457.25 516.693359375 c 0
503.5 474.111328125 m 0
 490.82421875 483.88671875 470.75 484.965820312 453.75 476.784179688 c 0
 421.463867188 461.247070312 380.41015625 397.25 343.709960938 305.25 c 2
 329.25 269 l 1
 324.75 215.125 l 2
 322.264648438 185.375 319.578125 156.4921875 318.75 150.625 c 2
 317.25 140 l 1
 334.25 140.032226562 l 2
 404.522460938 140.166015625 472.603515625 188.75 511.118164062 266.25 c 0
 526.555664062 297.313476562 531.40625 314 534.952148438 348.25 c 0
 537.696289062 374.75 534.994140625 413.430664062 529.03125 433 c 0
 523.8515625 450 513.821289062 466.150390625 503.5 474.111328125 c 0
EndSplineSet
EndChar

StartChar: q
Encoding: 82 113 82
Width: 1000
VWidth: 0
Flags: H
LayerCount: 2
Fore
SplineSet
507.5 494.299804688 m 0
 519.375 500.094726562 532.5 490.75 532.5 476.5 c 0
 532.5 472.099609375 527.549804688 457.25 521.5 443.5 c 0
 501.233398438 397.438476562 489.088867188 355.75 475.330078125 285 c 0
 465.216796875 233 455.928710938 167.669921875 451.516601562 117.5 c 0
 443.03125 21 443.829101562 -17.5048828125 456.122070312 -104.5 c 0
 462.375 -148.75 461.9375 -160.641601562 454 -162.150390625 c 0
 446.120117188 -163.647460938 433.094726562 -146.25 426.559570312 -125.5 c 0
 405.393554688 -58.2939453125 402.887695312 41.75 419.069335938 173.5 c 0
 421.21875 191 422.376953125 206.06640625 421.625 206.75 c 0
 420.875 207.431640625 418.33984375 204.25 416.046875 199.75 c 0
 408.151367188 184.25 388.001953125 155.932617188 376.377929688 144 c 0
 362.881835938 130.14453125 342.75 120 328.75 120 c 0
 299.794921875 120 273.897460938 149.5 260.713867188 197.5 c 0
 254.500976562 220.118164062 254.528320312 289.5 260.760742188 320.75 c 0
 273.674804688 385.5 306.170898438 448.827148438 339.5 474.196289062 c 0
 370.331054688 497.6640625 419.5 493.64453125 450.75 465.1015625 c 0
 458 458.48046875 466.151367188 448.981445312 468.75 444.125 c 2
 473.5 435.25 l 1
 487.375 463.25 l 2
 496.9140625 482.5 503.203125 492.203125 507.5 494.299804688 c 0
412.5 450.833984375 m 0
 398.5 456.55859375 380.0078125 457.80859375 368.75 453.790039062 c 0
 338.215820312 442.892578125 300.221679688 374 288.897460938 309 c 0
 283.932617188 280.5 283.861328125 228.916015625 288.7578125 208 c 0
 296.716796875 174 312.306640625 152.5 329 152.5 c 0
 346.997070312 152.5 375.6875 188.5 405.708007812 248.75 c 0
 440.336914062 318.25 461.147460938 376.618164062 455.446289062 388.25 c 0
 453.982421875 391.235351562 452 397.75 451.109375 402.5 c 0
 447.640625 421 429.293945312 443.967773438 412.5 450.833984375 c 0
EndSplineSet
EndChar

StartChar: r
Encoding: 83 114 83
Width: 1000
VWidth: 0
Flags: H
LayerCount: 2
Fore
SplineSet
488.5 502.53125 m 0
 509 507.892578125 533.897460938 508.728515625 548 504.529296875 c 0
 557.5 501.700195312 580 484.27734375 580 479.75 c 0
 580 478.508789062 573.5 477.5 565.5 477.5 c 0
 546.5 477.5 511.627929688 473.127929688 497.5 468.973632812 c 0
 437.313476562 451.279296875 388.087890625 391 354.408203125 293.75 c 0
 346.060546875 269.647460938 345.688476562 267 344.029296875 220 c 0
 341.25 141.25 332.03515625 53.0068359375 323.430664062 22.75 c 0
 318.595703125 5.75 310.532226562 -2.5 298.75 -2.5 c 0
 277.162109375 -2.5 271.129882812 17.25 273.169921875 81.25 c 0
 274.745117188 130.67578125 280.461914062 166.75 296.740234375 230 c 2
 308 273.75 l 1
 306.419921875 323.75 l 2
 303.100585938 428.75 296.9453125 449.573242188 266.25 459.647460938 c 0
 255.75 463.09375 253.625976562 464.830078125 252.974609375 470.5 c 0
 251.140625 486.448242188 278.75 489.689453125 301.75 476.225585938 c 0
 321.573242188 464.622070312 333.021484375 440.5 337.926757812 400 c 0
 342.62109375 361.25 342.108398438 361.5546875 357.296875 388.5 c 0
 391.680664062 449.5 437.286132812 489.13671875 488.5 502.53125 c 0
EndSplineSet
EndChar

StartChar: s
Encoding: 84 115 84
Width: 1000
VWidth: 0
Flags: H
LayerCount: 2
Fore
SplineSet
399.5 452.373046875 m 0
 436.5 456.561523438 475.0078125 449.858398438 498 435.227539062 c 0
 507.916015625 428.916992188 511.388671875 424.375 520.25 406.125 c 0
 526.076171875 394.125 531.306640625 379.66015625 532 373.625 c 0
 533.12109375 363.875 532.577148438 362.443359375 526.75 359.787109375 c 0
 517.490234375 355.565429688 514.485351562 358.75 501.30859375 386.75 c 0
 490.3671875 410 490.095703125 410.3203125 475.75 416.892578125 c 0
 456.661132812 425.637695312 417.25 427.833984375 392.5 421.530273438 c 0
 359 412.999023438 325.297851562 392.337890625 316.192382812 374.75 c 0
 307.39453125 357.756835938 315.5 338.713867188 341.5 315.2890625 c 0
 349.6328125 307.961914062 377 286.807617188 402.5 268.138671875 c 0
 466.5 221.28125 488.010742188 203.825195312 511.418945312 179.75 c 0
 551.033203125 139.006835938 561.25 116.25 561.25 68.75 c 0
 561.25 39 561.098632812 38.1943359375 552.09765625 20 c 0
 535.385742188 -13.7783203125 505.5 -38.0048828125 469 -47.361328125 c 0
 445.75 -53.3212890625 429.486328125 -53.669921875 408.25 -48.6630859375 c 0
 366.034179688 -38.7109375 327.629882812 -4.75 305.725585938 42 c 0
 290.965820312 73.5 287.145507812 105.046875 294.826171875 132 c 2
 296.75 138.75 l 1
 299.375 132.5 l 2
 300.822265625 129.0546875 305.49609375 117.5 309.791015625 106.75 c 0
 332.763671875 49.25 361.916992188 11.7939453125 397.25 -5.619140625 c 0
 412.360351562 -13.0654296875 415.75 -13.75 437.5 -13.75 c 0
 459.25 -13.75 462.639648438 -13.068359375 477.75 -5.65234375 c 0
 498.5 4.5302734375 520.02734375 26.7080078125 525.946289062 44 c 0
 534.588867188 69.25 529.57421875 104.521484375 513.897460938 128.75 c 0
 495.125 157.76171875 473.5 177.0625 387.5 241.5625 c 0
 299 307.9375 280.7265625 329.211914062 282.975585938 363.25 c 0
 283.537109375 371.75 286.15234375 383.266601562 288.765625 388.75 c 0
 302.6171875 417.814453125 353.75 447.193359375 399.5 452.373046875 c 0
EndSplineSet
EndChar

StartChar: t
Encoding: 85 116 85
Width: 1000
VWidth: 0
Flags: H
LayerCount: 2
Fore
SplineSet
422.5 602.5 m 0
 432.4921875 612.4921875 445.977539062 607.25 450.157226562 591.75 c 0
 453.569335938 579.096679688 452.553710938 564.5 441.094726562 461.5 c 0
 436.366210938 419 433.0625 383.6875 433.75 383 c 0
 435.853515625 380.896484375 485.75 390.534179688 517 399.079101562 c 0
 561.25 411.1796875 564.805664062 411.561523438 573 405.095703125 c 0
 586.262695312 394.630859375 581 379.546875 560.75 369.982421875 c 0
 545.06640625 362.575195312 491 348.995117188 455.5 343.546875 c 0
 439.25 341.052734375 427.5 338.095703125 427.5 336.5 c 0
 427.5 334.9921875 425.807617188 316.25 423.751953125 295 c 0
 418.0703125 236.25 416.272460938 161.029296875 419.719726562 126.25 c 0
 428.34375 39.25 451.01953125 -10.123046875 482.25 -9.9013671875 c 0
 499.34765625 -9.779296875 511.862304688 -1.25 546.295898438 33.75 c 0
 564.497070312 52.25 580.85546875 67.5 582.5 67.5 c 0
 588.3203125 67.5 583.173828125 42.5 573.029296875 21.5 c 0
 550.084960938 -26 518.513671875 -50.4296875 480.25 -50.29296875 c 0
 428.275390625 -50.1064453125 392.598632812 6 382.296875 103.75 c 0
 378.64453125 138.409179688 380.892578125 224 387.155273438 288.75 c 0
 389.694335938 315 391.576171875 336.473632812 391.361328125 336.75 c 0
 390.783203125 337.493164062 331.75 338.059570312 328.75 337.3515625 c 0
 323 335.993164062 304.155273438 341.107421875 298.5 345.560546875 c 0
 289.760742188 352.442382812 290 365.1953125 299 372.2265625 c 0
 304.72265625 376.697265625 309.25 377.5 328.75 377.5 c 0
 341.5 377.5 361.833007812 378.224609375 374.375 379.125 c 2
 397 380.75 l 1
 398.75 398.5 l 2
 399.715820312 408.29296875 404.310546875 448.75 409 488.75 c 0
 413.689453125 528.75 417.5 569.375 417.5 579.375 c 0
 417.5 594.125 418.430664062 598.430664062 422.5 602.5 c 0
EndSplineSet
EndChar

StartChar: u
Encoding: 86 117 86
Width: 1000
VWidth: 0
Flags: H
LayerCount: 2
Fore
SplineSet
618.5 318.921875 m 0
 624.569335938 323.189453125 631 323.404296875 638.25 319.58203125 c 0
 650.998046875 312.860351562 652.63671875 304 645.108398438 282.5 c 0
 630.478515625 240.715820312 623.75 178.5 623.75 85 c 0
 623.75 -2 625.694335938 -16.072265625 642.611328125 -51.5 c 0
 653.594726562 -74.5 664.874023438 -85.951171875 680.5 -89.962890625 c 0
 706.25 -96.57421875 710.536132812 -101.508789062 699.5 -111.837890625 c 0
 688.216796875 -122.399414062 673 -124.98828125 654.25 -119.536132812 c 0
 640.268554688 -115.471679688 615.983398438 -91 606.579101562 -71.5 c 0
 586.453125 -29.76953125 581.469726562 0.25 581.345703125 80.5 c 0
 581.283203125 121 580.44140625 140.505859375 578.91796875 136.75 c 0
 572.041015625 119.790039062 528.493164062 31.5 517.263671875 11.75 c 0
 478.174804688 -57 453.6484375 -82.15234375 428.5 -79.2783203125 c 0
 415.018554688 -77.73828125 408.528320312 -72.5 401.51171875 -57.5 c 0
 396.342773438 -46.44921875 396.265625 -43.75 397.125 95 c 0
 397.724609375 191.75 397.094726562 241.723632812 395.125 253.625 c 0
 393.552734375 263.125 391.91015625 271.33984375 391.5 271.75 c 0
 391.078125 272.171875 387.25 271.296875 382.75 269.75 c 0
 376 267.4296875 374.0078125 267.67578125 370 271.32421875 c 0
 362.181640625 278.442382812 363.75 287.830078125 374.5 298.260742188 c 0
 387.25 310.633789062 395.532226562 313.407226562 406.25 308.89453125 c 0
 431.975585938 298.0625 438.4765625 243.75 435.740234375 62.5 c 2
 434.25 -36.25 l 1
 441 -30.0400390625 l 2
 450.715820312 -21.1015625 476.994140625 19.25 497.1953125 56.25 c 0
 517.864257812 94.107421875 548.305664062 160.5 577.432617188 231.25 c 0
 606.044921875 300.75 612.62109375 314.788085938 618.5 318.921875 c 0
EndSplineSet
EndChar

StartChar: v
Encoding: 87 118 87
Width: 1000
VWidth: 0
Flags: H
LayerCount: 2
Fore
SplineSet
291.666992188 328 m 0
 294.017578125 330.590820312 299.25 332.5 304 332.5 c 0
 315.895507812 332.5 325.484375 320 345.232421875 278.75 c 0
 374.672851562 217.255859375 396.12890625 153.25 432.641601562 18 c 0
 442.765625 -19.5 451.78515625 -50 452.75 -50 c 0
 454.643554688 -50 495.6484375 34.25 530.623046875 110 c 0
 553.868164062 160.344726562 573.602539062 208.25 605.084960938 290.75 c 0
 614.243164062 314.75 618.896484375 324.146484375 620.375 321.625 c 0
 621.534179688 319.647460938 623.203125 308 624.045898438 296 c 0
 627.422851562 247.946289062 605.771484375 174 556.04296875 63.75 c 0
 535.069335938 17.25 481.170898438 -91.0859375 474.450195312 -100.25 c 0
 464.18359375 -114.25 451.106445312 -118.178710938 437.75 -111.276367188 c 0
 423.71875 -104.025390625 417.3125 -87.75 394.936523438 -2.5 c 0
 359.173828125 133.75 331.866210938 215.779296875 298.728515625 286.5 c 0
 286.545898438 312.5 285.133789062 320.799804688 291.666992188 328 c 0
EndSplineSet
EndChar

StartChar: w
Encoding: 88 119 88
Width: 1000
VWidth: 0
Flags: H
LayerCount: 2
Fore
SplineSet
752.258789062 343 m 0
 752.91796875 347.446289062 765.5 344.479492188 772.5 338.227539062 c 0
 783.1171875 328.744140625 785.639648438 315.75 782.395507812 287.25 c 0
 778.743164062 255.172851562 771.747070312 224.5 754.8515625 166.5 c 0
 725.06640625 64.25 691.740234375 -26.9267578125 676.541992188 -47.75 c 0
 654.837890625 -77.486328125 626.569335938 -72 608.271484375 -34.5 c 0
 584.458007812 14.3017578125 554.516601562 128 550.86328125 183.5 c 0
 549.826171875 199.25 548.450195312 206.571289062 547.009765625 204 c 0
 542.608398438 196.139648438 519.333984375 132.5 497.180664062 67.75 c 0
 462.369140625 -34 454.704101562 -47.5 431.75 -47.5 c 0
 398.06640625 -47.5 384.806640625 -11.5 357.439453125 154.25 c 0
 349.1015625 204.75 338.810546875 263.955078125 334.625 285.5 c 0
 327.971679688 319.75 327.424804688 325.641601562 330.333007812 331.75 c 0
 334.171875 339.810546875 344 343.9453125 353.5 341.49609375 c 0
 366.579101562 338.124023438 373.048828125 313.25 394.920898438 182.25 c 0
 409.0703125 97.5 420.151367188 41.2080078125 427.10546875 18.75 c 2
 431.75 3.75 l 1
 438.692382812 18.75 l 2
 446.357421875 35.3095703125 466.232421875 87.25 485.567382812 141.25 c 0
 516.986328125 229 550.995117188 307.640625 559.5 312.208007812 c 0
 567.5 316.504882812 573.927734375 315.557617188 581.75 308.930664062 c 2
 588.75 303 l 1
 590.264648438 236 l 2
 591.841796875 166.25 593.327148438 153.959960938 606.547851562 101.25 c 0
 614.69921875 68.75 638.969726562 -5.2236328125 643.541015625 -11.5 c 0
 646.784179688 -15.953125 647.32421875 -15.5 652.18359375 -4.25 c 0
 670.389648438 37.8984375 699.668945312 125.5 722.123046875 205 c 0
 735.185546875 251.25 753.181640625 329.431640625 752.450195312 336.75 c 0
 752.200195312 339.25 752.115234375 342.02734375 752.258789062 343 c 0
EndSplineSet
EndChar

StartChar: x
Encoding: 89 120 89
Width: 1000
VWidth: 0
Flags: H
LayerCount: 2
Fore
SplineSet
565.5 400.64453125 m 0
 572.607421875 406.817382812 583.16015625 406 589.9609375 398.75 c 0
 599.884765625 388.171875 596.603515625 379.25 549.052734375 287.5 c 0
 524.82421875 240.75 505 201.543945312 505 200.375 c 0
 505 199.203125 518.830078125 176.5 535.840820312 149.75 c 0
 573.516601562 90.5 634.108398438 -10.0927734375 640.34765625 -23.75 c 0
 654.282226562 -54.25 635.205078125 -70.205078125 612.25 -47.25 c 0
 600.216796875 -35.216796875 586.348632812 -14.5 542.129882812 57.5 c 0
 498.217773438 129 481.650390625 155 480 155 c 0
 479.313476562 155 468.713867188 136.75 456.477539062 114.5 c 0
 393.647460938 0.25 371.666015625 -28.8837890625 358.390625 -15.5 c 0
 347.567382812 -4.587890625 359.112304688 23.5 418.603515625 131 c 0
 437.28125 164.75 452.5 193.596679688 452.5 195.25 c 0
 452.5 205.344726562 374 306.447265625 340.5 339.498046875 c 0
 324.25 355.530273438 322.193359375 358.571289062 323.592773438 364.5 c 0
 325.657226562 373.25 333.782226562 380 342.25 380 c 0
 357.349609375 380 384.919921875 354.75 430.147460938 299.5 c 0
 442.221679688 284.75 457.524414062 265.126953125 463.875 256.25 c 0
 470.313476562 247.25 476.448242188 240.61328125 477.625 241.375 c 0
 478.7890625 242.12890625 490.16015625 262.75 502.783203125 287 c 0
 546.5078125 371 560.444335938 396.25390625 565.5 400.64453125 c 0
EndSplineSet
EndChar

StartChar: y
Encoding: 90 121 90
Width: 1000
VWidth: 0
Flags: H
LayerCount: 2
Fore
SplineSet
322.25 525.299804688 m 0
 329.5 531.099609375 335.353515625 531.1796875 342.25 525.571289062 c 0
 351.899414062 517.724609375 359.39453125 469.25 371.330078125 337.5 c 0
 378.5546875 257.75 383.390625 220.392578125 389.129882812 200 c 2
 393 186.25 l 1
 402.081054688 196.75 l 2
 419.748046875 217.177734375 445.912109375 263.75 516.266601562 400 c 0
 559.252929688 483.25 573.0859375 508.307617188 580.717773438 516.75 c 0
 590.681640625 527.771484375 607.948242188 526.5 618.0625 514 c 0
 623.025390625 507.8671875 623.741210938 490.5 620.08203125 465 c 0
 618.795898438 456.0390625 615.990234375 409.5 613.827148438 361.25 c 0
 601.778320312 92.5 578.12890625 -24.826171875 527.25 -68.2666015625 c 0
 497.29296875 -93.8447265625 452.75 -100.94921875 408.75 -87.1669921875 c 0
 365 -73.462890625 324.93359375 -33.27734375 318.600585938 3.25 c 0
 316.37109375 16.107421875 320 15.4970703125 344 -1.0234375 c 0
 394 -35.44140625 416.567382812 -45.25 445.75 -45.25 c 0
 475.25 -45.25 491.970703125 -37.6767578125 505.36328125 -18.25 c 0
 534.489257812 24 554.315429688 138.5 562.419921875 311.25 c 0
 563.838867188 341.5 565.393554688 373.900390625 565.875 383.25 c 0
 566.3515625 392.5 565.952148438 399.337890625 565 398.25 c 0
 564.034179688 397.146484375 548.385742188 368.25 530.071289062 333.75 c 0
 473.268554688 226.75 448.985351562 186.620117188 427.051757812 163.5 c 0
 404.044921875 139.25 381.586914062 136.8984375 364.984375 157 c 0
 349.301757812 175.98828125 341.705078125 218 331.21484375 343.75 c 0
 327.6484375 386.5 323.012695312 435.7109375 320.875 453.5 c 0
 318.7421875 471.25 316.831054688 493.5625 316.625 503.125 c 0
 316.290039062 518.625 316.897460938 521.017578125 322.25 525.299804688 c 0
EndSplineSet
EndChar

StartChar: z
Encoding: 91 122 91
Width: 1000
VWidth: 0
Flags: H
LayerCount: 2
Fore
SplineSet
475 425.115234375 m 0
 493.5 427.655273438 512.138671875 429.220703125 516.25 428.579101562 c 0
 535.5 425.57421875 541.66015625 404.616210938 527.25 391.154296875 c 0
 508.33984375 373.489257812 485.430664062 338 423.217773438 230 c 0
 381.0234375 156.75 353.4296875 111.870117188 324.076171875 68.75 c 2
 300.25 33.75 l 1
 414.5 32.220703125 l 2
 532.25 30.64453125 564.354492188 28.296875 574.75 20.5 c 0
 587.504882812 10.9345703125 585.5 -2.875 570.25 -10.5 c 0
 562.439453125 -14.4052734375 548.75 -14.6689453125 401.5 -13.75 c 0
 241.5 -12.751953125 241.243164062 -12.7412109375 236.776367188 -7.25 c 0
 227.498046875 4.158203125 230.571289062 12.5 258.875 52.75 c 0
 307.821289062 122.352539062 335 166 405.052734375 287.5 c 0
 426.096679688 324 446.9921875 359.36328125 451.583007812 366.25 c 0
 461.416992188 381 461.625 382.145507812 454.25 380.916992188 c 0
 451.220703125 380.412109375 414.5 374.426757812 372.5 367.591796875 c 0
 244 346.6796875 236.474609375 346.288085938 231.59375 360.25 c 0
 228.622070312 368.75 231.2734375 379.064453125 237.25 382.254882812 c 0
 242.958984375 385.302734375 428 418.66015625 475 425.115234375 c 0
EndSplineSet
EndChar

StartChar: braceleft
Encoding: 92 123 92
Width: 1000
VWidth: 0
Flags: H
LayerCount: 2
Fore
SplineSet
433.75 644.708984375 m 0
 437.817382812 646.22265625 448 647.014648438 456 646.440429688 c 0
 474.75 645.092773438 483.471679688 639.076171875 484.543945312 626.75 c 0
 485.55859375 615.076171875 478.5 610 461.25 610 c 0
 451.75 610 446.4609375 608.490234375 440.5 604.076171875 c 0
 414.91015625 585.126953125 408.252929688 559.5 405.016601562 467.5 c 0
 402.985351562 409.75 398.008789062 365.096679688 389.778320312 330.75 c 0
 384.565429688 309 372.080078125 287.25390625 354.1796875 268.75 c 0
 337.25 251.25 337.25 251.25 343 247.435546875 c 0
 353.75 240.3046875 365.215820312 229.227539062 368.552734375 222.75 c 0
 371.93359375 216.186523438 383.987304688 171.5 392.895507812 132.5 c 0
 396.282226562 117.676757812 398.34765625 95.75 399.725585938 60 c 0
 401.778320312 6.75 403.383789062 -2.1181640625 416.196289062 -31 c 0
 427.287109375 -56 442.33203125 -76.8740234375 463.25 -96.2861328125 c 0
 486.25 -117.629882812 495 -130.159179688 495 -141.75 c 0
 495 -147.75 493.701171875 -149.82421875 489.25 -150.9375 c 0
 475.935546875 -154.266601562 453.25 -142.486328125 428.5 -119.391601562 c 0
 401.3984375 -94.1015625 378.467773438 -55.25 365.856445312 -13.25 c 0
 360.068359375 6.0263671875 359.017578125 15.25 357.375 61.25 c 0
 356.286132812 91.75 353.928710938 120.036132812 351.75 128.75 c 0
 349.678710938 137.036132812 345.090820312 155.5 341.5 170 c 0
 337.909179688 184.5 334.401367188 198.82421875 333.663085938 202 c 0
 331.900390625 209.579101562 312.75 221.435546875 296.75 224.853515625 c 0
 280.25 228.377929688 275 233.241210938 275 245 c 0
 275 253.708007812 276.5 255.709960938 293 269.0234375 c 0
 320.25 291.010742188 336.590820312 308.60546875 343.592773438 323.5 c 0
 354.89453125 347.541015625 364.091796875 413.25 366.022460938 483.75 c 0
 367.815429688 549.25 375.12109375 584.263671875 392.469726562 610.5 c 0
 400.569335938 622.75 421.622070312 640.196289062 433.75 644.708984375 c 0
EndSplineSet
EndChar

StartChar: bar
Encoding: 93 124 93
Width: 1000
VWidth: 0
Flags: H
LayerCount: 2
Fore
SplineSet
413 685.5 m 0
 422.270507812 694.770507812 437.56640625 689 442.158203125 674.5 c 0
 445.98046875 662.430664062 447.30859375 645.75 450.084960938 575 c 0
 453.458007812 489 453.665039062 140.083007812 450.383789062 70 c 0
 448.932617188 39.01953125 446.517578125 -22.75 445.006835938 -67.5 c 0
 441.8828125 -160 439.875 -180.603515625 433.09375 -189.75 c 0
 422.83984375 -203.579101562 409.944335938 -196.75 405.240234375 -175 c 0
 399.912109375 -150.370117188 399.28515625 -70.75 403.556640625 38.75 c 0
 406.694335938 119.19921875 407.8125 213.5 408 413.5 c 0
 408.240234375 670.5 408.432617188 680.932617188 413 685.5 c 0
EndSplineSet
EndChar

StartChar: braceright
Encoding: 94 125 94
Width: 1000
VWidth: 0
Flags: H
LayerCount: 2
Fore
SplineSet
344 661.270507812 m 0
 349.25 663.14453125 355.827148438 664.805664062 358.25 664.870117188 c 0
 364.883789062 665.046875 380.25 658.129882812 387 651.928710938 c 0
 395.05859375 644.525390625 412.484375 621.5 421.569335938 606.25 c 0
 438.25 578.25 438.25 578.25 440.205078125 492.5 c 0
 441.834960938 421 442.484375 412.391601562 447.259765625 399 c 0
 458.671875 367 478.420898438 337.354492188 496.75 324.711914062 c 0
 516.952148438 310.776367188 516.25 285.948242188 495.25 271.701171875 c 0
 475.75 258.470703125 453.888671875 234.965820312 450.65234375 223.75 c 0
 444.715820312 203.176757812 441.821289062 132.5 444.877929688 82.75 c 0
 446.920898438 49.5 446.995117188 29.3583984375 445.134765625 13 c 0
 437.487304688 -54.25 397.612304688 -122.392578125 360 -132.486328125 c 0
 338.423828125 -138.276367188 338.100585938 -130.25 358.594726562 -97.5 c 0
 376.584960938 -68.75 387.932617188 -45.5947265625 396.57421875 -20 c 2
 403.75 1.25 l 1
 403.85546875 92.5 l 2
 403.975585938 196.75 406.291015625 223.123046875 417.397460938 246.75 c 0
 424.331054688 261.5 445.860351562 286.393554688 459.75 295.720703125 c 2
 465.75 299.75 l 1
 454.004882812 312.75 l 2
 440.666015625 327.514648438 427.756835938 348.5 418.6328125 370.25 c 0
 405.93359375 400.525390625 405 408.5 405 486.75 c 0
 405 570.25 405.131835938 569.543945312 383.047851562 604 c 0
 365.583007812 631.25 361.395507812 634.762695312 343.75 636.96875 c 0
 319.37109375 640.015625 319.5 652.528320312 344 661.270507812 c 0
EndSplineSet
EndChar

StartChar: asciitilde
Encoding: 95 126 95
Width: 1000
VWidth: 0
Flags: H
LayerCount: 2
Fore
SplineSet
258 352.37890625 m 0
 283.75 356.974609375 307.59375 351.736328125 330 336.561523438 c 0
 347.404296875 324.7734375 358.366210938 314 387.545898438 280 c 0
 424.6640625 236.75 447.90625 219.850585938 485.25 208.958007812 c 0
 525 197.364257812 559.829101562 199.369140625 592 215.102539062 c 0
 609.96484375 223.887695312 617.75 230.098632812 650 261.375 c 0
 672.75 283.4375 689.196289062 297.5 692.25 297.5 c 0
 705.658203125 297.5 708.758789062 280.5 698.587890625 262.75 c 0
 673.948242188 219.75 619.288085938 176.346679688 577.25 166.400390625 c 0
 542.650390625 158.213867188 492.5 162.900390625 455.25 177.799804688 c 0
 418.96875 192.3125 391.926757812 215.25 344.489257812 271.75 c 0
 312.584960938 309.75 292.009765625 322.083007812 266 318.798828125 c 0
 234 314.758789062 187.220703125 279 172.072265625 247 c 0
 164.6171875 231.25 159.5390625 228.017578125 151 233.586914062 c 0
 146.286132812 236.661132812 145 239.75 145 248 c 0
 145 261.5 151.821289062 275.25 168.563476562 295.5 c 0
 192.694335938 324.685546875 227.75 346.98046875 258 352.37890625 c 0
EndSplineSet
EndChar

StartChar: uni3001
Encoding: 97 12289 97
Width: 1000
VWidth: 0
Flags: H
LayerCount: 2
Fore
SplineSet
159.25 59.8310546875 m 0
 165.829101562 63.8671875 183 61.6279296875 195.5 55.1025390625 c 0
 233.5 35.267578125 332.459960938 -62.2568359375 344.767578125 -92 c 0
 351.698242188 -108.75 339.918945312 -120.645507812 325.25 -111.709960938 c 0
 321.670898438 -109.529296875 302.391601562 -90 282.346679688 -68.25 c 0
 226.359375 -7.5 178.182617188 33.8115234375 166.5 31.087890625 c 0
 151.75 27.6494140625 145.725585938 51.5341796875 159.25 59.8310546875 c 0
EndSplineSet
EndChar

StartChar: uni3002
Encoding: 98 12290 98
Width: 1000
VWidth: 0
Flags: H
LayerCount: 2
Fore
SplineSet
197.25 53.5947265625 m 0
 206.25 55.3154296875 217.727539062 56.177734375 222.5 55.490234375 c 0
 282.75 46.81640625 322.310546875 -15.1630859375 302.119140625 -69.25 c 0
 287.096679688 -109.490234375 260.75 -128.5 220 -128.5 c 0
 203.75 -128.5 199.049804688 -127.416015625 184.75 -120.368164062 c 0
 162 -109.15625 144.165039062 -92.8408203125 135.703125 -75.5 c 0
 129.381835938 -62.5458984375 128.75 -58.75 128.75 -33.75 c 0
 128.75 -1.5 132.579101562 9.646484375 150.221679688 28.75 c 0
 163.44140625 43.064453125 175.5 49.4345703125 197.25 53.5947265625 c 0
212.5 16.0087890625 m 0
 205 18.2265625 197.555664062 20 195.75 20 c 0
 190.25 20 175.458007812 5 170.111328125 -6 c 0
 163.791992188 -19 162.950195312 -46.455078125 168.540039062 -57.25 c 0
 176.774414062 -73.150390625 203.25 -89.9072265625 220 -89.8193359375 c 0
 249 -89.6669921875 272.59765625 -58.4033203125 265.151367188 -30 c 0
 258.810546875 -5.8125 244.75 6.4736328125 212.5 16.0087890625 c 0
EndSplineSet
EndChar

StartChar: periodcentered
Encoding: 99 183 99
AltUni2: 0030fb.ffffffff.0
Width: 1000
VWidth: 0
Flags: H
LayerCount: 2
Fore
SplineSet
313.5 297.693359375 m 0
 329.25 304.78515625 344.4609375 303.888671875 357.75 295.0859375 c 0
 371.549804688 285.944335938 377.416992188 276 379.188476562 258.75 c 0
 381.139648438 239.75 371.817382812 220.219726562 356.5 211.213867188 c 0
 338.844726562 200.833984375 325.5 203.673828125 304.5 222.280273438 c 0
 289.642578125 235.443359375 285.905273438 246.75 289.962890625 266.25 c 0
 293.397460938 282.75 300.048828125 291.635742188 313.5 297.693359375 c 0
EndSplineSet
EndChar

StartChar: uni02C9
Encoding: 100 713 100
Width: 1000
VWidth: 0
Flags: H
LayerCount: 2
Fore
SplineSet
336.25 654.78125 m 0
 383 655.864257812 454.212890625 656.907226562 494.5 657.098632812 c 0
 575.5 657.484375 578.993164062 656.912109375 585.051757812 642.25 c 0
 589.18359375 632.25 586.416992188 623.653320312 576.75 616.458984375 c 0
 569.884765625 611.350585938 567.375 611.235351562 446.375 610.5 c 0
 378.625 610.087890625 300.682617188 610.764648438 273.5 612 c 0
 224 614.25 224 614.25 218.315429688 621 c 0
 210.947265625 629.75 211 636.25 218.5 643.75 c 0
 226.358398438 651.608398438 235.25 652.44140625 336.25 654.78125 c 0
EndSplineSet
EndChar

StartChar: caron
Encoding: 101 711 101
Width: 1000
VWidth: 0
Flags: H
LayerCount: 2
Fore
SplineSet
562 693.5859375 m 0
 570 697.862304688 577.022460938 696.5 583.068359375 689.5 c 0
 591.862304688 679.317382812 589.096679688 672.5 558.931640625 630 c 0
 530.965820312 590.59765625 508.912109375 555 479.32421875 501.5 c 0
 436.461914062 424 433.881835938 419.686523438 426.75 413.608398438 c 0
 416.981445312 405.282226562 404.5 405.678710938 388.5 414.821289062 c 0
 371.140625 424.741210938 357.181640625 441.25 335.079101562 478 c 0
 296.13671875 542.75 266.368164062 586.65625 231.17578125 631.25 c 0
 210.458984375 657.5 207.5 662.46875 207.5 671 c 0
 207.5 678.104492188 215.75 685 224.25 685 c 0
 239.212890625 685 294.1953125 614 353.76953125 517.75 c 0
 381.3125 473.25 402.655273438 444.405273438 405.75 447.5 c 0
 406.4375 448.1875 416.75 466.75 428.666992188 488.75 c 0
 478.770507812 581.25 546.500976562 685.302734375 562 693.5859375 c 0
EndSplineSet
EndChar

StartChar: dieresis
Encoding: 102 168 102
Width: 1000
VWidth: 0
Flags: H
LayerCount: 2
Fore
SplineSet
654 673.735351562 m 0
 665.357421875 677.845703125 679.75 676.354492188 693 669.694335938 c 0
 711.423828125 660.43359375 718.637695312 644.5 717.194335938 616.25 c 0
 716.352539062 599.75 715.454101562 596.912109375 708.887695312 590 c 0
 699.614257812 580.23828125 694 577.129882812 681.25 574.698242188 c 0
 660.401367188 570.721679688 641.625 582.75 628.875 608.25 c 0
 615.110351562 635.779296875 625.75 663.510742188 654 673.735351562 c 0
295.75 672.290039062 m 0
 319.043945312 683.84375 346.64453125 674.25 359.155273438 650.25 c 0
 369.97265625 629.5 365.96484375 606.017578125 348.75 589.286132812 c 0
 329.1953125 570.280273438 292.451171875 573 281.682617188 594.25 c 0
 275.474609375 606.5 269.556640625 630.946289062 270.848632812 639 c 0
 272.814453125 651.25 284.307617188 666.614257812 295.75 672.290039062 c 0
EndSplineSet
EndChar

StartChar: uni3003
Encoding: 103 12291 103
Width: 1000
VWidth: 0
Flags: H
LayerCount: 2
Fore
SplineSet
471.5 479.616210938 m 0
 483.647460938 486.706054688 500 478.75 500 465.75 c 0
 500 462.583007812 494.432617188 446.75 487.603515625 430.5 c 0
 470.861328125 390.657226562 446.938476562 325 425.026367188 258.75 c 0
 401.625 188 394.055664062 172.59375 384.5 176.26953125 c 0
 374.147460938 180.250976562 372.21875 204.75 379.778320312 236.25 c 0
 397.115234375 308.5 458.817382812 472.213867188 471.5 479.616210938 c 0
609.37109375 485.5 m 0
 614.372070312 491.079101562 629.5 491.26953125 635.5 485.830078125 c 0
 638.200195312 483.381835938 640 478.25 640 473 c 0
 640 462.899414062 584.677734375 298.75 568.551757812 261 c 0
 556.26953125 232.25 545.072265625 212.376953125 529.95703125 192.5 c 2
 519.5 178.75 l 1
 520.859375 203.75 l 2
 522.5390625 234.630859375 527.221679688 252 562.912109375 359.75 c 0
 593.220703125 451.25 603.423828125 478.8671875 609.37109375 485.5 c 0
EndSplineSet
EndChar

StartChar: uni3005
Encoding: 104 12293 104
Width: 1000
VWidth: 0
Flags: H
LayerCount: 2
Fore
SplineSet
357.75 670.25 m 0
 367.453125 679.953125 384.6015625 672.5 389.9609375 656.25 c 0
 397.018554688 634.853515625 371.958984375 556.75 329.401367188 467.5 c 0
 321.17578125 450.25 312.875976562 432.498046875 310.875 427.875 c 2
 307.25 419.5 l 1
 323 421.162109375 l 2
 360.142578125 425.08203125 493 441.080078125 573.75 451.356445312 c 0
 682.5 465.196289062 723.53515625 468.327148438 733 463.508789062 c 0
 747.75 456 748.232421875 437.73046875 734 425.641601562 c 0
 721.612304688 415.119140625 713.885742188 404.25 666.90234375 331.25 c 0
 599.645507812 226.75 551.581054688 158.826171875 521.307617188 125.5 c 2
 507 109.75 l 1
 542.75 74.3095703125 l 2
 581.056640625 36.3359375 602.291992188 11.25 629.356445312 -28 c 0
 639.009765625 -42 647.588867188 -52.017578125 649.375 -51.375 c 0
 651.079101562 -50.76171875 655.349609375 -54 658.76953125 -58.5 c 0
 670.375 -73.7705078125 664.75 -91.8505859375 647 -96.3291015625 c 0
 632.266601562 -100.046875 618.3671875 -87.5 590.137695312 -45 c 0
 570.702148438 -15.73828125 542 18.333984375 510.5 49.5400390625 c 2
 479.5 80.25 l 1
 474 75.1318359375 l 2
 466.272460938 67.94140625 464.217773438 68.75 468.6171875 77.25 c 2
 472.5 84.75 l 1
 454.25 99.919921875 l 2
 415.966796875 131.7421875 320.25 196.657226562 272.75 223.012695312 c 0
 261.75 229.116210938 258.168945312 238.15234375 263.541015625 246.25 c 0
 269.983398438 255.959960938 281 254.5 309.75 240.125 c 0
 355.948242188 217.026367188 415.5 179.26171875 464 142.309570312 c 0
 478.25 131.452148438 490.452148438 122.5 491 122.5 c 0
 491.55078125 122.5 500.116210938 136.75 510.083984375 154.25 c 0
 527.893554688 185.518554688 619.446289062 334.75 656.708984375 393.25 c 0
 667.059570312 409.5 674.938476562 423.311523438 674.25 424 c 0
 673.5625 424.6875 631.5 420.147460938 580.75 413.908203125 c 0
 419 394.020507812 329.458984375 385.55859375 313.5 388.651367188 c 0
 309 389.5234375 303.602539062 392.579101562 301.625 395.375 c 2
 298 400.5 l 1
 294.375 394.625 l 2
 292.388671875 391.40625 283.958984375 375.75 275.73046875 360 c 0
 215.654296875 245 137.737304688 130.493164062 109.75 116.076171875 c 0
 84.1455078125 102.885742188 90.88671875 127 130.4140625 190 c 0
 223.428710938 338.25 297.563476562 481.258789062 340.233398438 594.75 c 0
 353.862304688 631 357.72265625 646.706054688 354.857421875 654.25 c 0
 351.629882812 662.75 351.934570312 664.434570312 357.75 670.25 c 0
EndSplineSet
EndChar

StartChar: emdash
Encoding: 105 8212 105
Width: 1000
VWidth: 0
Flags: H
LayerCount: 2
Fore
SplineSet
337.5 315.798828125 m 0
 442.022460938 317.290039062 474.75 317.190429688 602.5 314.995117188 c 0
 738.25 312.662109375 778.92578125 310.963867188 873.25 303.688476562 c 0
 936.25 298.828125 944.612304688 297.239257812 951.859375 288.75 c 0
 958.689453125 280.75 959.041992188 275.022460938 953.154296875 267.75 c 0
 946.271484375 259.248046875 932.5 257.518554688 892.5 260.13671875 c 0
 652 275.875976562 307.177734375 279.8828125 156.5 268.688476562 c 2
 96.75 264.25 l 1
 90.875 271 l 2
 87.611328125 274.75 85 279.638671875 85 282 c 0
 85 288.9921875 92 297.021484375 100.5 299.779296875 c 0
 120.43359375 306.24609375 241.5 314.4296875 337.5 315.798828125 c 0
EndSplineSet
EndChar

StartChar: uniFF5E
Encoding: 106 65374 106
Width: 1000
VWidth: 0
Flags: H
LayerCount: 2
Fore
SplineSet
258 393.522460938 m 0
 287 401.340820312 316 395.846679688 345 377.0390625 c 0
 354.184570312 371.08203125 386.25 341.997070312 418.75 310.142578125 c 0
 492 238.34765625 525.028320312 213.366210938 571.25 194.793945312 c 0
 623 174 673.645507812 175.182617188 715.5 198.162109375 c 0
 752.990234375 218.744140625 787.288085938 250 850.5703125 321.25 c 0
 883.654296875 358.5 906.775390625 380 913.75 380 c 0
 926.37890625 380 907.149414062 338.25 874.484375 294.75 c 0
 814.224609375 214.5 755.106445312 165.2109375 697.5 147.188476562 c 0
 670.44140625 138.723632812 623.75 139.139648438 589.75 148.150390625 c 0
 526.870117188 164.813476562 467.669921875 205.75 393.29296875 284 c 0
 351.232421875 328.25 329.625976562 346.959960938 310 356.122070312 c 0
 275.236328125 372.353515625 239.633789062 357.5 187.459960938 305 c 0
 164.850585938 282.25 134.267578125 245.416015625 127.884765625 233.25 c 0
 126.33203125 230.288085938 125 223.25 125 218 c 0
 125 206.75 121.435546875 202.5 112 202.5 c 0
 95.748046875 202.5 92.5546875 230.75 106.1796875 254 c 0
 119.766601562 277.184570312 150.25 314.600585938 175.25 338.778320312 c 0
 210.5 372.870117188 230.520507812 386.114257812 258 393.522460938 c 0
EndSplineSet
EndChar

StartChar: uni2016
Encoding: 107 8214 107
Width: 1000
VWidth: 0
Flags: H
LayerCount: 2
Fore
SplineSet
354.75 704.75 m 2
 361.5 711.5 370.39453125 711.603515625 376.284179688 705 c 0
 381.83203125 698.779296875 383.434570312 679.25 387.571289062 567.5 c 0
 391.411132812 463.75 391.51953125 138.756835938 387.740234375 60 c 0
 381.465820312 -70.75 373.65625 -147.236328125 364.690429688 -165.75 c 0
 361.541992188 -172.25 358.106445312 -177.5 357 -177.5 c 0
 353.07421875 -177.5 347.342773438 -162.25 344.973632812 -145.5 c 0
 342.56640625 -128.487304688 343.190429688 -109.25 350.342773438 20 c 0
 353.915039062 84.5654296875 354.694335938 432.5 351.62109375 590.5 c 2
 349.5 699.5 l 1
 354.75 704.75 l 2
529.75 727.857421875 m 2
 537.25 733.928710938 541.577148438 733.672851562 548.5 726.75 c 0
 554.25 721 554.25 721 555.875976562 618.75 c 0
 558.27734375 467.75 557.754882812 210.67578125 554.893554688 135 c 0
 551.784179688 52.75 540.733398438 -123.353515625 537.33984375 -144.75 c 0
 531.3125 -182.75 516.018554688 -185.713867188 510.24609375 -150 c 0
 505.637695312 -121.4921875 506.879882812 -85.75 517.93359375 71.25 c 0
 519.629882812 95.3447265625 521.346679688 232.875 522.25 417.125 c 2
 523.75 723 l 1
 529.75 727.857421875 l 2
EndSplineSet
EndChar

StartChar: ellipsis
Encoding: 108 8230 108
AltUni2: 0022ef.ffffffff.0
Width: 1000
VWidth: 0
Flags: H
LayerCount: 2
Fore
SplineSet
468.75 337.283203125 m 0
 481.5 343.52734375 507.854492188 337.474609375 517.884765625 326 c 0
 523.545898438 319.5234375 527.5 304 527.5 288.25 c 0
 527.5 271.75 520.078125 262.155273438 503.75 257.545898438 c 0
 469.5 247.87890625 439.08984375 268.830078125 443.581054688 299 c 0
 445.293945312 310.5 460.125 333.059570312 468.75 337.283203125 c 0
751.25 341.529296875 m 0
 756.75 343.30078125 762.9375 344.809570312 765 344.8828125 c 0
 774.202148438 345.20703125 790.46484375 331.75 799.297851562 316.5 c 0
 804.1484375 308.125 803.178710938 287.75 797.358398438 275.75 c 0
 786.323242188 253 760.48828125 243.458984375 742.5 255.491210938 c 0
 723 268.533203125 713.588867188 305.557617188 725.021484375 324.25 c 0
 730.283203125 332.852539062 736 336.618164062 751.25 341.529296875 c 0
196.5 346.8984375 m 0
 214.25 351.4765625 231.133789062 343.783203125 241.262695312 326.5 c 0
 267.782226562 281.25 202.275390625 237.467773438 173.185546875 281 c 0
 168.67578125 287.75 164.293945312 296.055664062 163.428710938 299.5 c 0
 159.409179688 315.482421875 178 342.125976562 196.5 346.8984375 c 0
EndSplineSet
EndChar

StartChar: quoteleft
Encoding: 109 8216 109
Width: 1000
VWidth: 0
Flags: H
LayerCount: 2
Fore
SplineSet
497.666015625 663 m 0
 509.46875 675.25 516.545898438 677.879882812 519.192382812 671 c 0
 522.387695312 662.692382812 511.318359375 631.75 486.192382812 578.75 c 0
 471.733398438 548.25 460 522.211914062 460 520.625 c 0
 460 519.091796875 461.75 518.40625 463.75 519.15625 c 0
 469.262695312 521.223632812 483.73046875 515.5 490.0546875 508.75 c 0
 497.708007812 500.583007812 499.797851562 476.5 494.1328125 461.75 c 0
 486.329101562 441.4296875 465 436.502929688 444.25 450.227539062 c 0
 437.75 454.52734375 431.287109375 460.234375 429.784179688 463 c 0
 424.715820312 472.333007812 423.857421875 514.5 428.379882812 532 c 0
 436.909179688 565 477.879882812 642.46484375 497.666015625 663 c 0
EndSplineSet
EndChar

StartChar: quoteright
Encoding: 110 8217 110
Width: 1000
VWidth: 0
Flags: H
LayerCount: 2
Fore
SplineSet
548.75 635.263671875 m 0
 561.008789062 639.104492188 576.052734375 629.75 583.75 613.5 c 0
 588.942382812 602.538085938 595 570.5 595 554 c 0
 595 526.270507812 578.330078125 478.5 557.573242188 446.75 c 0
 539.259765625 418.735351562 530.75 412.600585938 501.25 406.141601562 c 2
 493.75 404.5 l 1
 501.25 409.327148438 l 2
 511 415.603515625 516.5234375 422.131835938 518.739257812 430 c 0
 519.708007812 433.4375 527.643554688 454.25 536.375 476.25 c 0
 545.106445312 498.25 553.9375 523.393554688 556 532.125 c 0
 559.484375 546.875 559.44921875 547.858398438 555.5 546 c 0
 553.173828125 544.905273438 545.875 543.547851562 539.375 543 c 0
 528.875 542.116210938 526.666015625 542.83984375 520.295898438 549.25 c 0
 504.147460938 565.5 503.224609375 598.25 518.448242188 614.75 c 0
 524.705078125 621.53125 541.75 633.0703125 548.75 635.263671875 c 0
EndSplineSet
EndChar

StartChar: quotedblleft
Encoding: 111 8220 111
Width: 1000
VWidth: 0
Flags: H
LayerCount: 2
Fore
SplineSet
523.5 662.83203125 m 0
 535.5 670.252929688 541.151367188 668.478515625 542.0703125 657 c 0
 542.9765625 645.665039062 536.442382812 630.5 513.844726562 591.5 c 0
 498.635742188 565.25 492.822265625 553.454101562 488.95703125 541 c 0
 487.508789062 536.333007812 488.5 535.235351562 495.5 533.754882812 c 0
 507.5 531.216796875 515.072265625 525.545898438 518.875 516.25 c 0
 521.740234375 509.245117188 521.735351562 506 518.838867188 494.75 c 0
 510.084960938 460.75 476.359375 454.341796875 459.630859375 483.5 c 0
 454.409179688 492.6015625 453.75 497 453.75 522.75 c 2
 453.75 551.75 l 1
 466.716796875 577.75 l 2
 484.047851562 612.5 513.51953125 656.66015625 523.5 662.83203125 c 0
438.75 670.821289062 m 0
 448.5 675.959960938 450 675.849609375 450 670 c 0
 450 660.883789062 440.969726562 641 424.112304688 613 c 0
 403.19140625 578.25 390.005859375 550.543945312 388.299804688 537.75 c 2
 387 528 l 1
 397.25 526.263671875 l 2
 421.75 522.112304688 430.232421875 495.07421875 413.803710938 473.5 c 0
 396.092773438 450.2421875 370.340820312 452.75 357.32421875 479 c 0
 352.001953125 489.733398438 351.265625 494.5 351.375 517.5 c 0
 351.484375 540.5 352.447265625 546.256835938 359.150390625 564 c 0
 376.905273438 611 410.318359375 655.838867188 438.75 670.821289062 c 0
EndSplineSet
EndChar

StartChar: quotedblright
Encoding: 112 8221 112
Width: 1000
VWidth: 0
Flags: H
LayerCount: 2
Fore
SplineSet
488.75 624.0078125 m 0
 518.370117188 637.112304688 547.5 605.5 547.5 560.25 c 0
 547.5 530 537.87109375 487.700195312 525.475585938 463.5 c 0
 517.79296875 448.5 500.9453125 428.24609375 490.25 421.151367188 c 0
 482.5 416.009765625 454.965820312 406.626953125 453.125 408.5 c 0
 450.641601562 411.02734375 464.65234375 444.25 474.633789062 459.5 c 0
 492.115234375 486.2109375 496.54296875 497.5 503.754882812 533.75 c 0
 504.634765625 538.168945312 503.5 538.75 494 538.75 c 0
 475.079101562 538.75 465 553 465 579.75 c 0
 465 603 472.388671875 616.768554688 488.75 624.0078125 c 0
381 622.770507812 m 0
 401.75 632.216796875 424.166015625 625.350585938 432.486328125 607 c 0
 444.416992188 580.686523438 435.9921875 521.5 413.83984375 476 c 0
 394.73046875 436.75 370.940429688 413.682617188 344.5 408.766601562 c 0
 336.25 407.232421875 335 407.625 335 411.75 c 0
 335 417.793945312 345.469726562 440 354.56640625 453.25 c 0
 370.528320312 476.5 394.489257812 532.2734375 390.9765625 538 c 0
 390.275390625 539.142578125 387.5 540 384.5 540 c 0
 376.162109375 540 363.543945312 555.5 360.076171875 570 c 0
 354.217773438 594.5 361.997070312 614.120117188 381 622.770507812 c 0
395.5 582 m 0
 397.75 584.25 397.75 585.75 395.5 588 c 0
 393.125 590.375 392.5 589.75 392.5 585 c 0
 392.5 580.25 393.125 579.625 395.5 582 c 0
EndSplineSet
EndChar

StartChar: uni3014
Encoding: 113 12308 113
Width: 1000
VWidth: 0
Flags: H
LayerCount: 2
Fore
SplineSet
580.75 636.247070312 m 0
 589.25 639.5390625 599.185546875 642.305664062 602.75 642.374023438 c 0
 611.5 642.540039062 622.5 633.69921875 622.5 626.5 c 0
 622.5 620.071289062 614 611.450195312 605 608.75 c 0
 579.96875 601.240234375 535.75 573.063476562 449.75 509.821289062 c 0
 417.25 485.920898438 383.276367188 461.114257812 374.5 454.875 c 2
 358.5 443.5 l 1
 360.75 414.875 l 2
 361.986328125 399.1484375 362.436523438 311 361.75 219.25 c 2
 360.5 52.25 l 1
 369.625 48.5 l 2
 374.670898438 46.4267578125 397.75 37.97265625 421.25 29.5888671875 c 0
 484 7.205078125 518.064453125 -6.498046875 548.25 -21.498046875 c 0
 615.25 -54.791015625 661.568359375 -95.41015625 652.3046875 -112.75 c 0
 649.853515625 -117.336914062 647.875 -117.858398438 636.625 -116.875 c 0
 625.619140625 -115.913085938 619.25 -112.796875 592.75 -95.40625 c 0
 558.25 -72.765625 529.694335938 -57.4404296875 496.25 -43.6162109375 c 0
 472.484375 -33.7939453125 380.5 1.3076171875 351.25 11.71484375 c 0
 320.559570312 22.634765625 323.793945312 -3.5 323.369140625 237 c 0
 323.166015625 352 322.791015625 448.83984375 322.536132812 452 c 0
 321.891601562 459.998046875 327.5 465.600585938 353.75 483.181640625 c 0
 366.125 491.46875 403.25 518.100585938 436.25 542.362304688 c 0
 523.5 606.508789062 552.333984375 625.243164062 580.75 636.247070312 c 0
EndSplineSet
EndChar

StartChar: uni3015
Encoding: 114 12309 114
Width: 1000
VWidth: 0
Flags: H
LayerCount: 2
Fore
SplineSet
241.625 645.375 m 0
 243.956054688 647.989257812 248.25 650 251.5 650 c 0
 257.990234375 650 370.75 594.35546875 429.25 562.284179688 c 0
 449.5 551.182617188 477.567382812 534.622070312 491.25 525.701171875 c 0
 520.25 506.795898438 561.526367188 474.083984375 565.321289062 467 c 0
 567.184570312 463.521484375 567.201171875 452.375 565.375 430.375 c 0
 563.931640625 412.981445312 562.159179688 342.5 561.4375 273.75 c 0
 559.947265625 131.75 556.340820312 36.3515625 552.15625 28.25 c 0
 549.0078125 22.154296875 499.5 -9.900390625 414 -61.2001953125 c 0
 324.25 -115.049804688 291.065429688 -129.791992188 259.25 -129.943359375 c 0
 252.75 -129.974609375 247.557617188 -129.106445312 247.62890625 -128 c 0
 247.787109375 -125.546875 279.25 -101.239257812 302.5 -85.6064453125 c 0
 312.833007812 -78.6591796875 346.5 -57.263671875 377.5 -37.943359375 c 0
 502.5 39.9599609375 515.100585938 48.2724609375 516.107421875 53.5 c 0
 517.497070312 60.708984375 522.333984375 271.25 523.384765625 370.25 c 2
 524.25 451.75 l 1
 510.25 463.075195312 l 2
 475.05078125 491.549804688 430.25 518.633789062 337.25 567.662109375 c 0
 253 612.078125 237.5 622.463867188 237.5 634.5 c 0
 237.5 638 239.315429688 642.78515625 241.625 645.375 c 0
EndSplineSet
EndChar

StartChar: uni3008
Encoding: 115 12296 115
Width: 1000
VWidth: 0
Flags: H
LayerCount: 2
Fore
SplineSet
553.248046875 614.25 m 0
 561.354492188 622.75 565.2265625 625 571.75 625 c 0
 581.5 625 590 617.6640625 590 609.25 c 0
 590 605.986328125 581.081054688 591.5 569.375 575.75 c 0
 557.999023438 560.444335938 533.381835938 526.25 514.48046875 499.5 c 0
 460.42578125 423 431.879882812 388.879882812 371 328 c 2
 315 272 l 1
 325.625 260.25 l 2
 331.45703125 253.799804688 360.580078125 222 390.189453125 189.75 c 0
 521.708984375 46.5 580.3203125 -17.5166015625 594.822265625 -33.75 c 0
 614.920898438 -56.25 633.926757812 -83.138671875 637.584960938 -94.25 c 0
 641.454101562 -106 638.6640625 -119.122070312 631.25 -124.041015625 c 0
 620.798828125 -130.974609375 614.346679688 -127 595.469726562 -102 c 0
 577.278320312 -77.9091796875 551.739257812 -49 477.532226562 31.5 c 0
 400.329101562 115.25 271.265625 260.426757812 269.282226562 265.75 c 0
 264.858398438 277.618164062 269.75 284.288085938 309.75 320.931640625 c 0
 384.89453125 389.770507812 427.928710938 440 497.435546875 540 c 0
 528.713867188 585 541.223632812 601.642578125 553.248046875 614.25 c 0
EndSplineSet
EndChar

StartChar: uni3009
Encoding: 116 12297 116
Width: 1000
VWidth: 0
Flags: H
LayerCount: 2
Fore
SplineSet
370.201171875 611 m 0
 374.556640625 616.547851562 377.125 617.616210938 384.625 617 c 0
 392.380859375 616.362304688 394.518554688 614.75 398.875 606.25 c 0
 402.391601562 599.388671875 438.875 564.23828125 515.125 494.25 c 0
 576.125 438.258789062 640.0078125 380.428710938 656.75 366.04296875 c 0
 702 327.161132812 727.5 294.6171875 727.5 275.75 c 0
 727.5 267.674804688 725.5 264.579101562 711.75 251.375 c 0
 703.1171875 243.084960938 676.270507812 209.25 652.338867188 176.5 c 0
 540.901367188 24 452.01171875 -74.5361328125 386.25 -118.465820312 c 0
 364.267578125 -133.150390625 363.17578125 -130.5 378.33984375 -99.25 c 0
 387.627929688 -80.109375 395.10546875 -70 422.909179688 -39 c 0
 499.734375 46.6572265625 550.244140625 109.25 618.393554688 203.25 c 0
 639.599609375 232.5 662.295898438 262.359375 668.75 269.5 c 2
 680.5 282.5 l 1
 674.219726562 290.5 l 2
 661.135742188 307.166992188 655.25 312.94921875 621.25 342.5390625 c 0
 602.037109375 359.260742188 559.75 398.034179688 527.5 428.5 c 0
 495.25 458.965820312 452.286132812 499.418945312 432.25 518.18359375 c 0
 364.5 581.634765625 356.51953125 593.572265625 370.201171875 611 c 0
EndSplineSet
EndChar

StartChar: uni300A
Encoding: 117 12298 117
Width: 1000
VWidth: 0
Flags: H
LayerCount: 2
Fore
SplineSet
591.25 655.344726562 m 0
 600 660.682617188 603.25 660.96875 610.75 657.065429688 c 0
 618.190429688 653.192382812 620 650 620 640.75 c 0
 620 634.72265625 616.388671875 629 603.75 615 c 0
 594.786132812 605.071289062 563.74609375 565.5 534.524414062 526.75 c 0
 451.57421875 416.75 391.587890625 343.6171875 338.487304688 287.75 c 0
 324.705078125 273.25 315.220703125 261.333007812 316.5 260.125 c 0
 317.743164062 258.951171875 330.5 248.697265625 345 237.216796875 c 0
 425.124023438 173.780273438 540.287109375 61.75 641.534179688 -51.25 c 0
 704.25390625 -121.25 710.159179688 -129.743164062 704.456054688 -141.75 c 0
 702.674804688 -145.5 698.25 -150.22265625 694.5 -152.375 c 0
 688.434570312 -155.856445312 686.875 -155.78125 679.125 -151.625 c 0
 674.383789062 -149.08203125 651.165039062 -125.5 627.557617188 -99.25 c 0
 495.80859375 47.25 362.364257812 176.328125 291 226.294921875 c 0
 265 244.5 262.5 247.193359375 262.5 257 c 0
 262.5 264.575195312 266.384765625 269.5 298.193359375 302.25 c 0
 358.999023438 364.854492188 414.015625 431.25 507.006835938 554.25 c 0
 564.086914062 629.75 579.3828125 648.106445312 591.25 655.344726562 c 0
464.786132812 681 m 0
 468.6875 685.75 477.724609375 686.275390625 482 682 c 0
 483.655273438 680.344726562 485 675.75 485 671.75 c 0
 485 662.009765625 471.768554688 631 459.504882812 612 c 0
 454.006835938 603.482421875 402.009765625 538.5 344.080078125 467.75 c 0
 201.813476562 294 177.309570312 262.78515625 177.65234375 255.75 c 0
 177.70703125 254.634765625 183.5 249.721679688 190.75 244.641601562 c 0
 246.400390625 205.649414062 467.279296875 -15 513.9765625 -78.25 c 0
 526.897460938 -95.75 529.676757812 -105.856445312 523.465820312 -112.75 c 0
 511.625976562 -125.890625 497.682617188 -115.5 431.875976562 -44.5 c 0
 343.825195312 50.5 196.063476562 194.91796875 158.5 222.689453125 c 0
 135.896484375 239.401367188 134.798828125 253.5 153.807617188 283 c 0
 172.018554688 311.260742188 201.858398438 348.5 382.579101562 568.5 c 0
 409.276367188 601 438.078125 638.8671875 446.375 652.375 c 0
 454.666992188 665.875 462.984375 678.806640625 464.786132812 681 c 0
EndSplineSet
EndChar

StartChar: uni300B
Encoding: 118 12299 118
Width: 1000
VWidth: 0
Flags: H
LayerCount: 2
Fore
SplineSet
221.75 654.642578125 m 0
 229 658.900390625 236.64453125 657.911132812 243.25 651.859375 c 0
 253.194335938 642.749023438 309.745117188 580.5 330.107421875 556.25 c 0
 340.498046875 543.875 371.443359375 504.5 398.875 468.75 c 0
 436.665039062 419.5 457.74609375 394.663085938 485.875 366.25 c 0
 506.41796875 345.5 524.002929688 326.8515625 525.24609375 324.5 c 0
 528.981445312 317.43359375 527.77734375 304.25 522.666992188 296.25 c 0
 506.192382812 270.463867188 478.107421875 231.5 439.77734375 181.25 c 0
 366.739257812 85.5 292.73828125 -13.734375 260.805664062 -58.75 c 0
 226.401367188 -107.25 221.27734375 -112.783203125 210.5 -113.077148438 c 0
 199.84375 -113.368164062 195 -108.5 195 -97.5 c 0
 195 -78.736328125 234.625976562 -21 383.739257812 177.5 c 0
 453.788085938 270.75 470.247070312 293.408203125 475.98828125 304.5 c 2
 480 312.25 l 1
 466 325.452148438 l 2
 443.196289062 346.956054688 407.553710938 389.75 359.350585938 453.5 c 0
 310.201171875 518.5 292.616210938 540.072265625 250.319335938 587.25 c 0
 219.1640625 622 210.91015625 635.516601562 214.75 645.5 c 0
 216.095703125 649 219.327148438 653.219726562 221.75 654.642578125 c 0
321.75 682.45703125 m 0
 329.629882812 688.669921875 334 687.793945312 351.25 676.543945312 c 0
 393.279296875 649.1328125 442.205078125 599.75 513.03125 513.25 c 0
 539.846679688 480.5 574.450195312 439.700195312 590 422.5 c 0
 605.59375 405.25 628.610351562 378.9296875 641.375 363.75 c 0
 654.19921875 348.5 669.177734375 331.787109375 675 326.23046875 c 0
 695 307.145507812 697.513671875 294.513671875 684 281 c 0
 679.25 276.25 673.845703125 272.5 671.75 272.5 c 0
 662.34375 272.5 623.619140625 224.5 564.856445312 140 c 0
 542.428710938 107.75 512.610351562 66.0263671875 498.75 47.5 c 0
 484.83203125 28.896484375 457.237304688 -9.25 437.263671875 -37.5 c 0
 389.006835938 -105.75 350.5625 -152.9296875 338.5 -158.703125 c 0
 330 -162.771484375 328.341796875 -162.884765625 322.75 -159.77734375 c 0
 314.59765625 -155.249023438 312.984375 -143.75 318.885742188 -132.25 c 0
 326.087890625 -118.216796875 422.321289062 21.25 456.71484375 67.5 c 0
 474.567382812 91.5068359375 504.280273438 133.25 522.556640625 160 c 0
 566.110351562 223.75 586.153320312 250.853515625 611.666015625 280.5 c 2
 632.75 305 l 1
 609.5 333 l 2
 596.6171875 348.515625 574.712890625 373.875 560.375 389.875 c 0
 546.091796875 405.814453125 511.944335938 446.75 484.15234375 481.25 c 0
 415.27734375 566.75 387.741210938 597.556640625 354.25 626.575195312 c 0
 313.75 661.66796875 307.975585938 671.596679688 321.75 682.45703125 c 0
EndSplineSet
EndChar

